<svg width="5687" height="4923" viewBox="0 0 5687 4923" fill="none" xmlns="http://www.w3.org/2000/svg">
<path d="M2843.07 4839.48V4922.33L0 3280.98V3198.13L2843.07 4839.48Z" fill="#E0E0E0"/>
<path d="M5686.02 3280.86L2843.07 4922.33V4839.48L5686.02 3198.13V3280.86Z" fill="#EBEBEB"/>
<path d="M5183.21 2907.75L2843.07 4258.83L502.931 2907.75L0 3198.14L2843.07 4839.49L5686.02 3198.14L5183.21 2907.75Z" fill="#F5F5F5"/>
<path d="M2964.9 4186.36L3467.83 4476.63L3432.67 4496.89L2927.59 4207.82L2964.9 4186.36Z" fill="#E0E0E0"/>
<path d="M5183.09 2907.75L4332.55 3399L4295.12 3420.46L4291.43 3422.6L3883.02 3658.39V3658.51H3882.91L3845.59 3679.97H3845.48L3424.92 3923.03L3387.48 3944.49L2966.92 4187.43L2929.49 4209L2843.07 4258.95L2805.64 4237.38L502.93 2907.75L961.516 2642.99L2450.05 1783.51L2843.07 1556.66L5183.09 2907.75Z" fill="#1C6ED0"/>
<path opacity="0.3" d="M5183.09 2907.75L4332.55 3399L4295.12 3420.46L4291.43 3422.6L3883.02 3658.39V3658.51H3882.91L3845.59 3679.97H3845.48L3424.92 3923.03L3387.48 3944.49L2966.92 4187.43L2929.49 4209L2843.07 4258.95L2805.64 4237.38L502.93 2907.75L961.516 2642.99L2450.05 1783.51L2843.07 1556.66L5183.09 2907.75Z" fill="white"/>
<path d="M4336.49 3444.42L3926.78 3683.79L3881.12 3657.32L3845.48 3636.82L3515.16 3446.09L3479.75 3425.7L3221.67 3276.7L3633.89 3038.64L3891.97 3187.65L3929.16 3209.11L4257.81 3399L4295.13 3420.46L4336.49 3444.42Z" fill="#F5F5F5"/>
<path d="M5183.21 2907.75L5686.02 3198.14L5183.21 2907.75Z" fill="#F5F5F5"/>
<path d="M3423.96 3922.43L3926.77 4212.7L3891.61 4232.96L3386.53 3944.01L3423.96 3922.43Z" fill="#E0E0E0"/>
<path d="M2805.76 4237.38L2302.83 4527.64L2337.99 4547.91L2843.07 4258.95L2805.76 4237.38Z" fill="#E0E0E0"/>
<path d="M2342.29 3970.35L1839.47 4260.62L1874.64 4281L2379.72 3991.93L2342.29 3970.35Z" fill="#E0E0E0"/>
<path d="M1878.93 3703.33L1376.12 3993.6L1411.28 4013.98L1916.36 3724.9L1878.93 3703.33Z" fill="#E0E0E0"/>
<path d="M1415.57 3436.31L912.762 3726.58L947.928 3746.96L1453 3457.89L1415.57 3436.31Z" fill="#E0E0E0"/>
<path d="M952.219 3169.29L449.406 3459.56L484.572 3479.94L989.53 3190.87L952.219 3169.29Z" fill="#E0E0E0"/>
<path d="M4332.56 3398.88L4835.37 3689.26L4800.2 3709.53L4295.12 3420.45L4332.56 3398.88Z" fill="#E0E0E0"/>
<path d="M4791.5 3134.95L5294.31 3425.34L5259.26 3445.6L4754.19 3156.53L4791.5 3134.95Z" fill="#E0E0E0"/>
<path d="M3882.91 3658.51L4385.84 3948.78L4350.68 3969.16L3845.6 3680.08L3882.91 3658.51Z" fill="#E0E0E0"/>
<path d="M4295.12 3420.46L3881.12 3657.32L3845.48 3636.82L4257.81 3399L4295.12 3420.46Z" fill="#E0E0E0"/>
<path d="M3929.16 3209.11L3515.15 3446.09L3479.75 3425.7L3891.97 3187.65L3929.16 3209.11Z" fill="#E0E0E0"/>
<g opacity="0.1">
<path d="M4129.07 2752.89L4091.28 2773.16L3678.94 3011.09L2639.11 3611.54L961.516 2642.99L2450.04 1783.51L4129.07 2752.89Z" fill="black"/>
</g>
<path opacity="0.1" d="M3262.56 4535.39C3410.88 4535.39 3531.13 4465.95 3531.13 4380.3C3531.13 4294.65 3410.88 4225.21 3262.56 4225.21C3114.23 4225.21 2993.98 4294.65 2993.98 4380.3C2993.98 4465.95 3114.23 4535.39 3262.56 4535.39Z" fill="black"/>
<path opacity="0.1" d="M2466.38 4561.02C2614.7 4561.02 2734.95 4491.58 2734.95 4405.93C2734.95 4320.28 2614.7 4250.84 2466.38 4250.84C2318.05 4250.84 2197.8 4320.28 2197.8 4405.93C2197.8 4491.58 2318.05 4561.02 2466.38 4561.02Z" fill="black"/>
<g opacity="0.1">
<path d="M4760.27 2808.68C4796.03 2829.54 4796.03 2863.16 4760.27 2883.9C4740.07 2894.12 4717.75 2899.45 4695.12 2899.45C4672.49 2899.45 4650.17 2894.12 4629.97 2883.9C4594.21 2863.16 4594.21 2829.54 4629.97 2808.68C4650.17 2798.46 4672.49 2793.13 4695.12 2793.13C4717.75 2793.13 4740.07 2798.46 4760.27 2808.68Z" fill="black"/>
</g>
<g opacity="0.1">
<path d="M4381.07 3279.19C4416.83 3300.05 4416.83 3333.67 4381.07 3354.41C4360.9 3364.64 4338.6 3369.97 4315.98 3369.97C4293.37 3369.97 4271.07 3364.64 4250.9 3354.41C4215.13 3333.67 4215.13 3300.05 4250.9 3279.19C4271.07 3268.96 4293.37 3263.62 4315.98 3263.62C4338.6 3263.62 4360.9 3268.96 4381.07 3279.19Z" fill="black"/>
</g>
<g opacity="0.1">
<path d="M1084.42 2966.63C1120.18 2987.37 1120.18 3021.11 1084.42 3041.85C1064.22 3052.07 1041.91 3057.4 1019.27 3057.4C996.638 3057.4 974.321 3052.07 954.126 3041.85C918.364 3021.11 918.364 2987.37 954.126 2966.63C974.321 2956.4 996.638 2951.08 1019.27 2951.08C1041.91 2951.08 1064.22 2956.4 1084.42 2966.63Z" fill="black"/>
</g>
<path d="M1154.51 1742.51V2668.03L2640.18 3525.72V2269.04L1440.96 1572.28L1154.51 1742.51Z" fill="#EBEBEB"/>
<path d="M4042.4 1459.51V2716.07L3547.34 3001.8L3135.12 3239.86L2640.18 3525.72V2269.16L3373.42 1302.4L4042.4 1459.51Z" fill="#FAFAFA"/>
<path d="M3547.34 2108.83V3001.8L3135.12 3240.22V2346.88C3136.67 2273.25 3154.38 2200.86 3186.98 2134.82C3189.84 2128.86 3192.7 2122.9 3195.8 2117.29C3232.87 2045.77 3284.49 1986.17 3341.23 1953.27C3365.84 1937.97 3394.05 1929.42 3423.01 1928.47C3496.2 1928.11 3547.34 1995.82 3547.34 2108.83Z" fill="#1C6ED0"/>
<path opacity="0.3" d="M3547.34 2108.83V3001.8L3135.12 3240.22V2346.88C3136.67 2273.25 3154.38 2200.86 3186.98 2134.82C3189.84 2128.86 3192.7 2122.9 3195.8 2117.29C3232.87 2045.77 3284.49 1986.17 3341.23 1953.27C3365.84 1937.97 3394.05 1929.42 3423.01 1928.47C3496.2 1928.11 3547.34 1995.82 3547.34 2108.83Z" fill="black"/>
<path d="M3511.1 2080.57L3398.81 2145.3L3365.91 2164.38L3351.01 2172.96L3331.58 2184.88L3314.05 2194.89L3295.1 2205.86L3168.14 2278.58C3174.71 2233.64 3187.8 2189.91 3207.01 2148.76C3207.18 2148.31 3207.38 2147.88 3207.6 2147.45C3210.11 2141.85 3212.85 2136.36 3215.59 2131.12C3215.73 2130.63 3215.97 2130.19 3216.3 2129.81C3220.6 2121.34 3225.13 2113.24 3229.89 2105.25C3253.08 2064.87 3283.65 2029.2 3320.01 2000.11C3323.83 1997.37 3327.64 1994.63 3331.93 1992.12C3336.23 1989.62 3337.18 1988.55 3339.92 1986.88L3344.93 1983.9C3347.19 1982.59 3349.34 1981.39 3351.36 1980.44C3392.01 1958.63 3429.33 1957.31 3458.65 1972.57C3462.47 1974.45 3466.1 1976.69 3469.5 1979.25L3474.86 1983.18L3476.29 1984.49C3478.87 1987.48 3481.26 1990.62 3483.45 1993.91C3499.71 2020.06 3509.21 2049.84 3511.1 2080.57Z" fill="#FAFAFA"/>
<path d="M3523.62 2093.21L3382.72 2174.74L3331.93 2204.07L3330.5 2204.9L3311.67 2215.75L3166.12 2299.79C3166.71 2292.76 3167.55 2285.61 3168.5 2278.57L3295.46 2205.26L3314.41 2194.29L3331.93 2184.28L3351.36 2172.36L3366.26 2163.78L3399.17 2144.7L3511.46 2079.98C3509.55 2049.28 3500.05 2019.54 3483.8 1993.43C3481.62 1990.14 3479.23 1987 3476.65 1984.01V1983.18C3479.76 1985.77 3482.71 1988.56 3485.47 1991.52C3505.62 2014.53 3519.56 2048.86 3523.62 2093.21Z" fill="#1C6ED0"/>
<path opacity="0.6" d="M3523.62 2093.21L3382.72 2174.74L3331.93 2204.07L3330.5 2204.9L3311.67 2215.75L3166.12 2299.79C3166.71 2292.76 3167.55 2285.61 3168.5 2278.57L3295.46 2205.26L3314.41 2194.29L3331.93 2184.28L3351.36 2172.36L3366.26 2163.78L3399.17 2144.7L3511.46 2079.98C3509.55 2049.28 3500.05 2019.54 3483.8 1993.43C3481.62 1990.14 3479.23 1987 3476.65 1984.01V1983.18C3479.76 1985.77 3482.71 1988.56 3485.47 1991.52C3505.62 2014.53 3519.56 2048.86 3523.62 2093.21Z" fill="black"/>
<path d="M3318.7 2199.06L3301.06 2209.2L3299.87 2209.91L3293.79 2205.98L3283.66 2199.42L3207.01 2148.76C3207.18 2148.31 3207.38 2147.87 3207.6 2147.45C3210.11 2141.85 3212.85 2136.36 3215.59 2131.12L3302.61 2188.46L3312.74 2195.01L3318.7 2199.06Z" fill="#1C6ED0"/>
<path opacity="0.6" d="M3318.7 2199.06L3301.06 2209.2L3299.87 2209.91L3293.79 2205.98L3283.66 2199.42L3207.01 2148.76C3207.18 2148.31 3207.38 2147.87 3207.6 2147.45C3210.11 2141.85 3212.85 2136.36 3215.59 2131.12L3302.61 2188.46L3312.74 2195.01L3318.7 2199.06Z" fill="black"/>
<path d="M3474.74 1983.18L3473.07 1986.28L3472 1988.19L3387.37 2139.46L3377.11 2157.94L3370.92 2168.9L3359.71 2175.34L3351.01 2180.47L3331.58 2191.67L3319.66 2198.23V2000.11C3323.47 1997.37 3327.29 1994.63 3331.58 1992.12C3335.87 1989.62 3336.82 1988.55 3339.56 1986.88V2185.12L3344.09 2176.89L3351.01 2164.97L3354.46 2158.89L3458.53 1972.93C3462.35 1974.81 3465.98 1977.05 3469.38 1979.61L3474.74 1983.18Z" fill="#1C6ED0"/>
<path opacity="0.6" d="M3474.74 1983.18L3473.07 1986.28L3472 1988.19L3387.37 2139.46L3377.11 2157.94L3370.92 2168.9L3359.71 2175.34L3351.01 2180.47L3331.58 2191.67L3319.66 2198.23V2000.11C3323.47 1997.37 3327.29 1994.63 3331.58 1992.12C3335.87 1989.62 3336.82 1988.55 3339.56 1986.88V2185.12L3344.09 2176.89L3351.01 2164.97L3354.46 2158.89L3458.53 1972.93C3462.35 1974.81 3465.98 1977.05 3469.38 1979.61L3474.74 1983.18Z" fill="black"/>
<path d="M3330.15 2204.91L3311.31 2215.76L3301.06 2209.2L3295.1 2205.27L3207.6 2147.45C3210.1 2141.85 3212.85 2136.37 3215.59 2131.12L3210.22 2127.55L3210.94 2126.23L3216.3 2129.81L3314.05 2194.3L3320.01 2198.24L3330.15 2204.91Z" fill="#1C6ED0"/>
<path d="M3481.54 1989.27C3479.75 1987.6 3477.96 1985.93 3476.18 1984.5C3476.23 1984.22 3476.23 1983.94 3476.18 1983.66L3481.54 1989.27Z" fill="#455A64"/>
<path d="M3484.4 1991.76L3483.33 1993.67L3398.81 2145.06L3382.72 2174.75L3331.93 2204.07V1991.76C3334.56 1989.86 3337.18 1988.19 3339.92 1986.52L3344.93 1983.54C3347.19 1982.23 3349.34 1981.04 3351.36 1980.08V2190.6L3360.07 2174.98L3366.27 2164.02L3469.38 1979.84L3474.74 1983.78L3476.17 1985.09V1984.25C3479.06 1986.6 3481.8 1989.1 3484.4 1991.76Z" fill="#1C6ED0"/>
<path opacity="0.3" d="M3484.4 1991.76L3483.33 1993.67L3398.81 2145.06L3382.72 2174.75L3331.93 2204.07V1991.76C3334.56 1989.86 3337.18 1988.19 3339.92 1986.52L3344.93 1983.54C3347.19 1982.23 3349.34 1981.04 3351.36 1980.08V2190.6L3360.07 2174.98L3366.27 2164.02L3469.38 1979.84L3474.74 1983.78L3476.17 1985.09V1984.25C3479.06 1986.6 3481.8 1989.1 3484.4 1991.76Z" fill="black"/>
<path opacity="0.3" d="M3330.15 2204.91L3311.31 2215.76L3301.06 2209.2L3295.1 2205.27L3207.6 2147.45C3210.1 2141.85 3212.85 2136.37 3215.59 2131.12L3210.22 2127.55L3210.94 2126.23L3216.3 2129.81L3314.05 2194.3L3320.01 2198.24L3330.15 2204.91Z" fill="black"/>
<path d="M3191.99 2700.09C3191.47 2700.19 3190.95 2700.19 3190.44 2700.09C3189.97 2699.8 3189.59 2699.39 3189.32 2698.91C3189.05 2698.44 3188.9 2697.9 3188.89 2697.35V2385.15C3188.9 2384.6 3189.05 2384.06 3189.32 2383.58C3189.59 2383.1 3189.97 2382.7 3190.44 2382.41L3320.37 2307.42C3320.83 2307.13 3321.37 2306.97 3321.92 2306.97C3322.47 2306.97 3323.01 2307.13 3323.47 2307.42C3323.96 2307.7 3324.38 2308.09 3324.67 2308.57C3324.96 2309.05 3325.13 2309.6 3325.14 2310.17V2621.65C3325.1 2622.21 3324.93 2622.75 3324.64 2623.23C3324.35 2623.71 3323.95 2624.11 3323.47 2624.39L3193.66 2699.38C3193.15 2699.73 3192.59 2699.97 3191.99 2700.09ZM3195.2 2387.17V2691.39L3318.7 2619.86V2315.89L3195.2 2387.17Z" fill="#1C6ED0"/>
<path d="M3360.54 2602.94C3360.04 2603.09 3359.5 2603.09 3358.99 2602.94C3358.51 2602.67 3358.1 2602.27 3357.83 2601.79C3357.55 2601.3 3357.42 2600.75 3357.44 2600.2V2288.35C3357.44 2287.78 3357.58 2287.22 3357.85 2286.72C3358.12 2286.22 3358.51 2285.8 3358.99 2285.49L3488.93 2210.51C3489.41 2210.28 3489.94 2210.16 3490.48 2210.16C3491.01 2210.16 3491.54 2210.28 3492.03 2210.51C3492.52 2210.78 3492.94 2211.18 3493.23 2211.66C3493.52 2212.14 3493.68 2212.69 3493.7 2213.25V2524.74C3493.72 2525.31 3493.58 2525.88 3493.28 2526.36C3492.99 2526.85 3492.55 2527.24 3492.03 2527.48L3362.21 2602.46C3361.72 2602.8 3361.14 2602.96 3360.54 2602.94ZM3363.76 2290.14V2594.23L3487.26 2522.71V2218.85L3363.76 2290.14Z" fill="#1C6ED0"/>
<path d="M3191.98 3076.55C3191.47 3076.65 3190.95 3076.65 3190.44 3076.55C3189.97 3076.25 3189.59 3075.85 3189.32 3075.37C3189.05 3074.89 3188.9 3074.35 3188.89 3073.8V2762.44C3188.86 2761.88 3188.99 2761.33 3189.27 2760.84C3189.54 2760.36 3189.95 2759.96 3190.44 2759.69L3320.37 2684.71C3320.83 2684.42 3321.37 2684.26 3321.92 2684.26C3322.47 2684.26 3323.01 2684.42 3323.47 2684.71C3323.97 2684.98 3324.39 2685.37 3324.69 2685.85C3324.98 2686.34 3325.14 2686.89 3325.14 2687.46V2998.82C3325.12 2999.4 3324.96 2999.97 3324.67 3000.47C3324.38 3000.97 3323.96 3001.38 3323.47 3001.68L3193.53 3076.55C3193.02 3076.64 3192.5 3076.64 3191.98 3076.55ZM3195.2 2763.75V3067.84L3318.7 2996.32V2692.94L3195.2 2763.75Z" fill="#1C6ED0"/>
<path d="M3360.55 2979.98C3360.04 2980.14 3359.5 2980.14 3359 2979.98C3358.52 2979.71 3358.12 2979.31 3357.85 2978.83C3357.57 2978.34 3357.44 2977.8 3357.45 2977.24V2665.28C3357.46 2664.73 3357.61 2664.19 3357.88 2663.72C3358.15 2663.24 3358.53 2662.83 3359 2662.54L3488.93 2587.56C3489.39 2587.26 3489.93 2587.1 3490.48 2587.1C3491.03 2587.1 3491.57 2587.26 3492.03 2587.56C3492.52 2587.83 3492.94 2588.22 3493.23 2588.71C3493.52 2589.19 3493.68 2589.74 3493.7 2590.3V2901.79C3493.68 2902.35 3493.52 2902.9 3493.23 2903.38C3492.94 2903.86 3492.52 2904.26 3492.03 2904.53L3362.21 2979.51C3361.72 2979.84 3361.14 2980.01 3360.55 2979.98ZM3363.76 2667.19V2971.28L3487.26 2899.76V2595.78L3363.76 2667.19Z" fill="#1C6ED0"/>
<path d="M3480.82 2616.41C3478 2616.44 3475.24 2615.53 3472.99 2613.82C3470.74 2612.12 3469.12 2609.71 3468.38 2606.98C3467.64 2604.25 3467.83 2601.36 3468.92 2598.75C3470.01 2596.14 3471.93 2593.97 3474.39 2592.57L3515.87 2568.73L3505.14 2562.53C3503.7 2561.7 3502.44 2560.6 3501.43 2559.28C3500.41 2557.96 3499.67 2556.46 3499.24 2554.85C3498.81 2553.25 3498.69 2551.57 3498.91 2549.92C3499.12 2548.27 3499.66 2546.69 3500.49 2545.25C3501.32 2543.8 3502.43 2542.54 3503.74 2541.53C3505.06 2540.52 3506.57 2539.77 3508.17 2539.34C3509.78 2538.91 3511.45 2538.8 3513.1 2539.01C3514.75 2539.23 3516.34 2539.77 3517.78 2540.6L3547.7 2557.76C3549.63 2558.88 3551.23 2560.49 3552.34 2562.43C3553.46 2564.36 3554.04 2566.56 3554.04 2568.79C3554.04 2571.02 3553.46 2573.21 3552.34 2575.15C3551.23 2577.08 3549.63 2578.69 3547.7 2579.81L3487.14 2614.74C3485.23 2615.88 3483.04 2616.45 3480.82 2616.41Z" fill="#263238"/>
<path d="M4042.28 2623.8L3961.58 2670.77V2578.38L4042.28 2531.41V2623.8Z" fill="#E0E0E0"/>
<path d="M4042.28 2439.03L3961.58 2485.99V2393.61L4042.28 2346.64V2439.03Z" fill="#E0E0E0"/>
<path d="M4042.28 2254.38L3961.58 2301.34V2208.96L4042.28 2161.99V2254.38Z" fill="#E0E0E0"/>
<path d="M4042.28 2069.61L3961.58 2116.58V2024.19L4042.28 1977.23V2069.61Z" fill="#E0E0E0"/>
<path d="M4042.28 1884.96L3961.58 1931.92V1839.54L4042.28 1792.57V1884.96Z" fill="#E0E0E0"/>
<path d="M4042.28 1700.19L3961.58 1747.16V1654.77L4042.28 1607.8V1700.19Z" fill="#E0E0E0"/>
<path d="M4042.28 1515.53L3961.58 1562.5V1470.12L4042.28 1423.15V1515.53Z" fill="#E0E0E0"/>
<path d="M2720.88 3386.36L2640.18 3433.33V3340.94L2720.88 3293.98V3386.36Z" fill="#E0E0E0"/>
<path d="M2720.88 3201.71L2640.18 3248.56V3156.3L2720.88 3109.33V3201.71Z" fill="#E0E0E0"/>
<path d="M2720.88 3016.94L2640.18 3063.91V2971.52L2720.88 2924.55V3016.94Z" fill="#E0E0E0"/>
<path d="M2720.88 2832.17L2640.18 2879.14V2786.87L2720.88 2739.91V2832.17Z" fill="#E0E0E0"/>
<path d="M2720.88 2647.52L2640.18 2694.49V2602.1L2720.88 2555.13V2647.52Z" fill="#E0E0E0"/>
<path d="M2720.88 2462.87L2640.18 2509.72V2417.45L2720.88 2370.48V2462.87Z" fill="#E0E0E0"/>
<path d="M2720.88 2278.1L2640.18 2325.07V2232.69L2720.88 2185.72V2278.1Z" fill="#E0E0E0"/>
<path d="M2559.36 3293.98L2640.18 3340.94V3248.56L2559.36 3201.71V3293.98Z" fill="#E0E0E0"/>
<path d="M2559.36 3478.74L2640.18 3525.71V3433.33L2559.36 3386.36V3478.74Z" fill="#E0E0E0"/>
<path d="M2559.36 3109.32L2640.18 3156.29V3063.9L2559.36 3016.94V3109.32Z" fill="#E0E0E0"/>
<path d="M2559.36 2924.56L2640.18 2971.52V2879.14L2559.36 2832.17V2924.56Z" fill="#E0E0E0"/>
<path d="M2559.36 2739.91L2640.18 2786.88V2694.49L2559.36 2647.52V2739.91Z" fill="#E0E0E0"/>
<path d="M2559.36 2555.13L2640.18 2602.1V2509.72L2559.36 2462.87V2555.13Z" fill="#E0E0E0"/>
<path d="M2559.36 2370.49L2640.18 2417.45V2325.07L2559.36 2278.1V2370.49Z" fill="#E0E0E0"/>
<path d="M2559.36 2185.72L2640.18 2232.69V2140.42L2559.36 2093.45V2185.72Z" fill="#E0E0E0"/>
<path d="M1154.51 2483.25L1235.33 2530.22V2437.83L1154.51 2390.87V2483.25Z" fill="#E0E0E0"/>
<path d="M1154.51 2668.03L1235.33 2714.87V2622.61L1154.51 2575.64V2668.03Z" fill="#E0E0E0"/>
<path d="M1154.51 2298.6L1235.33 2345.45V2253.19L1154.51 2206.22V2298.6Z" fill="#E0E0E0"/>
<path d="M1154.51 2113.83L1235.33 2160.8V2068.41L1154.51 2021.45V2113.83Z" fill="#E0E0E0"/>
<path d="M1154.51 1929.18L1235.33 1976.15V1883.76L1154.51 1836.8V1929.18Z" fill="#E0E0E0"/>
<path d="M1759.01 2333.41V2749.08L1482.45 2589.35V2173.55L1759.01 2333.41Z" fill="#FAFAFA"/>
<path d="M1497.35 2388.48L1759.01 2539.52V2333.41L1497.35 2182.26V2388.48Z" fill="#1C6ED0"/>
<path opacity="0.6" d="M1497.35 2388.48L1759.01 2539.52V2333.41L1497.35 2182.26V2388.48Z" fill="white"/>
<path d="M1503.9 2576.71V2400.88L1759.01 2548.1V2526.76L1503.9 2379.42V2185.95L1482.33 2173.55V2589.35L1759.01 2749.08V2724.05L1503.9 2576.71Z" fill="#1C6ED0"/>
<path opacity="0.2" d="M1503.9 2576.71V2400.88L1759.01 2548.1V2526.76L1503.9 2379.42V2185.95L1482.33 2173.55V2589.35L1759.01 2749.08V2724.05L1503.9 2576.71Z" fill="black"/>
<path d="M2312.25 2652.88V3068.56L2035.69 2908.94V2493.15L2312.25 2652.88Z" fill="#FAFAFA"/>
<path d="M2050.59 2707.96L2312.24 2859V2652.89L2050.59 2501.73V2707.96Z" fill="#1C6ED0"/>
<path opacity="0.6" d="M2050.59 2707.96L2312.24 2859V2652.89L2050.59 2501.73V2707.96Z" fill="white"/>
<path d="M2057.14 2896.3V2720.36L2312.25 2867.69V2846.36L2057.14 2699.02V2505.55L2035.69 2493.15V2908.82L2312.37 3068.56V3043.64L2057.14 2896.3Z" fill="#1C6ED0"/>
<path opacity="0.2" d="M2057.14 2896.3V2720.36L2312.25 2867.69V2846.36L2057.14 2699.02V2505.55L2035.69 2493.15V2908.82L2312.37 3068.56V3043.64L2057.14 2896.3Z" fill="black"/>
<path d="M3617.91 2173.56V2589.23L3894.47 2429.49V2013.7L3617.91 2173.56Z" fill="#FAFAFA"/>
<path d="M3879.45 2228.63L3617.91 2379.67V2173.56L3879.45 2022.41V2228.63Z" fill="#1C6ED0"/>
<path opacity="0.8" d="M3879.45 2228.63L3617.91 2379.67V2173.56L3879.45 2022.41V2228.63Z" fill="white"/>
<path d="M3873.01 2416.98V2026.22L3894.47 2013.82V2429.49L3617.79 2589.23V2564.32L3873.01 2416.98Z" fill="#1C6ED0"/>
<path d="M3617.91 2366.91V2388.37L3889.34 2231.61V2210.16L3617.91 2366.91Z" fill="#1C6ED0"/>
<path d="M2788 2652.88V3068.56L3064.55 2908.94V2493.15L2788 2652.88Z" fill="#FAFAFA"/>
<path d="M3049.65 2707.96L2788 2859V2652.89L3049.65 2501.73V2707.96Z" fill="#1C6ED0"/>
<path opacity="0.8" d="M3049.65 2707.96L2788 2859V2652.89L3049.65 2501.73V2707.96Z" fill="white"/>
<path d="M3043.1 2896.3V2505.55L3064.67 2493.15V2908.82L2788 3068.56V3043.64L3043.1 2896.3Z" fill="#1C6ED0"/>
<path d="M2788 2846.36V2867.7L3059.55 2710.94V2689.6L2788 2846.36Z" fill="#1C6ED0"/>
<path d="M2367.55 2589.23L2499.87 2496.48L3360.54 1392.4L4137.05 1567.15L4229.32 1514.22L3352.91 1309.55L2367.55 2589.23Z" fill="#455A64"/>
<path d="M3352.92 1309.55L1954.39 523.383L975.941 1785.9L2367.56 2589.23L3352.92 1309.55Z" fill="#263238"/>
<path d="M3352.92 1309.55L4229.32 1514.23L2827.81 728.06L1954.39 523.383L3352.92 1309.55Z" fill="#37474F"/>
<path d="M1345.12 3087.39L1295.41 3116.24C1310.36 3064.09 1314.18 3009.38 1306.62 2955.67C1303.3 2936.67 1296.42 2918.47 1286.35 2902.02C1282.54 2893.92 1252.5 2843.61 1278.96 2820.49C1305.43 2797.36 1367.18 2843.37 1364.43 2967.47C1363.09 3008.1 1356.6 3048.39 1345.12 3087.39Z" fill="#1C6ED0"/>
<path opacity="0.5" d="M1345.12 3087.39L1295.41 3116.24C1310.36 3064.09 1314.18 3009.38 1306.62 2955.67C1303.3 2936.67 1296.42 2918.47 1286.35 2902.02C1282.54 2893.92 1252.5 2843.61 1278.96 2820.49C1305.43 2797.36 1367.18 2843.37 1364.43 2967.47C1363.09 3008.1 1356.6 3048.39 1345.12 3087.39Z" fill="black"/>
<path d="M1322.12 3103.25H1321.16C1320.57 3102.99 1320.09 3102.51 1319.83 3101.92C1319.56 3101.32 1319.53 3100.65 1319.73 3100.03C1333.01 3056.41 1338.97 3010.9 1337.37 2965.33C1336.42 2883.08 1293.51 2839.45 1293.15 2839.09C1292.7 2838.6 1292.45 2837.96 1292.45 2837.3C1292.45 2836.64 1292.7 2836 1293.15 2835.51C1293.62 2835.07 1294.23 2834.82 1294.88 2834.82C1295.52 2834.82 1296.14 2835.07 1296.61 2835.51C1296.61 2835.51 1341.43 2880.93 1342.38 2965.21C1343.89 3011.42 1337.81 3057.57 1324.38 3101.82C1324.18 3102.25 1323.86 3102.61 1323.46 3102.86C1323.06 3103.12 1322.59 3103.25 1322.12 3103.25Z" fill="white"/>
<path d="M1306.62 3109.92L1225.08 3158.32C1225.08 3158.32 1187.41 3152.72 1190.27 3117.31C1193.13 3081.91 1208.39 3073.56 1189.44 3057.71C1170.49 3041.85 1165.6 3041.02 1166.43 3025.88C1168 3014.85 1173.71 3004.83 1182.41 2997.87C1187.73 2993.5 1191.47 2987.51 1193.07 2980.82C1194.66 2974.12 1194.01 2967.09 1191.23 2960.79C1181.69 2942.44 1168.94 2925.03 1187.89 2916.21C1199.81 2911.2 1218.41 2917.52 1231.04 2930.87C1240.36 2942.72 1252.72 2951.83 1266.8 2957.22C1278.72 2960.32 1303.88 2960.55 1302.57 2981.06C1301.25 3001.56 1296.37 3008.95 1301.37 3018.13C1310.08 3035.89 1350.49 3045.19 1306.62 3109.92Z" fill="#1C6ED0"/>
<path opacity="0.2" d="M1306.62 3109.92L1225.08 3158.32C1225.08 3158.32 1187.41 3152.72 1190.27 3117.31C1193.13 3081.91 1208.39 3073.56 1189.44 3057.71C1170.49 3041.85 1165.6 3041.02 1166.43 3025.88C1168 3014.85 1173.71 3004.83 1182.41 2997.87C1187.73 2993.5 1191.47 2987.51 1193.07 2980.82C1194.66 2974.12 1194.01 2967.09 1191.23 2960.79C1181.69 2942.44 1168.94 2925.03 1187.89 2916.21C1199.81 2911.2 1218.41 2917.52 1231.04 2930.87C1240.36 2942.72 1252.72 2951.83 1266.8 2957.22C1278.72 2960.32 1303.88 2960.55 1302.57 2981.06C1301.25 3001.56 1296.37 3008.95 1301.37 3018.13C1310.08 3035.89 1350.49 3045.19 1306.62 3109.92Z" fill="black"/>
<path d="M1272.76 3132.1C1272.44 3132.08 1272.12 3132 1271.83 3131.86C1271.54 3131.72 1271.28 3131.52 1271.07 3131.28C1270.85 3131.03 1270.7 3130.74 1270.6 3130.43C1270.5 3130.13 1270.47 3129.8 1270.5 3129.48C1270.5 3128.28 1279.32 3008.01 1195.88 2929.09C1195.43 2928.63 1195.18 2928.01 1195.18 2927.36C1195.18 2926.72 1195.43 2926.1 1195.88 2925.63C1196.36 2925.18 1197 2924.93 1197.66 2924.93C1198.33 2924.93 1198.97 2925.18 1199.45 2925.63C1284.57 3006.1 1275.63 3128.28 1275.51 3129.95C1275.42 3130.6 1275.08 3131.18 1274.57 3131.58C1274.06 3131.98 1273.41 3132.17 1272.76 3132.1Z" fill="white"/>
<path d="M1258.46 3027.2C1258.13 3027.17 1257.81 3027.07 1257.52 3026.92C1257.23 3026.76 1256.97 3026.55 1256.76 3026.3C1256.55 3026.04 1256.39 3025.75 1256.29 3025.43C1256.2 3025.11 1256.16 3024.78 1256.2 3024.45C1256.81 3014.34 1259.52 3004.46 1264.15 2995.45C1268.79 2986.44 1275.26 2978.5 1283.14 2972.12C1283.68 2971.78 1284.34 2971.65 1284.98 2971.76C1285.62 2971.87 1286.19 2972.21 1286.59 2972.72C1287.04 2973.18 1287.29 2973.8 1287.29 2974.45C1287.29 2975.09 1287.04 2975.71 1286.59 2976.17C1279.41 2982.21 1273.52 2989.62 1269.26 2997.98C1265 3006.33 1262.46 3015.46 1261.8 3024.81C1261.78 3025.2 1261.67 3025.59 1261.48 3025.93C1261.29 3026.28 1261.02 3026.58 1260.7 3026.81C1260.38 3027.04 1260.02 3027.19 1259.63 3027.26C1259.24 3027.32 1258.84 3027.3 1258.46 3027.2Z" fill="white"/>
<path d="M1264.54 3048.05C1264.18 3048.07 1263.82 3048 1263.49 3047.86C1263.16 3047.71 1262.87 3047.49 1262.63 3047.22C1262.63 3047.22 1241.89 3024.93 1195.04 3031.36C1194.4 3031.47 1193.73 3031.31 1193.2 3030.94C1192.66 3030.56 1192.3 3029.98 1192.18 3029.34C1192.13 3029.01 1192.15 3028.67 1192.23 3028.35C1192.31 3028.03 1192.45 3027.72 1192.65 3027.46C1192.85 3027.19 1193.1 3026.97 1193.39 3026.8C1193.68 3026.63 1194 3026.52 1194.33 3026.48C1243.92 3019.68 1265.85 3042.93 1265.85 3043.88C1266.3 3044.37 1266.55 3045.01 1266.55 3045.67C1266.55 3046.33 1266.3 3046.97 1265.85 3047.46C1265.47 3047.76 1265.02 3047.97 1264.54 3048.05Z" fill="white"/>
<path d="M1986.81 3456.81L1937.1 3485.78C1952.05 3433.59 1955.87 3378.85 1948.3 3325.09C1944.98 3306.1 1938.11 3287.9 1928.04 3271.45C1924.22 3263.34 1894.18 3213.16 1920.53 3189.91C1946.87 3166.67 2008.86 3212.8 2006.12 3336.89C2004.79 3377.52 1998.3 3417.82 1986.81 3456.81Z" fill="#1C6ED0"/>
<path opacity="0.5" d="M1986.81 3456.81L1937.1 3485.78C1952.05 3433.59 1955.87 3378.85 1948.3 3325.09C1944.98 3306.1 1938.11 3287.9 1928.04 3271.45C1924.22 3263.34 1894.18 3213.16 1920.53 3189.91C1946.87 3166.67 2008.86 3212.8 2006.12 3336.89C2004.79 3377.52 1998.3 3417.82 1986.81 3456.81Z" fill="black"/>
<path d="M1964.16 3472.78H1963.21C1962.61 3472.52 1962.13 3472.04 1961.87 3471.45C1961.61 3470.86 1961.57 3470.18 1961.78 3469.56C1975.06 3425.91 1981.02 3380.35 1979.42 3334.74C1978.46 3252.61 1935.55 3208.98 1935.19 3208.5C1934.74 3208.02 1934.49 3207.38 1934.49 3206.72C1934.49 3206.05 1934.74 3205.41 1935.19 3204.93C1935.66 3204.48 1936.28 3204.23 1936.92 3204.23C1937.56 3204.23 1938.18 3204.48 1938.65 3204.93C1938.65 3204.93 1983.47 3250.34 1984.42 3334.74C1985.95 3380.92 1979.87 3427.03 1966.42 3471.23C1966.25 3471.69 1965.94 3472.09 1965.54 3472.37C1965.13 3472.64 1964.65 3472.79 1964.16 3472.78Z" fill="white"/>
<path d="M1948.3 3479.47L1866.17 3527.74C1866.17 3527.74 1828.5 3522.14 1831.36 3486.86C1834.22 3451.57 1849.48 3443.11 1830.53 3427.25C1811.57 3411.4 1806.69 3410.68 1807.52 3395.42C1809.04 3384.41 1814.77 3374.42 1823.5 3367.53C1828.81 3363.13 1832.55 3357.12 1834.14 3350.41C1835.73 3343.7 1835.09 3336.65 1832.32 3330.34C1822.78 3311.98 1810.03 3294.58 1828.98 3285.76C1840.9 3280.75 1859.5 3287.07 1872.13 3300.54C1881.25 3312.32 1893.41 3321.39 1907.3 3326.76C1919.22 3329.86 1944.37 3330.1 1943.06 3350.6C1941.75 3371.11 1936.86 3378.38 1941.87 3387.56C1952.24 3405.44 1992.17 3414.74 1948.3 3479.47Z" fill="#1C6ED0"/>
<path opacity="0.2" d="M1948.3 3479.47L1866.17 3527.74C1866.17 3527.74 1828.5 3522.14 1831.36 3486.86C1834.22 3451.57 1849.48 3443.11 1830.53 3427.25C1811.57 3411.4 1806.69 3410.68 1807.52 3395.42C1809.04 3384.41 1814.77 3374.42 1823.5 3367.53C1828.81 3363.13 1832.55 3357.12 1834.14 3350.41C1835.73 3343.7 1835.09 3336.65 1832.32 3330.34C1822.78 3311.98 1810.03 3294.58 1828.98 3285.76C1840.9 3280.75 1859.5 3287.07 1872.13 3300.54C1881.25 3312.32 1893.41 3321.39 1907.3 3326.76C1919.22 3329.86 1944.37 3330.1 1943.06 3350.6C1941.75 3371.11 1936.86 3378.38 1941.87 3387.56C1952.24 3405.44 1992.17 3414.74 1948.3 3479.47Z" fill="black"/>
<path d="M1914.81 3501.64C1914.48 3501.61 1914.16 3501.51 1913.87 3501.36C1913.57 3501.2 1913.31 3500.99 1913.1 3500.74C1912.89 3500.48 1912.73 3500.19 1912.64 3499.87C1912.54 3499.56 1912.51 3499.22 1912.54 3498.89C1912.54 3497.7 1921.36 3377.42 1837.92 3298.63C1837.68 3298.39 1837.49 3298.12 1837.36 3297.81C1837.23 3297.5 1837.17 3297.17 1837.17 3296.84C1837.17 3296.51 1837.23 3296.18 1837.36 3295.87C1837.49 3295.56 1837.68 3295.28 1837.92 3295.05C1838.39 3294.61 1839 3294.36 1839.65 3294.36C1840.29 3294.36 1840.91 3294.61 1841.38 3295.05C1926.61 3375.52 1917.67 3497.7 1917.55 3499.25C1917.49 3499.93 1917.17 3500.55 1916.66 3501C1916.15 3501.44 1915.48 3501.67 1914.81 3501.64Z" fill="white"/>
<path d="M1900.15 3396.61C1899.5 3396.55 1898.91 3396.25 1898.49 3395.76C1898.07 3395.27 1897.85 3394.64 1897.88 3393.99C1898.47 3383.87 1901.17 3373.99 1905.81 3364.97C1910.45 3355.96 1916.93 3348.02 1924.82 3341.66C1925.08 3341.46 1925.38 3341.31 1925.7 3341.23C1926.02 3341.15 1926.36 3341.14 1926.68 3341.2C1927.01 3341.25 1927.32 3341.38 1927.59 3341.56C1927.87 3341.74 1928.1 3341.98 1928.28 3342.26C1928.65 3342.79 1928.8 3343.46 1928.69 3344.11C1928.58 3344.75 1928.22 3345.33 1927.68 3345.71C1920.47 3351.72 1914.55 3359.12 1910.29 3367.48C1906.03 3375.84 1903.51 3384.98 1902.89 3394.35C1902.86 3394.68 1902.76 3395 1902.61 3395.29C1902.46 3395.58 1902.25 3395.84 1901.99 3396.05C1901.74 3396.26 1901.44 3396.42 1901.12 3396.52C1900.81 3396.61 1900.48 3396.65 1900.15 3396.61Z" fill="white"/>
<path d="M1906.23 3417.48C1905.52 3417.49 1904.84 3417.24 1904.32 3416.76C1904.32 3416.76 1883.58 3394.47 1836.73 3400.91C1836.4 3400.96 1836.06 3400.94 1835.74 3400.86C1835.42 3400.78 1835.11 3400.64 1834.85 3400.44C1834.58 3400.24 1834.36 3399.99 1834.19 3399.7C1834.02 3399.41 1833.91 3399.09 1833.87 3398.76C1833.82 3398.44 1833.83 3398.11 1833.92 3397.8C1834 3397.48 1834.15 3397.18 1834.35 3396.93C1834.55 3396.67 1834.8 3396.46 1835.09 3396.3C1835.37 3396.14 1835.69 3396.05 1836.01 3396.02C1885.6 3389.23 1907.54 3412.35 1907.54 3413.43C1907.98 3413.89 1908.23 3414.51 1908.23 3415.15C1908.23 3415.8 1907.98 3416.42 1907.54 3416.88C1907.18 3417.22 1906.72 3417.43 1906.23 3417.48Z" fill="white"/>
<path d="M4249.23 3064.62L4199.52 3093.47C4214.47 3041.29 4218.29 2986.54 4210.72 2932.78C4207.36 2913.8 4200.49 2895.6 4190.46 2879.14C4186.52 2871.03 4156.6 2820.85 4182.95 2797.72C4209.29 2774.6 4271.28 2820.61 4268.54 2944.7C4267.19 2985.33 4260.7 3025.63 4249.23 3064.62Z" fill="#1C6ED0"/>
<path opacity="0.5" d="M4249.23 3064.62L4199.52 3093.47C4214.47 3041.29 4218.29 2986.54 4210.72 2932.78C4207.36 2913.8 4200.49 2895.6 4190.46 2879.14C4186.52 2871.03 4156.6 2820.85 4182.95 2797.72C4209.29 2774.6 4271.28 2820.61 4268.54 2944.7C4267.19 2985.33 4260.7 3025.63 4249.23 3064.62Z" fill="black"/>
<path d="M4226.1 3080H4225.27C4224.65 3079.76 4224.16 3079.29 4223.89 3078.69C4223.62 3078.09 4223.6 3077.4 4223.84 3076.79C4237.04 3033.15 4243 2987.65 4241.48 2942.08C4240.53 2859.71 4197.61 2816.2 4197.25 2815.72C4197.02 2815.5 4196.83 2815.23 4196.7 2814.94C4196.58 2814.64 4196.51 2814.32 4196.51 2814C4196.51 2813.67 4196.58 2813.35 4196.7 2813.05C4196.83 2812.76 4197.02 2812.49 4197.25 2812.27C4197.74 2811.81 4198.38 2811.56 4199.04 2811.56C4199.71 2811.56 4200.34 2811.81 4200.83 2812.27C4200.83 2812.27 4245.65 2857.68 4246.61 2941.96C4248.18 2988.11 4242.26 3034.2 4229.08 3078.45C4228.87 3079.04 4228.44 3079.52 4227.89 3079.8C4227.34 3080.09 4226.7 3080.16 4226.1 3080Z" fill="white"/>
<path d="M4210.72 3086.68L4128.59 3134.36C4128.59 3134.36 4090.92 3128.88 4093.78 3093.47C4096.64 3058.07 4111.9 3049.72 4092.83 3033.87C4073.75 3018.01 4068.99 3017.3 4069.82 3002.04C4071.48 2991.08 4077.18 2981.13 4085.79 2974.15C4091.15 2969.81 4094.92 2963.82 4096.51 2957.11C4098.11 2950.41 4097.44 2943.36 4094.62 2937.07C4085.2 2918.6 4072.32 2901.31 4091.4 2892.49C4103.32 2887.48 4121.91 2893.68 4134.55 2907.15C4143.66 2918.93 4155.82 2928 4169.71 2933.38C4181.64 2936.6 4206.79 2936.83 4205.48 2957.22C4204.17 2977.6 4199.16 2985.11 4204.29 2994.29C4214.18 3012.65 4254.59 3021.95 4210.72 3086.68Z" fill="#1C6ED0"/>
<path opacity="0.2" d="M4210.72 3086.68L4128.59 3134.36C4128.59 3134.36 4090.92 3128.88 4093.78 3093.47C4096.64 3058.07 4111.9 3049.72 4092.83 3033.87C4073.75 3018.01 4068.99 3017.3 4069.82 3002.04C4071.48 2991.08 4077.18 2981.13 4085.79 2974.15C4091.15 2969.81 4094.92 2963.82 4096.51 2957.11C4098.11 2950.41 4097.44 2943.36 4094.62 2937.07C4085.2 2918.6 4072.32 2901.31 4091.4 2892.49C4103.32 2887.48 4121.91 2893.68 4134.55 2907.15C4143.66 2918.93 4155.82 2928 4169.71 2933.38C4181.64 2936.6 4206.79 2936.83 4205.48 2957.22C4204.17 2977.6 4199.16 2985.11 4204.29 2994.29C4214.18 3012.65 4254.59 3021.95 4210.72 3086.68Z" fill="black"/>
<path d="M4177.23 3108.85C4176.9 3108.82 4176.58 3108.73 4176.29 3108.57C4175.99 3108.42 4175.73 3108.21 4175.52 3107.95C4175.31 3107.7 4175.15 3107.4 4175.06 3107.09C4174.96 3106.77 4174.93 3106.44 4174.96 3106.11C4174.96 3104.92 4183.78 2984.64 4100.46 2905.84C4100.14 2905.65 4099.86 2905.39 4099.65 2905.08C4099.45 2904.77 4099.31 2904.41 4099.26 2904.04C4099.21 2903.67 4099.24 2903.3 4099.35 2902.94C4099.46 2902.58 4099.65 2902.26 4099.91 2901.98C4100.16 2901.71 4100.48 2901.5 4100.82 2901.36C4101.17 2901.22 4101.55 2901.17 4101.92 2901.19C4102.29 2901.22 4102.66 2901.33 4102.98 2901.52C4103.3 2901.7 4103.58 2901.96 4103.8 2902.27C4189.03 2982.73 4180.09 3104.92 4179.97 3106.59C4179.94 3106.92 4179.84 3107.24 4179.69 3107.53C4179.54 3107.82 4179.33 3108.08 4179.07 3108.29C4178.82 3108.5 4178.52 3108.66 4178.2 3108.75C4177.89 3108.85 4177.56 3108.88 4177.23 3108.85Z" fill="white"/>
<path d="M4162.56 3003.83C4162.24 3003.82 4161.92 3003.74 4161.63 3003.59C4161.34 3003.45 4161.08 3003.25 4160.86 3003.01C4160.65 3002.76 4160.49 3002.48 4160.4 3002.17C4160.3 3001.86 4160.26 3001.53 4160.3 3001.21C4160.89 2991.09 4163.59 2981.2 4168.23 2972.19C4172.87 2963.18 4179.34 2955.24 4187.24 2948.88C4187.72 2948.46 4188.33 2948.23 4188.97 2948.23C4189.6 2948.23 4190.22 2948.46 4190.69 2948.88C4191.07 2949.42 4191.22 2950.08 4191.1 2950.73C4190.99 2951.37 4190.63 2951.95 4190.1 2952.33C4182.88 2958.34 4176.94 2965.74 4172.66 2974.1C4168.38 2982.46 4165.84 2991.6 4165.18 3000.97C4165.26 3001.34 4165.25 3001.73 4165.15 3002.09C4165.05 3002.46 4164.87 3002.8 4164.61 3003.08C4164.35 3003.36 4164.03 3003.57 4163.68 3003.7C4163.32 3003.83 4162.94 3003.88 4162.56 3003.83Z" fill="white"/>
<path d="M4168.52 3024.81C4167.85 3024.76 4167.21 3024.47 4166.74 3023.98C4166.74 3023.98 4145.99 3001.69 4099.03 3008.12C4098.47 3008 4097.97 3007.69 4097.62 3007.24C4097.26 3006.8 4097.07 3006.25 4097.07 3005.68C4097.07 3005.11 4097.26 3004.56 4097.62 3004.11C4097.97 3003.67 4098.47 3003.36 4099.03 3003.23C4148.62 2996.44 4170.55 3019.69 4170.55 3020.64C4170.83 3021.02 4171 3021.46 4171.05 3021.93C4171.1 3022.39 4171.02 3022.86 4170.83 3023.29C4170.63 3023.71 4170.33 3024.08 4169.94 3024.35C4169.56 3024.61 4169.11 3024.77 4168.64 3024.81H4168.52Z" fill="white"/>
<path d="M3004.12 3771.4L2954.41 3800.25C2969.29 3748.05 2973.07 3693.31 2965.49 3639.56C2962.19 3620.58 2955.36 3602.38 2945.35 3585.92C2941.41 3577.81 2911.49 3527.62 2937.84 3504.38C2964.18 3481.13 3026.17 3527.39 3023.31 3651.36C3022.04 3692.03 3015.59 3732.37 3004.12 3771.4Z" fill="#1C6ED0"/>
<path opacity="0.5" d="M3004.12 3771.4L2954.41 3800.25C2969.29 3748.05 2973.07 3693.31 2965.49 3639.56C2962.19 3620.58 2955.36 3602.38 2945.35 3585.92C2941.41 3577.81 2911.49 3527.62 2937.84 3504.38C2964.18 3481.13 3026.17 3527.39 3023.31 3651.36C3022.04 3692.03 3015.59 3732.37 3004.12 3771.4Z" fill="black"/>
<path d="M2980.99 3787.26H2980.16C2979.84 3787.15 2979.55 3786.98 2979.3 3786.76C2979.05 3786.54 2978.85 3786.27 2978.71 3785.97C2978.56 3785.67 2978.48 3785.35 2978.46 3785.01C2978.45 3784.68 2978.5 3784.35 2978.61 3784.04C2991.89 3740.42 2997.89 3694.91 2996.37 3649.33C2995.42 3567.08 2952.5 3523.45 2952.02 3522.98C2951.58 3522.51 2951.33 3521.89 2951.33 3521.25C2951.33 3520.6 2951.58 3519.98 2952.02 3519.52C2952.25 3519.26 2952.52 3519.06 2952.83 3518.92C2953.14 3518.78 2953.47 3518.71 2953.81 3518.71C2954.15 3518.71 2954.49 3518.78 2954.79 3518.92C2955.1 3519.06 2955.38 3519.26 2955.6 3519.52C2955.6 3519.52 3000.3 3565.29 3001.26 3648.74C3002.71 3694.91 2996.63 3741.01 2983.26 3785.23C2983.15 3785.77 2982.88 3786.26 2982.47 3786.63C2982.06 3786.99 2981.54 3787.21 2980.99 3787.26Z" fill="white"/>
<path d="M2965.49 3793.93L2883.36 3842.21C2883.36 3842.21 2845.81 3836.72 2848.67 3801.32C2851.53 3765.91 2866.79 3757.57 2847.72 3741.71C2828.64 3725.86 2823.88 3725.15 2824.71 3709.89C2826.34 3698.91 2832.04 3688.95 2840.68 3681.99C2846.04 3677.65 2849.81 3671.66 2851.4 3664.96C2853 3658.25 2852.33 3651.21 2849.51 3644.92C2840.09 3626.44 2827.21 3609.16 2846.29 3600.34C2857.61 3595.21 2876.8 3601.53 2889.44 3615C2898.53 3626.81 2910.7 3635.88 2924.61 3641.22C2936.53 3644.32 2961.56 3644.68 2960.37 3665.06C2959.18 3685.45 2954.17 3692.96 2959.18 3702.14C2969.07 3720.26 3009.36 3729.2 2965.49 3793.93Z" fill="#1C6ED0"/>
<path opacity="0.2" d="M2965.49 3793.93L2883.36 3842.21C2883.36 3842.21 2845.81 3836.72 2848.67 3801.32C2851.53 3765.91 2866.79 3757.57 2847.72 3741.71C2828.64 3725.86 2823.88 3725.15 2824.71 3709.89C2826.34 3698.91 2832.04 3688.95 2840.68 3681.99C2846.04 3677.65 2849.81 3671.66 2851.4 3664.96C2853 3658.25 2852.33 3651.21 2849.51 3644.92C2840.09 3626.44 2827.21 3609.16 2846.29 3600.34C2857.61 3595.21 2876.8 3601.53 2889.44 3615C2898.53 3626.81 2910.7 3635.88 2924.61 3641.22C2936.53 3644.32 2961.56 3644.68 2960.37 3665.06C2959.18 3685.45 2954.17 3692.96 2959.18 3702.14C2969.07 3720.26 3009.36 3729.2 2965.49 3793.93Z" fill="black"/>
<path d="M2932.12 3815.62C2931.79 3815.59 2931.47 3815.5 2931.17 3815.34C2930.88 3815.19 2930.62 3814.98 2930.41 3814.72C2930.2 3814.47 2930.04 3814.17 2929.95 3813.86C2929.85 3813.54 2929.82 3813.21 2929.85 3812.88C2929.85 3811.69 2938.67 3691.41 2855.23 3612.61C2854.78 3612.13 2854.52 3611.49 2854.52 3610.82C2854.52 3610.16 2854.78 3609.52 2855.23 3609.04C2855.69 3608.59 2856.31 3608.34 2856.96 3608.34C2857.6 3608.34 2858.22 3608.59 2858.68 3609.04C2943.92 3689.5 2934.86 3811.69 2934.86 3813.36C2934.83 3813.69 2934.73 3814.01 2934.58 3814.3C2934.42 3814.59 2934.21 3814.85 2933.96 3815.06C2933.7 3815.27 2933.41 3815.43 2933.09 3815.52C2932.78 3815.62 2932.44 3815.65 2932.12 3815.62Z" fill="white"/>
<path d="M2917.81 3711.08C2917.49 3711.07 2917.17 3710.99 2916.88 3710.85C2916.59 3710.7 2916.33 3710.5 2916.11 3710.26C2915.9 3710.01 2915.74 3709.73 2915.65 3709.42C2915.55 3709.11 2915.51 3708.78 2915.55 3708.46C2916.16 3698.36 2918.85 3688.49 2923.47 3679.48C2928.09 3670.47 2934.52 3662.52 2942.37 3656.13C2942.63 3655.93 2942.93 3655.78 2943.25 3655.7C2943.57 3655.62 2943.9 3655.61 2944.23 3655.67C2944.55 3655.72 2944.86 3655.85 2945.14 3656.03C2945.41 3656.21 2945.65 3656.45 2945.83 3656.72C2946.27 3657.19 2946.52 3657.81 2946.52 3658.45C2946.52 3659.1 2946.27 3659.71 2945.83 3660.18C2938.59 3666.17 2932.64 3673.57 2928.36 3681.93C2924.08 3690.3 2921.54 3699.44 2920.91 3708.82C2920.89 3709.18 2920.78 3709.54 2920.61 3709.86C2920.43 3710.18 2920.19 3710.46 2919.89 3710.67C2919.6 3710.89 2919.26 3711.04 2918.9 3711.11C2918.54 3711.18 2918.17 3711.17 2917.81 3711.08Z" fill="white"/>
<path d="M2923.41 3732.18C2923.08 3732.17 2922.74 3732.09 2922.43 3731.94C2922.13 3731.8 2921.85 3731.6 2921.63 3731.34C2921.63 3731.34 2900.88 3709.05 2853.92 3715.49C2853.59 3715.56 2853.26 3715.56 2852.93 3715.48C2852.61 3715.41 2852.3 3715.26 2852.04 3715.06C2851.78 3714.85 2851.57 3714.59 2851.42 3714.3C2851.27 3714 2851.19 3713.68 2851.18 3713.34C2851.12 3713.03 2851.14 3712.71 2851.21 3712.4C2851.29 3712.09 2851.42 3711.8 2851.61 3711.55C2851.8 3711.29 2852.04 3711.08 2852.31 3710.91C2852.58 3710.75 2852.89 3710.65 2853.2 3710.6C2902.91 3703.81 2924.73 3727.05 2924.73 3728.01C2925.17 3728.47 2925.42 3729.09 2925.42 3729.73C2925.42 3730.38 2925.17 3731 2924.73 3731.46C2924.38 3731.84 2923.92 3732.09 2923.41 3732.18Z" fill="white"/>
<path d="M4695.18 2875.91C4690.12 2875.91 4685.27 2873.91 4681.7 2870.33C4678.12 2866.75 4676.11 2861.9 4676.11 2856.84V2072.46C4676.11 2067.41 4678.12 2062.55 4681.7 2058.98C4685.27 2055.4 4690.12 2053.39 4695.18 2053.39C4700.24 2053.39 4705.09 2055.4 4708.67 2058.98C4712.25 2062.55 4714.26 2067.41 4714.26 2072.46V2856.84C4714.26 2861.9 4712.25 2866.75 4708.67 2870.33C4705.09 2873.91 4700.24 2875.91 4695.18 2875.91Z" fill="#37474F"/>
<path d="M4695.18 2359.75C4692.93 2359.76 4690.72 2359.16 4688.77 2358.03C4686.82 2356.9 4685.21 2355.27 4684.09 2353.32L4575.5 2162.59C4573.85 2159.64 4573.43 2156.17 4574.32 2152.91C4575.21 2149.66 4577.35 2146.88 4580.26 2145.18C4581.71 2144.36 4583.31 2143.82 4584.96 2143.61C4586.61 2143.41 4588.29 2143.53 4589.9 2143.97C4591.51 2144.41 4593.01 2145.17 4594.32 2146.2C4595.63 2147.22 4596.73 2148.5 4597.55 2149.95L4706.15 2340.68C4706.99 2342.13 4707.54 2343.74 4707.76 2345.41C4707.98 2347.07 4707.86 2348.76 4707.42 2350.39C4706.97 2352.01 4706.21 2353.52 4705.17 2354.84C4704.14 2356.17 4702.85 2357.27 4701.38 2358.09C4699.5 2359.2 4697.36 2359.78 4695.18 2359.75Z" fill="#37474F"/>
<path d="M4693.03 2411.36C4690.85 2411.39 4688.71 2410.81 4686.83 2409.7C4685.38 2408.88 4684.11 2407.78 4683.08 2406.47C4682.05 2405.16 4681.3 2403.65 4680.85 2402.05C4680.41 2400.44 4680.29 2398.76 4680.5 2397.11C4680.71 2395.45 4681.24 2393.86 4682.07 2392.41L4827.14 2137.79C4828.82 2134.85 4831.59 2132.69 4834.86 2131.8C4838.12 2130.9 4841.6 2131.34 4844.54 2133.02C4847.48 2134.69 4849.64 2137.47 4850.53 2140.73C4851.43 2144 4850.99 2147.48 4849.31 2150.42L4704.12 2404.93C4703.08 2406.94 4701.48 2408.62 4699.52 2409.76C4697.55 2410.9 4695.3 2411.46 4693.03 2411.36Z" fill="#37474F"/>
<path d="M5020.76 2173.55C5163.46 2114.44 5231.22 1950.85 5172.11 1808.16C5113.01 1665.46 4949.42 1597.7 4806.72 1656.81C4664.03 1715.91 4596.27 1879.5 4655.37 2022.2C4714.48 2164.89 4878.07 2232.65 5020.76 2173.55Z" fill="#1C6ED0"/>
<path opacity="0.3" d="M5020.76 2173.55C5163.46 2114.44 5231.22 1950.85 5172.11 1808.16C5113.01 1665.46 4949.42 1597.7 4806.72 1656.81C4664.03 1715.91 4596.27 1879.5 4655.37 2022.2C4714.48 2164.89 4878.07 2232.65 5020.76 2173.55Z" fill="black"/>
<path d="M4853.25 1836.08C4853.15 1798.93 4860.48 1762.14 4874.81 1727.87C4889.14 1693.6 4910.18 1662.54 4936.69 1636.52C4929.06 1636.52 4921.32 1635.57 4913.45 1635.57C4867.56 1635.56 4822.37 1646.84 4781.86 1668.42C4741.36 1690 4706.8 1721.22 4681.21 1759.32C4655.62 1797.41 4639.81 1841.22 4635.16 1886.88C4630.5 1932.53 4637.16 1978.63 4654.53 2021.11C4671.91 2063.58 4699.47 2101.13 4734.79 2130.44C4770.1 2159.74 4812.09 2179.91 4857.04 2189.15C4901.99 2198.4 4948.52 2196.44 4992.54 2183.45C5036.55 2170.46 5076.7 2146.83 5109.42 2114.66C5039.58 2108.77 4974.49 2076.88 4927.05 2025.28C4879.61 1973.69 4853.27 1906.17 4853.25 1836.08Z" fill="#1C6ED0"/>
<path opacity="0.4" d="M4853.25 1836.08C4853.15 1798.93 4860.48 1762.14 4874.81 1727.87C4889.14 1693.6 4910.18 1662.54 4936.69 1636.52C4929.06 1636.52 4921.32 1635.57 4913.45 1635.57C4867.56 1635.56 4822.37 1646.84 4781.86 1668.42C4741.36 1690 4706.8 1721.22 4681.21 1759.32C4655.62 1797.41 4639.81 1841.22 4635.16 1886.88C4630.5 1932.53 4637.16 1978.63 4654.53 2021.11C4671.91 2063.58 4699.47 2101.13 4734.79 2130.44C4770.1 2159.74 4812.09 2179.91 4857.04 2189.15C4901.99 2198.4 4948.52 2196.44 4992.54 2183.45C5036.55 2170.46 5076.7 2146.83 5109.42 2114.66C5039.58 2108.77 4974.49 2076.88 4927.05 2025.28C4879.61 1973.69 4853.27 1906.17 4853.25 1836.08Z" fill="black"/>
<path d="M4457.01 2194.89C4567.68 2194.89 4657.39 2105.17 4657.39 1994.5C4657.39 1883.83 4567.68 1794.12 4457.01 1794.12C4346.34 1794.12 4256.62 1883.83 4256.62 1994.5C4256.62 2105.17 4346.34 2194.89 4457.01 2194.89Z" fill="#1C6ED0"/>
<path opacity="0.3" d="M4457.01 2194.89C4567.68 2194.89 4657.39 2105.17 4657.39 1994.5C4657.39 1883.83 4567.68 1794.12 4457.01 1794.12C4346.34 1794.12 4256.62 1883.83 4256.62 1994.5C4256.62 2105.17 4346.34 2194.89 4457.01 2194.89Z" fill="black"/>
<path d="M4478.7 1795.19C4452.03 1792.27 4425.05 1794.75 4399.37 1802.49C4373.68 1810.23 4349.82 1823.07 4329.22 1840.25C4328.5 1848.83 4328.14 1857.41 4328.14 1866.23C4328.07 1953.07 4359.59 2036.96 4416.83 2102.26C4420.77 2106.75 4423.35 2112.27 4424.27 2118.18C4425.19 2124.08 4424.41 2130.12 4422.02 2135.6C4419.63 2141.07 4415.74 2145.76 4410.79 2149.1C4405.84 2152.44 4400.04 2154.31 4394.06 2154.48H4393.35C4368.3 2154.42 4343.47 2149.69 4320.16 2140.53C4343.36 2162.18 4371.37 2178.01 4401.89 2186.72C4432.41 2195.43 4464.56 2196.76 4495.69 2190.61C4526.83 2184.46 4556.06 2171.01 4580.97 2151.35C4605.89 2131.7 4625.78 2106.41 4639.01 2077.56C4652.24 2048.71 4658.43 2017.13 4657.07 1985.43C4655.71 1953.72 4646.84 1922.79 4631.18 1895.18C4615.53 1867.58 4593.54 1844.08 4567.03 1826.64C4540.52 1809.19 4510.25 1798.29 4478.7 1794.83V1795.19Z" fill="#1C6ED0"/>
<path opacity="0.4" d="M4478.7 1795.19C4452.03 1792.27 4425.05 1794.75 4399.37 1802.49C4373.68 1810.23 4349.82 1823.07 4329.22 1840.25C4328.5 1848.83 4328.14 1857.41 4328.14 1866.23C4328.07 1953.07 4359.59 2036.96 4416.83 2102.26C4420.77 2106.75 4423.35 2112.27 4424.27 2118.18C4425.19 2124.08 4424.41 2130.12 4422.02 2135.6C4419.63 2141.07 4415.74 2145.76 4410.79 2149.1C4405.84 2152.44 4400.04 2154.31 4394.06 2154.48H4393.35C4368.3 2154.42 4343.47 2149.69 4320.16 2140.53C4343.36 2162.18 4371.37 2178.01 4401.89 2186.72C4432.41 2195.43 4464.56 2196.76 4495.69 2190.61C4526.83 2184.46 4556.06 2171.01 4580.97 2151.35C4605.89 2131.7 4625.78 2106.41 4639.01 2077.56C4652.24 2048.71 4658.43 2017.13 4657.07 1985.43C4655.71 1953.72 4646.84 1922.79 4631.18 1895.18C4615.53 1867.58 4593.54 1844.08 4567.03 1826.64C4540.52 1809.19 4510.25 1798.29 4478.7 1794.83V1795.19Z" fill="black"/>
<path d="M5044.17 1881.42C5089.69 1688.55 4970.24 1495.3 4777.38 1449.78C4584.51 1404.26 4391.26 1523.71 4345.74 1716.57C4300.22 1909.44 4419.67 2102.69 4612.53 2148.21C4805.4 2193.73 4998.65 2074.28 5044.17 1881.42Z" fill="#1C6ED0"/>
<path opacity="0.2" d="M4797.46 2034.91C4736.16 2034.9 4675.89 2019.18 4622.39 1989.25C4568.89 1959.33 4523.95 1916.2 4491.85 1863.97C4459.76 1811.75 4441.58 1752.17 4439.04 1690.92C4436.51 1629.67 4449.71 1568.8 4477.39 1514.1C4434.76 1546.93 4400.07 1588.93 4375.87 1636.98C4351.68 1685.04 4338.6 1737.92 4337.61 1791.72C4336.63 1845.51 4347.76 1898.84 4370.18 1947.75C4392.6 1996.66 4425.73 2039.9 4467.13 2074.27C4508.53 2108.64 4557.12 2133.25 4609.32 2146.29C4661.52 2159.33 4715.99 2160.46 4768.68 2149.59C4821.38 2138.72 4870.95 2116.14 4913.74 2083.52C4956.52 2050.9 4991.42 2009.07 5015.85 1961.13C4953.19 2009.15 4876.4 2035.1 4797.46 2034.91Z" fill="black"/>
<path d="M1021.24 3019.68C1016.18 3019.68 1011.33 3017.67 1007.75 3014.09C1004.18 3010.52 1002.17 3005.67 1002.17 3000.61V2216.23C1002.17 2211.17 1004.18 2206.32 1007.75 2202.74C1011.33 2199.17 1016.18 2197.16 1021.24 2197.16C1026.3 2197.16 1031.15 2199.17 1034.73 2202.74C1038.3 2206.32 1040.31 2211.17 1040.31 2216.23V3000.61C1040.31 3005.67 1038.3 3010.52 1034.73 3014.09C1031.15 3017.67 1026.3 3019.68 1021.24 3019.68Z" fill="#37474F"/>
<path d="M1021.24 2503.51C1018.99 2503.58 1016.77 2503.02 1014.83 2501.88C1012.89 2500.74 1011.31 2499.07 1010.27 2497.07L901.557 2306.34C899.881 2303.4 899.442 2299.92 900.336 2296.65C901.231 2293.39 903.385 2290.62 906.325 2288.94C909.265 2287.26 912.751 2286.82 916.015 2287.72C919.279 2288.61 922.054 2290.77 923.729 2293.71L1032.33 2484.44C1033.15 2485.88 1033.69 2487.48 1033.9 2489.13C1034.1 2490.79 1033.98 2492.47 1033.54 2494.07C1033.1 2495.68 1032.34 2497.18 1031.31 2498.5C1030.29 2499.81 1029.01 2500.91 1027.56 2501.72C1025.66 2502.9 1023.47 2503.52 1021.24 2503.51Z" fill="#37474F"/>
<path d="M1019.22 2555.25C1016.99 2555.23 1014.81 2554.63 1012.89 2553.51C1010.97 2552.38 1009.38 2550.78 1008.27 2548.85C1007.16 2546.93 1006.58 2544.74 1006.57 2542.52C1006.57 2540.29 1007.15 2538.11 1008.25 2536.18L1153.56 2281.55C1155.24 2278.61 1158.01 2276.46 1161.28 2275.56C1164.54 2274.67 1168.03 2275.11 1170.97 2276.78C1173.91 2278.46 1176.06 2281.23 1176.95 2284.5C1177.85 2287.76 1177.41 2291.25 1175.73 2294.19L1030.3 2548.81C1029.17 2550.75 1027.55 2552.36 1025.61 2553.49C1023.67 2554.62 1021.46 2555.23 1019.22 2555.25Z" fill="#37474F"/>
<path d="M1347.04 2317.31C1489.74 2258.21 1557.5 2094.62 1498.39 1951.92C1439.29 1809.23 1275.7 1741.47 1133 1800.57C990.309 1859.68 922.548 2023.27 981.653 2165.96C1040.76 2308.66 1204.35 2376.42 1347.04 2317.31Z" fill="#1C6ED0"/>
<path opacity="0.3" d="M1347.04 2317.31C1489.74 2258.21 1557.5 2094.62 1498.39 1951.92C1439.29 1809.23 1275.7 1741.47 1133 1800.57C990.309 1859.68 922.548 2023.27 981.653 2165.96C1040.76 2308.66 1204.35 2376.42 1347.04 2317.31Z" fill="black"/>
<path d="M1179.43 1979.84C1179.34 1942.7 1186.68 1905.91 1201.01 1871.64C1215.34 1837.38 1236.37 1806.32 1262.87 1780.29C1255.12 1780.29 1247.49 1779.34 1239.03 1779.34C1193.13 1779.3 1147.93 1790.57 1107.42 1812.14C1066.91 1833.71 1032.32 1864.91 1006.72 1903.01C981.124 1941.1 965.293 1984.91 960.628 2030.57C955.963 2076.23 962.608 2122.33 979.975 2164.82C997.343 2207.3 1024.9 2244.86 1060.22 2274.17C1095.53 2303.49 1137.52 2323.66 1182.47 2332.91C1227.43 2342.16 1273.97 2340.21 1317.99 2327.22C1362.01 2314.23 1402.16 2290.6 1434.89 2258.43C1365.17 2252.37 1300.26 2220.4 1252.97 2168.83C1205.67 2117.25 1179.43 2049.82 1179.43 1979.84Z" fill="#1C6ED0"/>
<path opacity="0.4" d="M1179.43 1979.84C1179.34 1942.7 1186.68 1905.91 1201.01 1871.64C1215.34 1837.38 1236.37 1806.32 1262.87 1780.29C1255.12 1780.29 1247.49 1779.34 1239.03 1779.34C1193.13 1779.3 1147.93 1790.57 1107.42 1812.14C1066.91 1833.71 1032.32 1864.91 1006.72 1903.01C981.124 1941.1 965.293 1984.91 960.628 2030.57C955.963 2076.23 962.608 2122.33 979.975 2164.82C997.343 2207.3 1024.9 2244.86 1060.22 2274.17C1095.53 2303.49 1137.52 2323.66 1182.47 2332.91C1227.43 2342.16 1273.97 2340.21 1317.99 2327.22C1362.01 2314.23 1402.16 2290.6 1434.89 2258.43C1365.17 2252.37 1300.26 2220.4 1252.97 2168.83C1205.67 2117.25 1179.43 2049.82 1179.43 1979.84Z" fill="black"/>
<path d="M783.187 2338.65C893.857 2338.65 983.572 2248.94 983.572 2138.27C983.572 2027.6 893.857 1937.88 783.187 1937.88C672.517 1937.88 582.801 2027.6 582.801 2138.27C582.801 2248.94 672.517 2338.65 783.187 2338.65Z" fill="#1C6ED0"/>
<path opacity="0.3" d="M783.187 2338.65C893.857 2338.65 983.572 2248.94 983.572 2138.27C983.572 2027.6 893.857 1937.88 783.187 1937.88C672.517 1937.88 582.801 2027.6 582.801 2138.27C582.801 2248.94 672.517 2338.65 783.187 2338.65Z" fill="black"/>
<path d="M804.882 1938.95C778.198 1936.05 751.205 1938.55 725.504 1946.29C699.804 1954.03 675.923 1966.86 655.278 1984.01C655.278 1992.59 654.324 2001.18 654.324 2010C654.223 2096.87 685.749 2180.82 743.014 2246.15C746.973 2250.63 749.566 2256.16 750.487 2262.07C751.409 2267.98 750.62 2274.03 748.213 2279.51C745.807 2284.98 741.884 2289.66 736.907 2292.98C731.93 2296.3 726.107 2298.12 720.126 2298.24C695.068 2298.24 670.235 2293.51 646.934 2284.29C670.139 2305.87 698.133 2321.63 728.616 2330.28C759.098 2338.94 791.199 2340.23 822.28 2334.07C853.361 2327.9 882.535 2314.45 907.405 2294.81C932.274 2275.17 952.129 2249.92 965.339 2221.11C978.548 2192.31 984.734 2160.79 983.389 2129.13C982.044 2097.47 973.206 2066.58 957.601 2039C941.997 2011.43 920.071 1987.94 893.625 1970.49C867.18 1953.03 836.97 1942.1 805.478 1938.59L804.882 1938.95Z" fill="#1C6ED0"/>
<path opacity="0.4" d="M804.882 1938.95C778.198 1936.05 751.205 1938.55 725.504 1946.29C699.804 1954.03 675.923 1966.86 655.278 1984.01C655.278 1992.59 654.324 2001.18 654.324 2010C654.223 2096.87 685.749 2180.82 743.014 2246.15C746.973 2250.63 749.566 2256.16 750.487 2262.07C751.409 2267.98 750.62 2274.03 748.213 2279.51C745.807 2284.98 741.884 2289.66 736.907 2292.98C731.93 2296.3 726.107 2298.12 720.126 2298.24C695.068 2298.24 670.235 2293.51 646.934 2284.29C670.139 2305.87 698.133 2321.63 728.616 2330.28C759.098 2338.94 791.199 2340.23 822.28 2334.07C853.361 2327.9 882.535 2314.45 907.405 2294.81C932.274 2275.17 952.129 2249.92 965.339 2221.11C978.548 2192.31 984.734 2160.79 983.389 2129.13C982.044 2097.47 973.206 2066.58 957.601 2039C941.997 2011.43 920.071 1987.94 893.625 1970.49C867.18 1953.03 836.97 1942.1 805.478 1938.59L804.882 1938.95Z" fill="black"/>
<path d="M1370.48 2025.29C1416 1832.42 1296.56 1639.17 1103.69 1593.65C910.823 1548.13 717.572 1667.57 672.051 1860.44C626.531 2053.31 745.978 2246.56 938.845 2292.08C1131.71 2337.6 1324.96 2218.15 1370.48 2025.29Z" fill="#1C6ED0"/>
<path opacity="0.2" d="M1123.64 2178.68C1062.33 2178.72 1002.04 2163.04 948.515 2133.14C894.993 2103.24 850.032 2060.11 817.926 2007.88C785.821 1955.65 767.643 1896.06 765.13 1834.8C762.617 1773.55 775.852 1712.67 803.571 1657.98C760.761 1690.72 725.878 1732.68 701.512 1780.75C677.147 1828.82 663.926 1881.76 662.832 1935.64C661.737 1989.52 672.798 2042.95 695.192 2091.97C717.585 2140.99 750.736 2184.33 792.182 2218.78C833.627 2253.22 882.302 2277.89 934.589 2290.94C986.876 2303.99 1041.43 2305.09 1094.2 2294.16C1146.97 2283.23 1196.6 2260.55 1239.4 2227.8C1282.21 2195.05 1317.08 2153.08 1341.43 2105.01C1278.92 2152.87 1202.37 2178.76 1123.64 2178.68Z" fill="black"/>
<path d="M4360.21 3315.55V3162.37H4272.83V3315.55C4273.2 3319.39 4274.57 3323.06 4276.81 3326.2C4279.05 3329.34 4282.08 3331.83 4285.59 3333.43C4295.19 3338.25 4305.78 3340.76 4316.52 3340.76C4327.26 3340.76 4337.86 3338.25 4347.45 3333.43C4350.98 3331.85 4354.02 3329.36 4356.26 3326.22C4358.5 3323.08 4359.87 3319.39 4360.21 3315.55Z" fill="#455A64"/>
<path d="M4347.1 3144.49C4364.14 3154.39 4364.14 3170.36 4347.1 3180.25C4337.52 3185.13 4326.92 3187.67 4316.16 3187.67C4305.41 3187.67 4294.81 3185.13 4285.23 3180.25C4268.18 3170.48 4268.18 3154.5 4285.23 3144.49C4294.81 3139.61 4305.41 3137.07 4316.16 3137.07C4326.92 3137.07 4337.52 3139.61 4347.1 3144.49Z" fill="#37474F"/>
<path d="M4491.34 2472.64C4487.96 2472.64 4484.71 2471.3 4482.32 2468.91C4479.93 2466.51 4478.58 2463.27 4478.58 2459.89V2316.84C4478.41 2315.07 4478.61 2313.28 4479.17 2311.59C4479.73 2309.9 4480.64 2308.35 4481.83 2307.03C4483.03 2305.72 4484.49 2304.66 4486.11 2303.94C4487.74 2303.22 4489.5 2302.85 4491.28 2302.85C4493.06 2302.85 4494.82 2303.22 4496.44 2303.94C4498.07 2304.66 4499.53 2305.72 4500.72 2307.03C4501.92 2308.35 4502.83 2309.9 4503.39 2311.59C4503.95 2313.28 4504.15 2315.07 4503.97 2316.84V2459.89C4503.99 2461.56 4503.67 2463.21 4503.05 2464.76C4502.42 2466.3 4501.49 2467.71 4500.32 2468.9C4499.14 2470.08 4497.74 2471.03 4496.2 2471.67C4494.66 2472.31 4493.01 2472.64 4491.34 2472.64Z" fill="#37474F"/>
<path d="M4694.94 2601.27C4693.27 2601.27 4691.62 2600.94 4690.08 2600.29C4688.54 2599.65 4687.14 2598.71 4685.96 2597.52C4684.79 2596.34 4683.86 2594.93 4683.23 2593.38C4682.61 2591.84 4682.29 2590.18 4682.31 2588.51V2445.46C4682.13 2443.69 4682.33 2441.91 4682.89 2440.22C4683.45 2438.53 4684.36 2436.98 4685.56 2435.66C4686.75 2434.34 4688.21 2433.29 4689.84 2432.57C4691.46 2431.85 4693.22 2431.48 4695 2431.48C4696.78 2431.48 4698.54 2431.85 4700.17 2432.57C4701.79 2433.29 4703.25 2434.34 4704.45 2435.66C4705.64 2436.98 4706.55 2438.53 4707.11 2440.22C4707.67 2441.91 4707.87 2443.69 4707.7 2445.46V2588.51C4707.7 2591.89 4706.35 2595.14 4703.96 2597.53C4701.57 2599.92 4698.32 2601.27 4694.94 2601.27Z" fill="#37474F"/>
<path d="M4317.18 3167.5C4313.79 3167.5 4310.55 3166.15 4308.16 3163.76C4305.77 3161.37 4304.42 3158.12 4304.42 3154.74V2216.95C4304.46 2214.72 4305.08 2212.54 4306.22 2210.63C4307.36 2208.71 4308.97 2207.12 4310.91 2206.02C4312.84 2204.91 4315.03 2204.33 4317.26 2204.32C4319.48 2204.31 4321.67 2204.89 4323.61 2205.98L4852.29 2511.27C4855.04 2513.05 4856.99 2515.81 4857.75 2518.99C4858.51 2522.17 4858.02 2525.52 4856.39 2528.35C4854.75 2531.18 4852.09 2533.27 4848.96 2534.2C4845.82 2535.12 4842.45 2534.81 4839.54 2533.32L4329.93 2239V3154.74C4329.93 3156.42 4329.6 3158.08 4328.96 3159.62C4328.32 3161.17 4327.38 3162.58 4326.2 3163.76C4325.01 3164.95 4323.61 3165.88 4322.06 3166.53C4320.51 3167.17 4318.85 3167.5 4317.18 3167.5Z" fill="#37474F"/>
<path d="M4381.31 2368.34V2731.56C4381.3 2740.2 4383.57 2748.69 4387.91 2756.17C4392.24 2763.65 4398.48 2769.84 4405.99 2774.12L4814.87 3010.27C4818.01 3012.08 4821.58 3013.04 4825.22 3013.04C4828.85 3013.05 4832.42 3012.1 4835.57 3010.29C4838.72 3008.48 4841.34 3005.87 4843.17 3002.73C4845 2999.59 4845.96 2996.02 4845.98 2992.38V2629.16C4845.96 2620.53 4843.67 2612.05 4839.34 2604.58C4835.01 2597.11 4828.79 2590.91 4821.3 2586.61L4412.43 2350.46C4409.28 2348.64 4405.71 2347.68 4402.08 2347.68C4398.44 2347.68 4394.87 2348.63 4391.72 2350.44C4388.57 2352.25 4385.95 2354.86 4384.12 2358C4382.3 2361.14 4381.33 2364.71 4381.31 2368.34Z" fill="#455A64"/>
<path d="M4475.29 2480.93C4476.99 2481.9 4478.25 2481.26 4478.25 2479.4C4478.25 2477.54 4476.99 2475.45 4475.29 2474.47C4473.58 2473.49 4472.33 2474.15 4472.33 2476C4472.33 2477.85 4473.58 2479.94 4475.29 2480.93ZM4475.29 2479.7C4474.32 2479.14 4473.6 2477.91 4473.6 2476.73C4473.6 2475.54 4474.32 2475.15 4475.29 2475.7C4476.25 2476.26 4476.98 2477.49 4476.98 2478.67C4476.98 2479.86 4476.25 2480.25 4475.29 2479.7ZM4481.53 2478.17L4479.19 2476.82V2483.06L4480.44 2483.78V2482.06L4481.53 2482.69C4482.97 2483.52 4483.88 2483.17 4483.88 2481.78C4483.88 2480.38 4482.97 2479 4481.53 2478.17ZM4481.46 2481.47L4480.44 2480.88V2478.72L4481.46 2479.3C4482.22 2479.74 4482.61 2480.37 4482.61 2481.05C4482.61 2481.73 4482.22 2481.91 4481.46 2481.47ZM4486.02 2485.83V2484.38L4488.53 2485.83V2484.7L4486.02 2483.26V2481.9L4488.86 2483.54V2482.38L4484.77 2480.03V2486.27L4488.96 2488.68V2487.52L4486.02 2485.83ZM4493.68 2485.15V2488.94L4490.99 2483.61L4489.95 2483.01V2489.25L4491.19 2489.96V2486.17L4493.89 2491.51L4494.91 2492.1V2485.86L4493.68 2485.15Z" fill="#FAFAFA"/>
<path d="M4440.7 2582.02V2584.48L4438.24 2583.07V2580.61L4436.99 2579.89V2586.13L4438.24 2586.85V2584.29L4440.7 2585.7V2588.26L4441.95 2588.98V2582.74L4440.7 2582.02ZM4445.85 2591.32C4447.55 2592.3 4448.81 2591.66 4448.81 2589.8C4448.81 2587.94 4447.55 2585.85 4445.85 2584.87C4444.14 2583.89 4442.89 2584.54 4442.89 2586.4C4442.89 2588.25 4444.14 2590.34 4445.85 2591.32ZM4445.85 2590.09C4444.89 2589.54 4444.16 2588.31 4444.16 2587.13C4444.16 2585.94 4444.89 2585.55 4445.85 2586.1C4446.82 2586.66 4447.54 2587.89 4447.54 2589.07C4447.54 2590.26 4446.82 2590.65 4445.85 2590.09ZM4452.15 2594.95C4453.69 2595.83 4454.6 2595.34 4454.6 2593.5V2590.01L4453.37 2589.3V2592.74C4453.37 2593.92 4452.93 2594.16 4452.16 2593.72C4451.41 2593.29 4450.96 2592.54 4450.96 2591.35V2587.91L4449.71 2587.19V2590.69C4449.71 2592.52 4450.62 2594.06 4452.15 2594.95ZM4457.62 2598.09C4459.16 2598.97 4459.91 2598.51 4459.91 2597.47C4459.91 2595.18 4456.77 2594.17 4456.77 2593.02C4456.77 2592.63 4457.05 2592.47 4457.8 2592.9C4458.27 2593.17 4458.79 2593.63 4459.29 2594.25L4459.68 2593.37C4459.18 2592.72 4458.48 2592.13 4457.8 2591.74C4456.27 2590.86 4455.52 2591.31 4455.52 2592.37C4455.52 2594.69 4458.67 2595.7 4458.67 2596.86C4458.67 2597.25 4458.37 2597.36 4457.63 2596.93C4456.98 2596.56 4456.3 2595.9 4455.84 2595.26L4455.42 2596.1C4455.89 2596.8 4456.76 2597.59 4457.62 2598.09ZM4462.01 2599.35V2597.9L4464.52 2599.35V2598.22L4462.01 2596.78V2595.43L4464.85 2597.06V2595.9L4460.77 2593.55V2599.79L4464.96 2602.2V2601.04L4462.01 2599.35Z" fill="#FAFAFA"/>
<path d="M3382.72 4260.26C3382.72 4260.26 3376.28 4270.75 3379.14 4318.55C3382 4366.36 3382 4369.93 3382.72 4401.04C3383.43 4432.16 3382 4466.85 3421.94 4456.36C3461.87 4445.87 3468.67 4418.09 3464.02 4393.65C3457.49 4361.23 3453.03 4328.42 3450.67 4295.43C3449.71 4266.1 3439.94 4256.33 3439.94 4256.33L3382.72 4260.26Z" fill="#37474F"/>
<path d="M3419.67 3753.88L3416.69 3813.48C3415.64 3834.12 3417.04 3854.8 3420.87 3875.11C3430.4 3926.25 3448.28 4033.06 3444.71 4100.89C3439.7 4192.8 3440.54 4255.86 3440.54 4255.86C3440.54 4255.86 3448.4 4351.22 3448.76 4371.25C3448.89 4374.67 3448.32 4378.09 3447.1 4381.29C3445.87 4384.48 3444.01 4387.4 3441.63 4389.86C3439.25 4392.33 3436.39 4394.28 3433.23 4395.61C3430.07 4396.94 3426.68 4397.61 3423.25 4397.59C3414.19 4397.59 3389.16 4406.65 3383.32 4274.81C3374.83 4199.55 3361.25 4124.96 3342.67 4051.54C3323.48 3978.34 3309.89 3913.61 3302.85 3877.85C3299.22 3859.4 3296.83 3840.72 3295.7 3821.94L3290.57 3738.5L3419.67 3753.88Z" fill="#945959"/>
<path d="M3225.49 4254.78V4255.62C3225.38 4266.69 3223.07 4277.63 3218.69 4287.8C3215.55 4295.89 3213.97 4304.51 3214.04 4313.19V4348.95C3214.04 4350.42 3213.47 4351.83 3212.44 4352.87C3211.42 4353.92 3210.02 4354.53 3208.56 4354.56C3207.82 4354.56 3207.1 4354.41 3206.42 4354.13C3205.74 4353.85 3205.12 4353.44 3204.6 4352.92C3204.08 4352.4 3203.66 4351.78 3203.38 4351.1C3203.1 4350.42 3202.96 4349.69 3202.96 4348.95V4294.12L3225.49 4254.78Z" fill="#263238"/>
<path d="M3207.25 4218.42C3207.25 4218.42 3188.17 4232.49 3188.17 4269.68C3187.47 4285.03 3183.36 4300.03 3176.15 4313.6C3168.93 4327.17 3158.79 4338.96 3146.45 4348.12C3132.39 4356.58 3101.27 4336.2 3101.27 4336.2C3101.27 4336.2 3068.13 4364.33 3068.13 4376.97C3068.13 4389.6 3084.34 4399.97 3121.78 4394.85C3159.21 4389.72 3190.32 4384.24 3196.16 4343.71C3202.96 4296.02 3203.19 4290.3 3217.5 4274.69C3231.8 4259.07 3226.32 4227 3207.25 4218.42Z" fill="#263238"/>
<path d="M3272.69 3614.88L3126.43 3767.94L3137.51 4120.68L3140.97 4216.87C3138.11 4272.9 3099.37 4329.41 3099.37 4329.41C3098.59 4336.94 3098.59 4344.52 3099.37 4352.05H3134.53C3202 4352.05 3207.01 4211.39 3207.01 4211.39L3209.27 4176.82C3211.47 4143.92 3215.77 4111.19 3222.15 4078.83C3255.65 3912.54 3242.41 3825.88 3242.41 3825.88L3272.69 3614.88Z" fill="#945959"/>
<path d="M3207.01 4211.87C3207.01 4211.87 3191.51 4222.95 3187.58 4263.13C3186.9 4278.55 3182.74 4293.61 3175.41 4307.2C3168.08 4320.78 3157.78 4332.53 3145.26 4341.56C3130.96 4349.91 3099.37 4329.64 3099.37 4329.64C3099.37 4329.64 3065.75 4357.78 3065.75 4370.41C3065.75 4383.05 3082.2 4393.42 3120.23 4388.17C3158.25 4382.93 3183.05 4376.25 3190.08 4335.96C3197.12 4295.67 3197.23 4286.25 3211.78 4270.64C3226.32 4255.02 3235.62 4240.72 3207.01 4211.87Z" fill="#37474F"/>
<path d="M3377.59 3449.06C3377.59 3449.06 3429.09 3520.59 3427.42 3689.98C3426.23 3820.27 3422.06 3847.69 3422.06 3847.69C3377.23 3888.96 3318.36 3911.6 3257.43 3910.99C3196.87 3910.99 3122.37 3851.38 3122.37 3851.38C3122.37 3851.38 3123.44 3699.99 3127.02 3638.84C3130.99 3578.46 3140.65 3518.59 3155.87 3460.03L3377.59 3449.06Z" fill="#263238"/>
<path d="M2916.74 3173.46C2915.24 3168.2 2914.24 3162.82 2913.76 3157.37C2913.88 3145.55 2909.34 3134.16 2901.13 3125.66C2892.54 3113.74 2897.43 3103.96 2889.2 3101.82C2880.98 3099.67 2875.38 3127.21 2884.32 3139.96C2875.24 3133.88 2867.76 3125.7 2862.5 3116.12C2856.78 3103.13 2846.89 3083.82 2838.66 3080.36C2830.44 3076.9 2801.71 3110.88 2813.51 3142.35C2825.31 3173.82 2876.69 3205.65 2876.69 3205.65L2916.74 3173.46Z" fill="#945959"/>
<path d="M3200.93 3139.97H3199.98C3178.65 3139.76 3157.8 3146.27 3140.37 3158.56L3003.4 3253.93L2914.71 3166.31C2903.13 3182.16 2887.42 3194.53 2869.3 3202.07L2968.12 3329.62C2972.77 3335.63 2979.35 3339.86 2986.75 3341.6C2994.15 3343.33 3001.93 3342.47 3008.77 3339.16L3133.82 3278.72L3200.93 3139.97Z" fill="#37474F"/>
<path d="M3238.96 3139.84H3200.93C3200.93 3139.84 3063.61 3269.9 3158.49 3353.22C3162.66 3388.57 3161.78 3424.34 3155.87 3459.44C3155.87 3459.44 3225.13 3505.93 3378.91 3459.44L3365.44 3351.43L3395.24 3256.07L3389.04 3158.2C3388.82 3155.11 3387.49 3152.21 3385.3 3150.02C3383.11 3147.83 3380.21 3146.5 3377.12 3146.28L3320.14 3143.78L3238.96 3139.84Z" fill="#455A64"/>
<path d="M3241.46 3128.99L3220.6 3140.91L3181.62 3201.83C3180.61 3203.45 3179.95 3205.26 3179.69 3207.15C3179.42 3209.04 3179.55 3210.96 3180.07 3212.79L3191.15 3251.3L3186.74 3256.54C3184.63 3259.07 3183.15 3262.06 3182.42 3265.28C3181.7 3268.49 3181.75 3271.83 3182.57 3275.02L3191.99 3310.19L3237.05 3279.79C3240.19 3277.67 3242.68 3274.72 3244.24 3271.27C3245.8 3267.81 3246.36 3263.99 3245.87 3260.24V3256.9L3303.45 3236.16C3305.45 3235.44 3307.25 3234.26 3308.7 3232.7C3310.15 3231.14 3311.21 3229.27 3311.79 3227.22L3335.63 3144.97L3319.54 3133.05L3241.46 3128.99Z" fill="#263238"/>
<path d="M3319.18 2940.77C3319.18 2958.15 3314.03 2975.13 3304.38 2989.58C3294.72 3004.03 3281 3015.29 3264.95 3021.94C3248.9 3028.59 3231.23 3030.33 3214.19 3026.94C3197.15 3023.55 3181.49 3015.18 3169.2 3002.89C3156.92 2990.61 3148.55 2974.95 3145.16 2957.91C3141.77 2940.87 3143.51 2923.2 3150.16 2907.15C3156.81 2891.1 3168.07 2877.37 3182.52 2867.72C3196.97 2858.07 3213.95 2852.91 3231.33 2852.91C3242.87 2852.9 3254.3 2855.16 3264.97 2859.57C3275.63 2863.98 3285.32 2870.45 3293.49 2878.61C3301.65 2886.77 3308.12 2896.46 3312.53 2907.13C3316.94 2917.8 3319.2 2929.23 3319.18 2940.77Z" fill="#263238"/>
<path d="M3444.23 3067.13C3444.23 3076.84 3441.35 3086.34 3435.95 3094.41C3430.56 3102.49 3422.89 3108.79 3413.91 3112.5C3404.94 3116.22 3395.06 3117.19 3385.54 3115.3C3376.01 3113.4 3367.26 3108.73 3360.39 3101.86C3353.52 3094.99 3348.84 3086.24 3346.95 3076.71C3345.05 3067.18 3346.03 3057.31 3349.74 3048.33C3353.46 3039.36 3359.75 3031.69 3367.83 3026.29C3375.91 3020.9 3385.4 3018.02 3395.12 3018.02C3401.57 3018 3407.96 3019.26 3413.93 3021.72C3419.9 3024.19 3425.32 3027.8 3429.88 3032.37C3434.44 3036.93 3438.06 3042.35 3440.52 3048.32C3442.99 3054.28 3444.25 3060.67 3444.23 3067.13Z" fill="#263238"/>
<path d="M3380.13 3062.32C3400.38 3042.07 3403.44 3012.3 3386.96 2995.82C3370.48 2979.34 3340.71 2982.4 3320.46 3002.65C3300.21 3022.9 3297.15 3052.67 3313.63 3069.15C3330.11 3085.63 3359.88 3082.57 3380.13 3062.32Z" fill="#1C6ED0"/>
<path d="M3358.88 2901.43C3362.27 2897.57 3364.79 2893.03 3366.27 2888.12C3367.76 2883.2 3368.16 2878.02 3367.46 2872.94C3366.03 2853.86 3384.03 2867.69 3385.58 2878.66C3385.41 2885.26 3383.36 2891.67 3379.69 2897.16C3376.02 2902.64 3370.87 2906.97 3364.84 2909.65L3358.88 2901.43Z" fill="#263238"/>
<path d="M3364.96 2905.25C3370.07 2905.53 3375.19 2904.7 3379.96 2902.83C3384.74 2900.96 3389.05 2898.08 3392.61 2894.4C3406.68 2881.53 3406.92 2904.17 3399.29 2912.16C3394.08 2916.03 3387.89 2918.36 3381.43 2918.91C3374.97 2919.46 3368.48 2918.19 3362.69 2915.26L3364.96 2905.25Z" fill="#263238"/>
<path d="M3238.96 3090.26V3139.85C3238.96 3139.85 3202.24 3259.05 3214.28 3250.35C3250.04 3225.2 3302.97 3163.93 3316.44 3148.07C3318.58 3145.58 3319.76 3142.41 3319.78 3139.13V3043.77L3238.96 3090.26Z" fill="#945959"/>
<path d="M3318.83 3027.43V3030.29C3300.83 3101.81 3254.1 3116.71 3238.96 3120.41V3010.5H3317.04L3318.83 3027.43Z" fill="#703838"/>
<path d="M3252.55 2868.41C3226.74 2870.07 3202.61 2881.74 3185.28 2900.94C3167.96 2920.13 3158.82 2945.33 3159.8 2971.17C3158.85 3049.73 3170.89 3109.69 3211.66 3112.19C3247.47 3111.28 3281.57 3096.62 3306.87 3071.25C3332.17 3045.89 3346.74 3011.76 3347.55 2975.94C3351.84 2873.9 3281.51 2866.03 3252.55 2868.41Z" fill="#945959"/>
<path d="M3214.76 3002.76L3215.47 3048.89L3188.41 3041.02L3214.76 3002.76Z" fill="#703838"/>
<path d="M3255.29 3001.56C3255.31 3003.43 3254.78 3005.26 3253.76 3006.83C3252.74 3008.39 3251.28 3009.62 3249.56 3010.35C3247.84 3011.08 3245.94 3011.28 3244.11 3010.93C3242.27 3010.58 3240.58 3009.7 3239.25 3008.39C3237.93 3007.07 3237.02 3005.4 3236.64 3003.57C3236.27 3001.74 3236.45 2999.84 3237.16 2998.11C3237.87 2996.38 3239.07 2994.9 3240.63 2993.86C3242.18 2992.82 3244 2992.27 3245.87 2992.27C3247.1 2992.25 3248.32 2992.48 3249.46 2992.94C3250.61 2993.4 3251.65 2994.08 3252.52 2994.95C3253.4 2995.81 3254.09 2996.84 3254.57 2997.98C3255.04 2999.11 3255.29 3000.33 3255.29 3001.56Z" fill="#263238"/>
<path d="M3193.42 2995.84C3193.44 2997.08 3193.21 2998.3 3192.75 2999.45C3192.29 3000.6 3191.61 3001.65 3190.75 3002.53C3189.88 3003.42 3188.85 3004.13 3187.72 3004.61C3186.58 3005.1 3185.36 3005.36 3184.12 3005.37C3182.89 3005.39 3181.67 3005.16 3180.53 3004.7C3179.38 3004.24 3178.35 3003.56 3177.47 3002.69C3176.59 3001.83 3175.9 3000.8 3175.42 2999.66C3174.95 2998.53 3174.7 2997.31 3174.7 2996.08C3174.56 2994.76 3174.69 2993.43 3175.09 2992.16C3175.49 2990.9 3176.16 2989.73 3177.04 2988.75C3177.92 2987.76 3179 2986.97 3180.21 2986.42C3181.43 2985.88 3182.74 2985.6 3184.06 2985.6C3185.39 2985.6 3186.7 2985.88 3187.91 2986.42C3189.12 2986.97 3190.2 2987.76 3191.09 2988.75C3191.97 2989.73 3192.63 2990.9 3193.04 2992.16C3193.44 2993.43 3193.57 2994.76 3193.42 2996.08V2995.84Z" fill="#263238"/>
<path d="M3172.32 2976.53L3190.56 2965.45C3190.56 2965.45 3183.41 2958.17 3176.37 2962.7C3174.38 2964.33 3172.93 2966.52 3172.21 2968.99C3171.48 2971.46 3171.52 2974.09 3172.32 2976.53Z" fill="#1C6ED0"/>
<path d="M3209.51 3064.63C3219.03 3060.1 3228.26 3055 3237.17 3049.37C3237.17 3049.37 3243.13 3064.51 3230.73 3070.71C3227.04 3072.3 3222.9 3072.57 3219.03 3071.46C3215.17 3070.35 3211.8 3067.94 3209.51 3064.63Z" fill="#703838"/>
<path d="M3172.32 2976.53L3190.56 2965.45C3190.56 2965.45 3183.41 2958.17 3176.37 2962.7C3174.38 2964.33 3172.93 2966.52 3172.21 2968.99C3171.48 2971.46 3171.52 2974.09 3172.32 2976.53Z" fill="#263238"/>
<path d="M3295.46 2989.64C3295.46 2989.64 3290.57 3030.65 3320.02 3030.65L3327.17 2993.93L3295.46 2989.64Z" fill="#263238"/>
<path d="M3297.73 3001.68C3297.73 3001.68 3180.07 2981.18 3180.07 2867.7C3180.07 2833.36 3201.17 2809.4 3249.21 2845.05C3297.25 2880.69 3394.64 2853.39 3394.64 2982.61C3394.84 3005.6 3387.72 3028.05 3374.3 3046.72C3360.88 3065.39 3341.87 3079.3 3320.02 3086.44V3005.02L3297.73 3001.68Z" fill="#263238"/>
<path d="M3318.59 3026.48C3318.45 3019.08 3320 3011.74 3323.12 3005.02C3324.54 3000.92 3327.14 2997.33 3330.6 2994.7C3334.06 2992.07 3338.21 2990.52 3342.55 2990.24C3346.12 2990.27 3349.64 2991.07 3352.88 2992.57C3356.12 2994.08 3359 2996.26 3361.32 2998.97C3363.65 3001.68 3365.37 3004.86 3366.36 3008.29C3367.36 3011.71 3367.61 3015.32 3367.1 3018.85C3366.19 3030.68 3360.69 3041.68 3351.79 3049.52C3342.88 3057.35 3331.27 3061.41 3319.42 3060.81L3318.59 3026.48Z" fill="#945959"/>
<path d="M3340.64 3283.84L3283.9 3278V3267.27L3340.64 3273.11V3283.84Z" fill="#263238"/>
<path d="M3183.29 3337.01H3160.16C3160.16 3330.69 3157.65 3324.63 3153.18 3320.15C3148.71 3315.68 3142.64 3313.17 3136.32 3313.17C3130 3313.17 3123.93 3315.68 3119.46 3320.15C3114.99 3324.63 3112.48 3330.69 3112.48 3337.01H3098.77C3097.33 3337 3095.9 3337.33 3094.61 3337.98C3093.31 3338.63 3092.19 3339.57 3091.33 3340.73C3090.47 3341.89 3089.9 3343.24 3089.66 3344.67C3089.42 3346.09 3089.52 3347.55 3089.95 3348.93L3096.98 3371.46H3200.93L3192.11 3343.33C3191.5 3341.48 3190.32 3339.87 3188.73 3338.73C3187.15 3337.59 3185.24 3336.99 3183.29 3337.01Z" fill="#1C6ED0"/>
<path opacity="0.7" d="M3183.29 3337.01H3160.16C3160.16 3330.69 3157.65 3324.63 3153.18 3320.15C3148.71 3315.68 3142.64 3313.17 3136.32 3313.17C3130 3313.17 3123.93 3315.68 3119.46 3320.15C3114.99 3324.63 3112.48 3330.69 3112.48 3337.01H3098.77C3097.33 3337 3095.9 3337.33 3094.61 3337.98C3093.31 3338.63 3092.19 3339.57 3091.33 3340.73C3090.47 3341.89 3089.9 3343.24 3089.66 3344.67C3089.42 3346.09 3089.52 3347.55 3089.95 3348.93L3096.98 3371.46H3200.93L3192.11 3343.33C3191.5 3341.48 3190.32 3339.87 3188.73 3338.73C3187.15 3337.59 3185.24 3336.99 3183.29 3337.01Z" fill="black"/>
<path d="M3252.67 3349.05L3310.6 3567.67L3123.92 3568.51L3051.92 3351.19L3252.67 3349.05Z" fill="#1C6ED0"/>
<path opacity="0.3" d="M3252.67 3349.05L3310.6 3567.67L3123.92 3568.51L3051.92 3351.19L3252.67 3349.05Z" fill="black"/>
<path d="M3183.29 3346.79H3160.16C3160.16 3340.46 3157.65 3334.4 3153.18 3329.93C3148.71 3325.46 3142.64 3322.95 3136.32 3322.95C3130 3322.95 3123.93 3325.46 3119.46 3329.93C3114.99 3334.4 3112.48 3340.46 3112.48 3346.79H3098.77C3097.33 3346.78 3095.9 3347.11 3094.61 3347.75C3093.31 3348.4 3092.19 3349.34 3091.33 3350.51C3090.47 3351.67 3089.9 3353.02 3089.66 3354.44C3089.42 3355.87 3089.52 3357.33 3089.95 3358.71L3093.29 3369.67H3197.12L3192.11 3353.1C3191.5 3351.25 3190.32 3349.64 3188.73 3348.5C3187.15 3347.37 3185.24 3346.77 3183.29 3346.79Z" fill="#1C6ED0"/>
<path opacity="0.5" d="M3183.29 3346.79H3160.16C3160.16 3340.46 3157.65 3334.4 3153.18 3329.93C3148.71 3325.46 3142.64 3322.95 3136.32 3322.95C3130 3322.95 3123.93 3325.46 3119.46 3329.93C3114.99 3334.4 3112.48 3340.46 3112.48 3346.79H3098.77C3097.33 3346.78 3095.9 3347.11 3094.61 3347.75C3093.31 3348.4 3092.19 3349.34 3091.33 3350.51C3090.47 3351.67 3089.9 3353.02 3089.66 3354.44C3089.42 3355.87 3089.52 3357.33 3089.95 3358.71L3093.29 3369.67H3197.12L3192.11 3353.1C3191.5 3351.25 3190.32 3349.64 3188.73 3348.5C3187.15 3347.37 3185.24 3346.77 3183.29 3346.79Z" fill="black"/>
<path d="M3331.34 3431.06C3321.17 3433.33 3310.7 3433.89 3300.35 3432.73C3288.43 3430.35 3288.43 3419.62 3270.78 3419.98L3276.51 3443.82C3259.12 3447.17 3241.37 3448.25 3223.7 3447.04C3199.86 3444.3 3207.96 3465.28 3211.78 3470.88C3215.59 3476.48 3231.57 3509.5 3265.66 3506.64C3292.78 3503.09 3319.57 3497.35 3345.77 3489.47C3348.36 3479.3 3348.41 3468.65 3345.89 3458.46C3343.37 3448.27 3338.38 3438.86 3331.34 3431.06Z" fill="#945959"/>
<path d="M3377.59 3146.64C3393.73 3146.87 3409.38 3152.17 3422.32 3161.8C3435.27 3171.43 3444.85 3184.9 3449.71 3200.28L3507.53 3382.67C3509.83 3389.87 3510.66 3397.47 3509.98 3405C3509.29 3412.54 3507.1 3419.86 3503.53 3426.53C3499.96 3433.2 3495.09 3439.08 3489.2 3443.84C3483.31 3448.59 3476.53 3452.11 3469.26 3454.19L3345.53 3489.95C3346.05 3469.61 3341.16 3449.49 3331.34 3431.66L3428.14 3390.66L3369.72 3236.4C3364.68 3223.67 3361.9 3210.16 3361.5 3196.47C3360.77 3187.51 3361.82 3178.5 3364.58 3169.95C3367.34 3161.4 3371.76 3153.48 3377.59 3146.64Z" fill="#37474F"/>
<path d="M3369.96 3468.97C3369.99 3470.25 3369.63 3471.51 3368.94 3472.58C3368.24 3473.66 3367.25 3474.5 3366.07 3475.01C3364.9 3475.51 3363.6 3475.66 3362.34 3475.42C3361.09 3475.19 3359.93 3474.58 3359.02 3473.69C3358.11 3472.79 3357.48 3471.65 3357.22 3470.39C3356.96 3469.14 3357.08 3467.84 3357.57 3466.66C3358.05 3465.48 3358.88 3464.46 3359.94 3463.75C3361 3463.04 3362.25 3462.66 3363.53 3462.66C3365.21 3462.66 3366.83 3463.32 3368.04 3464.5C3369.24 3465.68 3369.93 3467.29 3369.96 3468.97Z" fill="#263238"/>
<path d="M3391.66 3463.37C3391.68 3464.65 3391.32 3465.91 3390.62 3466.99C3389.93 3468.06 3388.92 3468.91 3387.74 3469.41C3386.56 3469.91 3385.26 3470.05 3384 3469.8C3382.74 3469.56 3381.58 3468.94 3380.67 3468.04C3379.76 3467.13 3379.15 3465.97 3378.9 3464.71C3378.66 3463.45 3378.8 3462.15 3379.3 3460.97C3379.8 3459.78 3380.64 3458.78 3381.72 3458.08C3382.8 3457.38 3384.06 3457.02 3385.34 3457.05C3387.01 3457.08 3388.6 3457.75 3389.77 3458.93C3390.95 3460.11 3391.63 3461.7 3391.66 3463.37Z" fill="#263238"/>
<path d="M2891.94 3214.11C2890.36 3214.9 2888.53 3215.03 2886.86 3214.47C2885.18 3213.91 2883.79 3212.71 2883 3211.13C2882.21 3209.55 2882.08 3207.72 2882.64 3206.04C2883.2 3204.36 2884.4 3202.98 2885.98 3202.19C2887.57 3201.4 2889.4 3201.27 2891.07 3201.83C2892.75 3202.39 2894.13 3203.59 2894.92 3205.17C2895.72 3206.75 2895.85 3208.58 2895.29 3210.26C2894.73 3211.93 2893.53 3213.32 2891.94 3214.11Z" fill="#263238"/>
<path d="M2907.21 3230.68C2906.08 3231.29 2904.81 3231.54 2903.54 3231.42C2902.27 3231.3 2901.07 3230.81 2900.08 3230C2899.09 3229.2 2898.37 3228.12 2898 3226.9C2897.62 3225.68 2897.62 3224.38 2897.99 3223.16C2898.36 3221.94 2899.08 3220.85 2900.06 3220.04C2901.04 3219.24 2902.25 3218.74 2903.51 3218.61C2904.78 3218.48 2906.06 3218.74 2907.18 3219.34C2908.31 3219.94 2909.23 3220.86 2909.83 3221.98C2910.63 3223.48 2910.81 3225.24 2910.32 3226.87C2909.82 3228.5 2908.71 3229.87 2907.21 3230.68Z" fill="#263238"/>
<path d="M2452.91 4246.67C2452.91 4246.67 2442.42 4252.39 2440.99 4274.8C2439.55 4297.22 2418.81 4339.06 2466.85 4340.73C2514.89 4342.39 2508.22 4344.9 2527.77 4352.65C2547.32 4360.39 2589.64 4378.28 2623.13 4354.43C2656.63 4330.59 2618.01 4317.96 2603.94 4313.19C2578.97 4304.95 2555.23 4293.36 2533.37 4278.74C2524.55 4272.85 2516.53 4265.84 2509.53 4257.88L2452.91 4246.67Z" fill="#263238"/>
<path d="M2297.94 4302.46C2297.94 4302.46 2289.71 4304.85 2289.35 4321.3C2289 4337.75 2276 4362.78 2293.65 4377.68C2311.29 4392.58 2314.03 4390.67 2324.76 4413.44C2331.32 4430.06 2343.87 4443.62 2359.93 4451.45C2375.99 4459.29 2394.4 4460.82 2411.54 4455.76C2462.92 4444.44 2430.49 4413.56 2426.2 4409.03C2421.91 4404.5 2371.61 4354.79 2366.6 4338.46C2363.59 4329.45 2359.8 4320.71 2355.28 4312.36L2297.94 4302.46Z" fill="#263238"/>
<path d="M2297.94 4281.96V4312.35C2297.94 4312.35 2301.63 4326.54 2329.77 4326.54C2344.9 4326.54 2354.8 4317.6 2355.04 4312.35V4278.98L2297.94 4281.96Z" fill="#FFA8A7"/>
<path d="M2452.91 4227.71V4257.99C2452.91 4257.99 2456.6 4272.3 2484.73 4272.3C2499.87 4272.3 2509.89 4263.24 2510.13 4257.99V4224.73L2452.91 4227.71Z" fill="#FFA8A7"/>
<path d="M2538.74 3519.04L2560.19 3869.86C2561.17 3886.42 2560.53 3903.02 2558.29 3919.45L2513.58 4244.05C2502.68 4248.48 2490.79 4249.96 2479.14 4248.32C2467.48 4246.69 2456.46 4242.01 2447.19 4234.75L2429.78 3975.24C2428.25 3953.38 2431.21 3931.43 2438.48 3910.75L2445.4 3891.2L2382.7 3543.36L2538.74 3519.04Z" fill="#455A64"/>
<path d="M2495.7 3610.83C2495.7 3610.83 2485.09 3652.31 2432.05 3677.94L2421.44 3756.14L2398.43 3628.83L2495.7 3610.83Z" fill="#37474F"/>
<path d="M2512.51 3533.22C2512.51 3533.22 2520.02 3599.62 2468.64 3642.65C2454.46 3655.23 2437.1 3663.68 2418.46 3667.09L2401.41 3913.61L2360.16 4298.88C2360.16 4298.88 2335.25 4319.74 2289.24 4298.88L2267.42 4010.16C2265.01 3977.76 2270.88 3945.27 2284.47 3915.75L2285.42 3913.61C2274.04 3785.44 2270.06 3656.72 2273.5 3528.09L2512.51 3533.22Z" fill="#455A64"/>
<path d="M2583.2 3278.12L2601.79 3315.07C2601.79 3315.07 2685.24 3344.63 2734.59 3343.56L2755.93 3395.42C2716.26 3398.37 2676.45 3398.81 2636.72 3396.73C2578.67 3393.03 2570.09 3391.48 2553.28 3369.43C2536.47 3347.38 2510.6 3306.96 2510.6 3306.96L2583.2 3278.12Z" fill="#FFA8A7"/>
<path d="M2734.59 3343.56C2739.09 3340.48 2743.28 3336.96 2747.11 3333.07C2750.75 3328.47 2755.27 3324.64 2760.41 3321.8C2765.55 3318.95 2771.19 3317.15 2777.03 3316.5C2790.97 3313.05 2793.6 3302.08 2800.87 3305.77C2808.14 3309.47 2795.39 3334.15 2780.37 3338.32C2791.17 3339.48 2802.09 3338.01 2812.19 3334.03C2824.83 3327.59 2844.74 3318.89 2852.84 3322.11C2860.95 3325.32 2862.02 3369.19 2832.94 3385.88C2803.85 3402.57 2743.89 3394.7 2743.89 3394.7L2734.59 3343.56Z" fill="#FFA8A7"/>
<path d="M2452.91 3112.3C2465.98 3109.68 2479.56 3111.33 2491.63 3117.02C2503.69 3122.71 2513.61 3132.13 2519.9 3143.89L2590.35 3275.85C2590.35 3275.85 2571.52 3316.15 2510.24 3318.17L2452.91 3112.3Z" fill="#1C6ED0"/>
<path opacity="0.5" d="M2452.91 3112.3C2465.98 3109.68 2479.56 3111.33 2491.63 3117.02C2503.69 3122.71 2513.61 3132.13 2519.9 3143.89L2590.35 3275.85C2590.35 3275.85 2571.52 3316.15 2510.24 3318.17L2452.91 3112.3Z" fill="black"/>
<path d="M2276.6 3343.33L2255.5 3397.57L2233.45 3581.02L2180.28 3597.83C2180.28 3597.83 2175.75 3487.45 2178.02 3413.3C2178.61 3393.46 2182.31 3373.83 2188.98 3355.13L2203.88 3313.41L2276.6 3343.33Z" fill="#FFA8A7"/>
<path d="M2353.49 3130.55L2286.61 3149.74L2274.1 3336.77V3528.1C2274.1 3528.1 2315.7 3563.86 2414.52 3563.86C2459.93 3562.94 2503.76 3547.06 2539.21 3518.68V3278.12C2539.21 3256.55 2547.8 3132.93 2453.74 3111.23L2437.65 3114.45L2353.49 3130.55Z" fill="#1C6ED0"/>
<path opacity="0.3" d="M2353.49 3130.55L2286.61 3149.74L2274.1 3336.77V3528.1C2274.1 3528.1 2315.7 3563.86 2414.52 3563.86C2459.93 3562.94 2503.76 3547.06 2539.21 3518.68V3278.12C2539.21 3256.55 2547.8 3132.93 2453.74 3111.23L2437.65 3114.45L2353.49 3130.55Z" fill="black"/>
<path d="M2324.4 3138.89C2324.4 3138.89 2346.81 3161.06 2330.72 3223.05C2317.52 3269.99 2301.6 3316.12 2283.04 3361.21C2266.28 3364.37 2248.98 3362.93 2232.99 3357.03C2216.99 3351.13 2202.89 3341 2192.2 3327.71L2239.89 3196.59C2243.91 3185.19 2250.59 3174.92 2259.38 3166.62C2268.17 3158.33 2278.82 3152.26 2290.43 3148.9L2324.4 3138.89Z" fill="#1C6ED0"/>
<path opacity="0.5" d="M2324.4 3138.89C2324.4 3138.89 2346.81 3161.06 2330.72 3223.05C2317.52 3269.99 2301.6 3316.12 2283.04 3361.21C2266.28 3364.37 2248.98 3362.93 2232.99 3357.03C2216.99 3351.13 2202.89 3341 2192.2 3327.71L2239.89 3196.59C2243.91 3185.19 2250.59 3174.92 2259.38 3166.62C2268.17 3158.33 2278.82 3152.26 2290.43 3148.9L2324.4 3138.89Z" fill="black"/>
<path d="M2233.45 3581.02C2236.25 3585.69 2239.48 3590.08 2243.1 3594.14C2251.78 3602.15 2257 3613.22 2257.65 3625.01C2260.15 3639.2 2271 3642.53 2266.83 3649.81C2262.65 3657.08 2238.81 3642.53 2235.71 3627.28C2233.81 3637.98 2234.55 3648.99 2237.86 3659.34C2243.46 3672.34 2250.97 3692.84 2247.63 3700.71C2244.3 3708.57 2199.95 3706.79 2185.29 3676.87C2170.63 3646.94 2182.19 3587.58 2182.19 3587.58L2233.45 3581.02Z" fill="#FFA8A7"/>
<path d="M2514.18 2895.35C2514.18 2895.35 2529.8 2911.33 2529.8 2953.41C2529.8 2995.49 2494.99 3031.84 2494.99 3031.84V2897.74L2514.18 2895.35Z" fill="#263238"/>
<path d="M2514.18 2906.32C2520.9 2902.38 2526.58 2896.88 2530.73 2890.28C2534.88 2883.68 2537.38 2876.18 2538.02 2868.41C2540.16 2841.59 2524.43 2851.24 2519.06 2853.51C2513.7 2855.77 2497.37 2861.73 2497.37 2861.73C2497.37 2861.73 2512.27 2846.24 2503.45 2835.86C2496.89 2828.24 2465.06 2852.31 2425.01 2857.08C2384.96 2861.85 2346.33 2861.49 2335.01 2897.37C2335.01 2897.37 2296.27 2905.12 2305.57 2973.07C2314.86 3041.02 2341.33 3080.36 2353.25 3079.64L2514.18 2906.32Z" fill="#263238"/>
<path d="M2353.49 3130.54L2388.53 3152.71C2396.27 3157.65 2405.2 3160.35 2414.37 3160.54C2423.54 3160.73 2432.58 3158.4 2440.51 3153.79C2443.61 3152 2446.21 3149.46 2448.06 3146.39C2449.91 3143.33 2450.94 3139.84 2451.08 3136.27C2451.21 3132.69 2450.43 3129.14 2448.81 3125.95C2447.19 3122.76 2444.78 3120.03 2441.82 3118.02L2437.17 3115.04V3018.37H2353.73L2353.49 3130.54Z" fill="#FFA8A7"/>
<path d="M2437.17 3115.04C2419.02 3112.52 2402.03 3104.66 2388.36 3092.45C2374.69 3080.25 2364.96 3064.25 2360.4 3046.5V3018.37H2437.17V3115.04Z" fill="#F28F8F"/>
<path d="M2456.72 2881.16C2456.72 2881.16 2536.35 2884.14 2521.93 3012.29C2515.25 3072.61 2510.01 3105.87 2458.63 3105.87C2407.25 3105.87 2330.96 3067 2335.84 2963.53C2340.73 2860.06 2456.72 2881.16 2456.72 2881.16Z" fill="#FFA8A7"/>
<path d="M2464.71 2986.9V3031.84L2491.05 3023.73L2464.71 2986.9Z" fill="#F28F8F"/>
<path d="M2426.32 2994.65C2426.32 2996.47 2426.87 2998.25 2427.88 2999.76C2428.89 3001.27 2430.33 3002.45 2432.02 3003.14C2433.7 3003.83 2435.55 3004.01 2437.34 3003.64C2439.12 3003.28 2440.76 3002.39 2442.04 3001.1C2443.31 2999.8 2444.18 2998.15 2444.52 2996.36C2444.86 2994.58 2444.66 2992.73 2443.95 2991.05C2443.24 2989.38 2442.04 2987.95 2440.52 2986.96C2438.99 2985.96 2437.2 2985.45 2435.38 2985.47C2432.97 2985.5 2430.67 2986.48 2428.97 2988.2C2427.27 2989.92 2426.32 2992.23 2426.32 2994.65Z" fill="#263238"/>
<path d="M2486.52 2988.21C2486.52 2990.03 2487.06 2991.8 2488.07 2993.31C2489.08 2994.82 2490.51 2996 2492.19 2996.69C2493.87 2997.39 2495.71 2997.57 2497.49 2997.21C2499.27 2996.86 2500.91 2995.98 2502.19 2994.7C2503.48 2993.42 2504.35 2991.78 2504.7 2990C2505.06 2988.22 2504.88 2986.37 2504.18 2984.7C2503.49 2983.02 2502.31 2981.59 2500.8 2980.58C2499.29 2979.57 2497.52 2979.03 2495.7 2979.03C2493.27 2979.03 2490.93 2980 2489.21 2981.72C2487.49 2983.44 2486.52 2985.78 2486.52 2988.21Z" fill="#263238"/>
<path d="M2506.91 2969.26L2488.67 2958.53C2488.67 2958.53 2495.58 2951.38 2502.5 2955.67C2504.53 2957.21 2506.04 2959.34 2506.83 2961.77C2507.62 2964.2 2507.65 2966.81 2506.91 2969.26Z" fill="#263238"/>
<path d="M2430.61 2966.04L2414.52 2979.27C2414.52 2979.27 2410.11 2970.33 2416.55 2965.32C2418.66 2963.93 2421.17 2963.25 2423.7 2963.38C2426.23 2963.51 2428.65 2964.44 2430.61 2966.04Z" fill="#263238"/>
<path d="M2460.53 3052.7C2460.53 3052.7 2427.87 3044.35 2435.86 3046.14C2435.86 3046.14 2434.19 3059.14 2445.04 3061.64C2448.26 3062.18 2451.56 3061.58 2454.39 3059.95C2457.22 3058.32 2459.39 3055.75 2460.53 3052.7Z" fill="#F28F8F"/>
<path d="M2514.18 2906.32C2514.18 2906.32 2488.79 2930.16 2423.58 2925.27C2358.38 2920.38 2363.98 2938.38 2371.25 2968.9C2376.14 2989.88 2376.61 3045.67 2360.4 3018.37H2328.1V2953.88C2328.1 2943.06 2330.23 2932.35 2334.37 2922.36C2338.51 2912.36 2344.57 2903.28 2352.22 2895.63C2359.87 2887.99 2368.95 2881.92 2378.95 2877.78C2388.94 2873.64 2399.65 2871.51 2410.47 2871.51H2476.75L2514.18 2906.32Z" fill="#263238"/>
<path d="M2361.12 3015.03C2361.12 3015.03 2357.9 2984.16 2336.44 2983.56C2332.66 2983.56 2328.92 2984.37 2325.48 2985.93C2322.03 2987.5 2318.96 2989.77 2316.47 2992.62C2313.97 2995.46 2312.12 2998.8 2311.02 3002.42C2309.92 3006.04 2309.61 3009.85 2310.1 3013.6C2310.95 3026.09 2316.63 3037.76 2325.93 3046.14C2335.22 3054.53 2347.41 3058.97 2359.93 3058.54L2361.12 3015.03Z" fill="#FFA8A7"/>
<path d="M2335.37 2897.73C2335.37 2897.73 2318.92 2875.8 2329.53 2866.74C2340.14 2857.68 2345.03 2895.23 2345.03 2895.23L2335.37 2897.73Z" fill="#263238"/>
<path d="M2336.8 2904.65C2336.8 2904.65 2309.38 2904.65 2308.79 2890.34C2308.19 2876.04 2340.73 2895.47 2340.73 2895.47L2336.8 2904.65Z" fill="#263238"/>
<path d="M4065.53 608.973L4154.82 659.755V628.165C4154.82 625.9 4154.82 623.635 4154.82 621.37C4154.82 619.105 4154.82 617.079 4154.82 615.052V614.337C4158.04 572.377 4189.75 556.403 4228.37 578.575C4245.89 589.318 4260.9 603.711 4272.36 620.774C4281.06 563.913 4327.55 543.409 4383.58 575.834C4445.92 611.595 4496.34 699.212 4496.34 771.213V838.803C4496.34 844.167 4497.74 849.44 4500.39 854.101C4503.04 858.763 4506.87 862.652 4511.48 865.386L4563.93 896.141C4575.33 902.818 4584.78 912.36 4591.35 923.82C4597.91 935.28 4601.37 948.258 4601.37 961.466C4601.37 966.936 4599.93 972.311 4597.2 977.048C4594.47 981.786 4590.53 985.719 4585.79 988.451C4581.05 991.183 4575.68 992.617 4570.21 992.61C4564.74 992.602 4559.37 991.152 4554.64 988.407L4066.72 706.603C4053.79 699.108 4043.05 688.347 4035.58 675.397C4028.11 662.447 4024.18 647.763 4024.17 632.814C4024.16 627.972 4025.43 623.215 4027.86 619.021C4030.28 614.827 4033.76 611.346 4037.95 608.928C4042.15 606.51 4046.91 605.241 4051.75 605.249C4056.59 605.257 4061.35 606.541 4065.53 608.973Z" fill="#E6E6E6"/>
<path d="M3606.47 35.7079L3672.51 73.2579V49.4166C3672.51 47.7477 3672.51 46.0788 3672.51 44.5292C3672.51 42.9795 3672.51 41.3106 3672.51 39.7609C3674.89 8.76724 3698.38 -3.15339 3726.99 13.4163C3739.99 21.3134 3751.1 31.9762 3759.53 44.6483C3765.97 2.56851 3800.3 -12.5707 3841.78 11.3898C3866.09 27.1974 3886.31 48.5236 3900.82 73.6306C3915.32 98.7377 3923.68 126.915 3925.23 155.868V205.935C3925.24 209.885 3926.28 213.765 3928.24 217.193C3930.21 220.62 3933.03 223.478 3936.43 225.484L3975.29 248.253C3983.65 253.258 3990.56 260.352 3995.35 268.838C4000.14 277.323 4002.63 286.908 4002.59 296.651C4002.59 300.696 4001.53 304.672 3999.51 308.175C3997.48 311.678 3994.57 314.586 3991.07 316.605C3987.56 318.624 3983.58 319.683 3979.54 319.675C3975.49 319.666 3971.52 318.591 3968.02 316.558L3607.54 108.305C3597.94 102.788 3589.96 94.8351 3584.41 85.249C3578.87 75.663 3575.95 64.7831 3575.95 53.708C3575.9 50.1092 3576.79 46.5599 3578.56 43.4209C3580.32 40.2819 3582.88 37.6651 3585.98 35.8365C3589.08 34.0079 3592.61 33.0328 3596.21 33.0102C3599.8 32.9876 3603.35 33.9184 3606.47 35.7079Z" fill="#E6E6E6"/>
<path d="M1388.04 508.36L1298.75 559.142V527.552C1298.75 525.287 1298.75 523.022 1298.75 520.877C1298.75 518.731 1298.75 516.466 1298.75 514.439V513.605C1295.54 471.764 1263.83 455.671 1225.08 477.843C1207.59 488.634 1192.63 503.068 1181.22 520.161C1172.4 463.3 1126.02 442.677 1070 475.101C1007.65 510.863 957.228 598.48 957.228 670.481V738.19C957.234 743.538 955.84 748.796 953.184 753.439C950.528 758.081 946.703 761.948 942.089 764.653L889.519 795.409C878.153 802.109 868.733 811.66 862.189 823.117C855.645 834.574 852.204 847.54 852.207 860.734C852.217 866.2 853.661 871.567 856.395 876.3C859.129 881.033 863.058 884.966 867.788 887.705C872.518 890.444 877.884 891.894 883.35 891.909C888.816 891.925 894.19 890.506 898.936 887.794L1386.85 605.871C1399.81 598.403 1410.56 587.648 1418.04 574.692C1425.51 561.736 1429.43 547.038 1429.4 532.082C1429.39 527.25 1428.1 522.508 1425.67 518.331C1423.24 514.154 1419.76 510.689 1415.57 508.285C1411.38 505.882 1406.62 504.623 1401.79 504.636C1396.96 504.649 1392.22 505.933 1388.04 508.36Z" fill="#E6E6E6"/>
</svg>
