<svg width="5687" height="4977" viewBox="0 0 5687 4977" fill="none" xmlns="http://www.w3.org/2000/svg">
<path d="M99.2461 2125.75V3837.11H5683.46V2459.63L5484.01 2344.23V1903.49L5284.56 1788.33L4935.56 1989.74V1577.3L4686.21 1433.35L4385.03 1607.55V2106.36L4137.88 1964V1720.02L3888.54 1575.71L3290.19 1921.06V2008.77L3072.69 2133.68L2893.24 2027.06L2691.96 2143.93V1684.77L2392.73 1512.16L2193.28 1627.31V2058.41L1993.83 1943.26L1618.84 2159.79V1901.54L1395.48 1772.23L1146.26 1916.18V2122.21L1046.6 2179.79V1981.81L797.258 1837.86V1549.97L597.93 1434.82L398.359 1549.97V2125.75L248.803 2039.26L99.2461 2125.75Z" fill="#E0E0E0"/>
<path d="M1689.11 893.313C1689.11 855.009 1647.14 828.416 1599.69 824.024C1543.82 818.779 1504.17 843.664 1502.83 887.702C1466.23 872.697 1427.69 882.334 1430.61 922.468C1421.1 911.489 1385.48 911.855 1372.67 914.905C1365.73 916.898 1359.29 920.358 1353.8 925.051C1348.31 929.744 1343.88 935.56 1340.83 942.108C1337.78 948.478 1336.63 955.596 1337.54 962.602C1316.19 955.649 1267.76 951.379 1255.68 970.897C1234.09 1005.79 1320.34 1007.49 1337.66 996.27C1341.32 1023.35 1434.03 1027.87 1456.48 1002.86C1473.92 1020.55 1499.17 1024.45 1526.37 1026.04C1572.12 1028.72 1600.3 1013.23 1636.16 994.929C1675.08 1027.87 1742.29 1028.48 1777.3 990.781C1786.33 999.198 1810.97 1001.88 1830.61 997.124C1843.54 994.075 1846.59 988.585 1846.59 988.585C1854.25 991.771 1862.22 994.142 1870.38 995.66C1895.75 1001.03 1943.57 995.661 1923.2 972.483C1910.98 963.935 1896.03 960.238 1881.24 962.114C1870.13 940.4 1825.61 919.662 1800.11 937.717C1799.14 911.367 1774.98 890.629 1740.95 885.384C1729.48 884.042 1702.16 882.456 1689.11 893.313Z" fill="#F5F5F5"/>
<path d="M5207.34 470.141C5207.34 431.959 5165.38 405.366 5117.92 400.852C5062.05 395.607 5022.29 420.492 5020.94 464.53C4984.35 449.525 4945.92 459.162 4948.73 499.418C4939.21 488.439 4903.71 488.683 4890.91 491.733C4883.95 493.712 4877.51 497.166 4872.02 501.86C4866.52 506.555 4862.11 512.379 4859.07 518.936C4855.99 525.343 4854.85 532.506 4855.77 539.552C4834.43 532.477 4786 528.207 4773.8 547.847C4752.21 582.614 4838.45 583.711 4855.9 573.221C4859.55 600.302 4952.14 604.693 4974.59 579.686C4992.15 597.374 5017.28 601.278 5044.49 602.863C5090.35 605.669 5118.41 590.665 5154.28 571.879C5193.07 604.815 5260.41 605.425 5295.42 567.731C5304.32 576.148 5328.96 578.71 5348.72 574.074C5361.65 570.903 5364.58 565.413 5364.58 565.413C5372.24 568.641 5380.21 571.053 5388.37 572.611C5413.87 577.856 5461.56 572.611 5441.31 549.311C5429.08 540.816 5414.12 537.165 5399.35 539.064C5388.25 517.228 5343.72 496.612 5318.23 514.667C5317.13 488.195 5292.98 467.58 5259.06 462.334C5247.6 460.87 5220.64 459.406 5207.34 470.141Z" fill="#F5F5F5"/>
<path d="M2820.78 246.782C2809.57 242.62 2797.73 240.393 2785.77 240.195C2774.3 239.341 2770.77 237.145 2768.57 234.583C2757.69 218.936 2741.8 207.469 2723.53 202.079C2705.25 196.689 2685.68 197.699 2668.05 204.94C2663.09 189.575 2652.54 176.634 2638.48 168.682C2624.43 160.729 2607.9 158.345 2592.18 162.001C2593.4 126.747 2548.26 88.8085 2507.76 80.1474C2467.26 71.4863 2434.57 75.2679 2412.73 100.885C2388.95 54.5301 2295.87 41.3555 2245.49 65.9969C2216.46 80.0254 2191.94 94.5419 2179.86 121.135C2171.93 137.529 2168.19 155.639 2169 173.834C2156.79 165.099 2142.66 159.43 2127.8 157.307C2112.93 155.184 2097.78 156.668 2083.61 161.635C2055.43 172.614 2053.24 193.962 2051.89 215.675C2035.13 210.748 2017.35 210.411 2000.42 214.699C1982.48 219.945 1972.24 233.973 1974.68 245.318C1960.65 244.464 1926.98 255.931 1930.88 270.814C1934.79 285.696 1973.58 285.818 1987.85 285.208C2001.37 284.205 2014.79 282.125 2027.98 278.987C2034.65 281.529 2041.71 282.852 2048.84 282.89C2073.24 282.89 2083.61 272.277 2087.51 263.128C2099.71 288.258 2141.92 307.41 2171.81 315.095C2228.29 329.49 2308.19 320.706 2342.59 278.499C2346.7 286.436 2352.44 293.419 2359.42 298.993C2374.39 310.993 2392.54 318.369 2411.63 320.218C2434.81 322.292 2497.03 325.342 2514.59 288.502C2526.79 312.899 2582.42 324.122 2624.38 318.145C2640.73 315.729 2656.64 310.92 2671.59 303.872C2680.92 298.989 2689.96 293.572 2698.67 287.648C2702.04 285.332 2705.97 283.962 2710.04 283.683C2714.12 283.404 2718.2 284.226 2721.85 286.062C2751.6 296.612 2784.08 296.612 2813.83 286.062C2837.98 276.425 2842.86 256.785 2820.78 246.782Z" fill="#F5F5F5"/>
<path d="M797.259 582.491C901.011 582.491 985.119 498.383 985.119 394.63C985.119 290.878 901.011 206.77 797.259 206.77C693.506 206.77 609.398 290.878 609.398 394.63C609.398 498.383 693.506 582.491 797.259 582.491Z" fill="#FFBDA7"/>
<path d="M4040.53 918.809C4039.92 918.234 4039.12 917.914 4038.28 917.914C4037.44 917.914 4036.63 918.234 4036.02 918.809L683.809 3831.13H693.568L4040.17 923.322C4040.49 923.052 4040.76 922.72 4040.95 922.346C4041.15 921.972 4041.26 921.563 4041.3 921.142C4041.33 920.722 4041.28 920.299 4041.15 919.898C4041.02 919.498 4040.81 919.127 4040.53 918.809Z" fill="#E0E0E0"/>
<path d="M4061.76 866.231C4061.17 865.664 4060.38 865.348 4059.57 865.348C4058.75 865.348 4057.96 865.664 4057.37 866.231L411.9 3831.13H422.025L4061.03 870.744C4061.38 870.501 4061.68 870.19 4061.91 869.829C4062.14 869.468 4062.29 869.065 4062.36 868.643C4062.42 868.222 4062.41 867.791 4062.31 867.376C4062.2 866.962 4062.02 866.572 4061.76 866.231Z" fill="#E0E0E0"/>
<path d="M4082.38 813.654C4082.08 813.355 4081.73 813.118 4081.34 812.956C4080.96 812.794 4080.54 812.711 4080.12 812.711C4079.7 812.711 4079.29 812.794 4078.9 812.956C4078.51 813.118 4078.16 813.355 4077.86 813.654L105.225 3827.35V3831.13H110.714L4081.77 818.046C4082.4 817.521 4082.81 816.78 4082.92 815.968C4083.04 815.156 4082.84 814.331 4082.38 813.654Z" fill="#E0E0E0"/>
<path d="M4103.24 761.079C4102.77 760.385 4102.04 759.906 4101.22 759.746C4100.39 759.586 4099.54 759.758 4098.85 760.225L105.225 3573.86V3581.67L4102.51 765.47C4102.85 765.239 4103.15 764.939 4103.38 764.589C4103.6 764.238 4103.75 763.845 4103.82 763.433C4103.89 763.022 4103.88 762.6 4103.77 762.195C4103.67 761.79 4103.49 761.41 4103.24 761.079Z" fill="#E0E0E0"/>
<path d="M4124.22 708.502C4123.75 707.779 4123.01 707.273 4122.16 707.09C4121.32 706.907 4120.44 707.064 4119.71 707.526L105.225 3320.13V3327.69L4122.76 712.893C4123.53 712.501 4124.11 711.82 4124.39 710.998C4124.66 710.176 4124.6 709.279 4124.22 708.502Z" fill="#E0E0E0"/>
<path d="M4145.08 655.924C4144.88 655.548 4144.6 655.218 4144.26 654.955C4143.93 654.692 4143.54 654.503 4143.13 654.4C4142.71 654.296 4142.28 654.281 4141.86 654.354C4141.44 654.428 4141.04 654.589 4140.69 654.826L105.225 3066.76V3074.08L4143.98 660.804C4144.4 660.581 4144.77 660.271 4145.06 659.893C4145.34 659.516 4145.55 659.08 4145.65 658.616C4145.76 658.153 4145.76 657.672 4145.66 657.208C4145.56 656.743 4145.36 656.305 4145.08 655.924Z" fill="#E0E0E0"/>
<path d="M4165.94 603.349C4165.75 602.979 4165.48 602.653 4165.16 602.389C4164.84 602.126 4164.47 601.931 4164.07 601.817C4163.67 601.702 4163.25 601.671 4162.84 601.725C4162.42 601.778 4162.03 601.916 4161.67 602.129L105.225 2813.03V2819.98L4164.72 607.618C4165.44 607.208 4165.97 606.531 4166.2 605.732C4166.43 604.934 4166.33 604.078 4165.94 603.349Z" fill="#E0E0E0"/>
<path d="M4186.92 551.018C4186.53 550.276 4185.87 549.712 4185.08 549.44C4184.28 549.168 4183.42 549.209 4182.65 549.554L105.225 2559.17V2566.25L4185.46 555.044C4186.16 554.677 4186.7 554.06 4186.97 553.315C4187.24 552.57 4187.22 551.751 4186.92 551.018Z" fill="#E0E0E0"/>
<path d="M4752.82 4477.91L4094.94 1524.84C4087.14 1484 4088.1 1441.96 4097.75 1401.51L4339.16 537.354L4235.71 477.824L4183.75 507.467L3846.33 1314.54C3831.76 1353.48 3825.32 1395 3827.42 1436.52L4080.42 4448.02L4442.36 4656.99L4752.82 4477.91Z" fill="#1C6ED0"/>
<path opacity="0.35" d="M4752.82 4477.91L4094.94 1524.84C4087.14 1484 4088.1 1441.96 4097.75 1401.51L4339.16 537.354L4235.71 477.824L4183.75 507.467L3846.33 1314.54C3831.76 1353.48 3825.32 1395 3827.42 1436.52L4080.42 4448.02L4442.36 4656.99L4752.82 4477.91Z" fill="white"/>
<path d="M3923.67 1299.65C3910.69 1338.93 3906.73 1380.62 3912.08 1421.64L4391.13 4268.95L4753.06 4477.91L4094.94 1524.84C4087.14 1484 4088.1 1441.96 4097.75 1401.51L4339.16 537.354L4235.72 477.824L3923.67 1299.65Z" fill="#1C6ED0"/>
<path opacity="0.6" d="M3923.67 1299.65C3910.69 1338.93 3906.73 1380.62 3912.08 1421.64L4391.13 4268.95L4753.06 4477.91L4094.94 1524.84C4087.14 1484 4088.1 1441.96 4097.75 1401.51L4339.16 537.354L4235.72 477.824L3923.67 1299.65Z" fill="white"/>
<path d="M3829.98 1265.98L3511.84 59.6518L3408.4 0L3356.67 29.8869L3576.25 1175.47C3582.28 1216.46 3578.35 1258.31 3564.78 1297.46L2684.52 3642.05L3046.46 3851.02L3356.67 3671.94L3832.42 1389.68C3839.91 1348.7 3839.08 1306.64 3829.98 1265.98Z" fill="#1C6ED0"/>
<path opacity="0.45" d="M3829.98 1265.98L3511.84 59.6518L3408.4 0L3356.67 29.8869L3576.25 1175.47C3582.28 1216.46 3578.35 1258.31 3564.78 1297.46L2684.52 3642.05L3046.46 3851.02L3356.67 3671.94L3832.42 1389.68C3839.91 1348.7 3839.08 1306.64 3829.98 1265.98Z" fill="white"/>
<path d="M3829.98 1265.98C3839.13 1306.63 3840 1348.69 3832.55 1389.68L3356.8 3671.94L2994.86 3462.98L3647.86 1284.65C3658.77 1244.59 3660.85 1202.63 3653.96 1161.69L3408.4 0L3511.84 59.6518L3829.98 1265.98Z" fill="#1C6ED0"/>
<path opacity="0.6" d="M3829.98 1265.98C3839.13 1306.63 3840 1348.69 3832.55 1389.68L3356.8 3671.94L2994.86 3462.98L3647.86 1284.65C3658.77 1244.59 3660.85 1202.63 3653.96 1161.69L3408.4 0L3511.84 59.6518L3829.98 1265.98Z" fill="white"/>
<path d="M3756.55 1735.39L3799.73 1539.48L3946.12 1624.14L3756.55 1735.39Z" fill="#1C6ED0"/>
<path opacity="0.1" d="M3756.55 1735.39L3799.73 1539.48L3946.12 1624.14L3756.55 1735.39Z" fill="white"/>
<path d="M3946.12 1624.51L3799.73 1539.85L3832.67 1390.17C3840.12 1349.14 3839.25 1307.03 3830.11 1266.35L3827.79 1257.45L3920.14 1310.88C3909.97 1347.08 3907.23 1384.96 3912.08 1422.25L3946.12 1624.51Z" fill="#1C6ED0"/>
<path opacity="0.3" d="M3946.12 1624.51L3799.73 1539.85L3832.67 1390.17C3840.12 1349.14 3839.25 1307.03 3830.11 1266.35L3827.79 1257.45L3920.14 1310.88C3909.97 1347.08 3907.23 1384.96 3912.08 1422.25L3946.12 1624.51Z" fill="white"/>
<path d="M4049.81 967.359L4076.89 895.63L3670.43 660.805L3697.63 764.128" fill="#1C6ED0"/>
<path opacity="0.3" d="M4049.81 967.359L4076.89 895.63L3670.43 660.805L3697.63 764.128" fill="white"/>
<path d="M4049.81 967.36L3973.2 1011.64L3725.2 868.428L3697.63 764.129L4049.81 967.36Z" fill="#1C6ED0"/>
<path opacity="0.1" d="M4049.81 967.36L3973.2 1011.64L3725.2 868.428L3697.63 764.129L4049.81 967.36Z" fill="white"/>
<path d="M3508.31 2863.9L4239.26 3285.85L4274.27 3485.18L4019.68 3632.17C4019.68 3632.17 3894.76 3484.69 3636.27 3335.38C3568.69 3296.11 3498.96 3260.64 3427.43 3229.13L3508.31 2863.9Z" fill="#1C6ED0"/>
<path opacity="0.25" d="M3508.31 2863.9L4239.26 3285.85L4274.27 3485.18L4019.68 3632.17C4019.68 3632.17 3894.76 3484.69 3636.27 3335.38C3568.69 3296.11 3498.96 3260.64 3427.43 3229.13L3508.31 2863.9Z" fill="white"/>
<path d="M3508.3 2863.9L4239.25 3285.85L4274.26 3485.18C4274.26 3485.18 4132.27 3343.55 3873.78 3194.24C3615.29 3044.93 3473.17 3023.46 3473.17 3023.46L3508.3 2863.9Z" fill="#1C6ED0"/>
<path opacity="0.6" d="M3508.3 2863.9L4239.25 3285.85L4274.26 3485.18C4274.26 3485.18 4132.27 3343.55 3873.78 3194.24C3615.29 3044.93 3473.17 3023.46 3473.17 3023.46L3508.3 2863.9Z" fill="white"/>
<path d="M4344.16 3883.83L3403.03 3343.55L3357.04 3671.94L3046.83 3851.02L3357.04 4030.22L3511.48 3940.56L3610.41 3883.71C3684.61 3937.94 3755.3 3996.82 3822.06 4059.98L3770.33 4268.95L4080.67 4448.15L4391.13 4268.95L4344.16 3883.83Z" fill="#1C6ED0"/>
<path opacity="0.25" d="M3610.41 3883.71C3684.61 3937.94 3755.3 3996.82 3822.06 4059.98L4132.27 3881.27L3925.5 3643.88L3818.88 3582.89H3615.29L3667.01 3851.26L3511.11 3940.8L3610.41 3883.71Z" fill="white"/>
<path d="M3851.09 3658.77C3983.2 3737.57 4131.66 3880.9 4131.66 3880.9L4079.94 4089.87L4391.13 4268.95L4344.4 3883.83L3403.03 3343.55L3357.04 3671.94L3667.37 3851.02L3615.65 3582.65C3699.02 3589.18 3779.67 3615.26 3851.09 3658.77Z" fill="#1C6ED0"/>
<path opacity="0.6" d="M3851.09 3658.77C3983.2 3737.57 4131.66 3880.9 4131.66 3880.9L4079.94 4089.87L4391.13 4268.95L4344.4 3883.83L3403.03 3343.55L3357.04 3671.94L3667.37 3851.02L3615.65 3582.65C3699.02 3589.18 3779.67 3615.26 3851.09 3658.77Z" fill="white"/>
<path opacity="0.35" d="M3770.33 4268.95L4080.55 4089.87L4132.27 3880.91L3822.05 4059.98L3770.33 4268.95Z" fill="white"/>
<path opacity="0.45" d="M4390.88 4268.95L4080.55 4089.87L3770.33 4268.95L4080.67 4448.15L4390.88 4268.95Z" fill="white"/>
<path opacity="0.45" d="M3667.01 3851.02L3356.68 3671.94L3046.46 3851.02L3356.68 4030.22L3667.01 3851.02Z" fill="white"/>
<path d="M2943.01 3492.86L3046.46 3134.59L2891.29 3224.12L2736.25 3612.17L2943.01 3492.86Z" fill="#455A64"/>
<path d="M3624.19 1166.69L3385.46 13.1758L3378.15 17.4453L3605.53 1170.47C3611.69 1209.73 3608.77 1249.87 3596.99 1287.82L3041.7 2926.6L2962.66 3063.96L3065.98 3004.18V2914.64L3614.92 1294.53C3627.91 1253.22 3631.09 1209.44 3624.19 1166.69Z" fill="#455A64"/>
<path d="M4782.34 2404.49C4781.8 2404.51 4781.27 2404.38 4780.8 2404.12C4780.33 2403.86 4779.94 2403.49 4779.66 2403.03L3591.5 616.645C3591.23 616.302 3591.04 615.908 3590.93 615.486C3590.82 615.065 3590.8 614.625 3590.86 614.194C3590.93 613.764 3591.09 613.352 3591.32 612.985C3591.55 612.617 3591.86 612.301 3592.22 612.058C3592.58 611.814 3592.99 611.648 3593.42 611.568C3593.85 611.489 3594.29 611.499 3594.71 611.598C3595.14 611.696 3595.54 611.881 3595.89 612.141C3596.24 612.401 3596.53 612.73 3596.75 613.108L4784.9 2399.49C4785.37 2400.19 4785.54 2401.04 4785.38 2401.86C4785.22 2402.68 4784.74 2403.41 4784.05 2403.88C4783.56 2404.26 4782.96 2404.47 4782.34 2404.49Z" fill="#E0E0E0"/>
<path d="M5117.07 2379.36C5116.61 2379.36 5116.16 2379.26 5115.74 2379.07C5115.32 2378.89 5114.94 2378.61 5114.63 2378.27L3577.59 545.651C3577.32 545.33 3577.12 544.959 3576.99 544.559C3576.86 544.159 3576.81 543.737 3576.84 543.318C3576.88 542.899 3576.99 542.491 3577.18 542.117C3577.38 541.742 3577.64 541.41 3577.96 541.137C3578.28 540.865 3578.65 540.658 3579.05 540.529C3579.45 540.4 3579.87 540.351 3580.29 540.385C3580.71 540.419 3581.12 540.536 3581.49 540.727C3581.87 540.919 3582.2 541.183 3582.47 541.503L5119.51 2374.24C5119.81 2374.53 5120.04 2374.87 5120.2 2375.24C5120.36 2375.62 5120.45 2376.03 5120.45 2376.44C5120.45 2376.85 5120.36 2377.25 5120.2 2377.63C5120.04 2378.01 5119.81 2378.35 5119.51 2378.63C5119.18 2378.91 5118.79 2379.12 5118.37 2379.24C5117.95 2379.37 5117.51 2379.41 5117.07 2379.36Z" fill="#E0E0E0"/>
<path d="M5464.62 2372.41C5463.79 2372.37 5463 2372.03 5462.42 2371.44L3562.47 474.41C3562.18 474.122 3561.95 473.78 3561.79 473.403C3561.64 473.026 3561.56 472.623 3561.56 472.215C3561.56 471.807 3561.64 471.403 3561.79 471.026C3561.95 470.65 3562.18 470.307 3562.47 470.019C3562.76 469.731 3563.1 469.502 3563.48 469.346C3563.85 469.19 3564.26 469.109 3564.66 469.109C3565.07 469.109 3565.48 469.19 3565.85 469.346C3566.23 469.502 3566.57 469.731 3566.86 470.019L5467.3 2366.92C5467.87 2367.53 5468.19 2368.34 5468.19 2369.18C5468.19 2370.02 5467.87 2370.82 5467.3 2371.44C5466.95 2371.79 5466.53 2372.06 5466.07 2372.23C5465.6 2372.4 5465.11 2372.46 5464.62 2372.41Z" fill="#E0E0E0"/>
<path d="M5686.02 2246.64L3551.98 398.41C3551.69 398.115 3551.35 397.88 3550.97 397.72C3550.6 397.559 3550.19 397.477 3549.78 397.477C3549.37 397.477 3548.96 397.559 3548.59 397.72C3548.21 397.88 3547.87 398.115 3547.58 398.41C3547.29 398.705 3547.05 399.056 3546.89 399.444C3546.72 399.831 3546.64 400.247 3546.64 400.667C3546.64 401.087 3546.72 401.502 3546.89 401.89C3547.05 402.277 3547.29 402.628 3547.58 402.923L5686.02 2255.54V2246.64Z" fill="#E0E0E0"/>
<path d="M5686.02 1982.9L3537.22 326.924C3536.54 326.407 3535.68 326.18 3534.83 326.295C3533.99 326.409 3533.22 326.855 3532.7 327.534C3532.18 328.214 3531.96 329.071 3532.07 329.918C3532.19 330.764 3532.63 331.53 3533.31 332.048L5686.02 1990.47V1982.9Z" fill="#E0E0E0"/>
<path d="M5686.03 1765.89L3522.21 255.565C3521.88 255.311 3521.5 255.129 3521.1 255.028C3520.69 254.927 3520.27 254.91 3519.86 254.979C3519.45 255.048 3519.05 255.2 3518.7 255.427C3518.35 255.653 3518.05 255.95 3517.82 256.297C3517.37 256.988 3517.2 257.822 3517.33 258.635C3517.47 259.448 3517.9 260.181 3518.55 260.689L5686.03 1773.33V1765.89Z" fill="#E0E0E0"/>
<path d="M5686.02 1580.83L3507.45 184.079C3507.1 183.853 3506.71 183.7 3506.29 183.627C3505.88 183.554 3505.46 183.563 3505.05 183.654C3504.64 183.744 3504.26 183.915 3503.92 184.155C3503.57 184.396 3503.28 184.702 3503.06 185.055C3502.82 185.402 3502.65 185.795 3502.57 186.21C3502.48 186.625 3502.49 187.052 3502.58 187.465C3502.67 187.879 3502.85 188.268 3503.1 188.609C3503.35 188.95 3503.67 189.235 3504.04 189.446L5686.02 1587.91V1580.83Z" fill="#E0E0E0"/>
<path d="M5686.02 1418.35L3492.57 113.084C3492.21 112.846 3491.81 112.686 3491.39 112.612C3490.97 112.539 3490.54 112.554 3490.13 112.657C3489.71 112.761 3489.33 112.95 3488.99 113.213C3488.65 113.475 3488.38 113.806 3488.18 114.182C3487.77 114.897 3487.66 115.742 3487.86 116.539C3488.07 117.335 3488.57 118.021 3489.27 118.452L5686.02 1426.16V1418.35Z" fill="#E0E0E0"/>
<path d="M5684.19 2363.75C4973.86 2363.75 4239.38 2363.75 3587.72 2737.4L3547.34 2760.7L3544.78 2772.9L3585.4 2749.47V2809.61H3594.92V2744.35C3662.87 2705.56 3731.67 2671.16 3801.2 2639.81V2699.09H3810.84V2635.66C3890.94 2600.23 3972.87 2569.08 4056.27 2542.34V2602.48H4065.79V2539.41C4148.9 2513.06 4232.75 2490.62 4317.33 2472.07V2535.26H4326.84V2469.88C4407.84 2452.31 4489.57 2437.8 4571.55 2426.09V2488.91H4581.19V2424.74C4667.92 2412.54 4755.14 2403.15 4842.73 2396.08V2459.88H4852.24V2395.22C4940.93 2388.27 5029.85 2383.02 5118.78 2380.22V2443.04H5128.3V2379.85C5223.69 2376.56 5319.21 2374.85 5414.48 2374V2437.92H5424V2374C5510.97 2373.26 5597.71 2373.26 5684.19 2373.26V2363.75Z" fill="#455A64"/>
<path d="M4158.38 3119.7C4545.93 2895.98 5033.88 2895.98 5683.22 2895.98V2418.28C4971.3 2418.28 4234.25 2421.45 3589.18 2791.31L3533.31 2823.64L3523.07 2872.44L3589.18 2910.62L4158.38 3119.7Z" fill="#1C6ED0"/>
<path opacity="0.45" d="M4158.38 3119.7C4545.93 2895.98 5033.88 2895.98 5683.22 2895.98V2418.28C4971.3 2418.28 4234.25 2421.45 3589.18 2791.31L3533.31 2823.64L3523.07 2872.44L3589.18 2910.62L4158.38 3119.7Z" fill="white"/>
<path d="M4158.38 3239.13C4545.93 3015.16 5033.88 3015.16 5684.19 3015.16V2537.7C4972.28 2537.7 4235.23 2540.88 3590.16 2910.74L4158.38 3239.13Z" fill="#1C6ED0"/>
<path opacity="0.25" d="M4158.38 3239.13C4545.93 3015.16 5033.88 3015.16 5684.19 3015.16V2537.7C4972.28 2537.7 4235.23 2540.88 3590.16 2910.74L4158.38 3239.13Z" fill="white"/>
<path d="M5606.36 3927.99C5560.82 3978.66 5512.52 4027.9 5461.44 4075.72C5440.34 4095.61 5418.63 4115.25 5396.55 4134.4C4810.4 4646.74 3905.98 4976.11 2891.41 4976.11C1901.37 4976.11 1016.1 4662.97 429.1 4170.99C406.289 4152.09 384.209 4132.69 362.495 4113.17C291.115 4049.53 223.655 3981.62 160.484 3909.82C180.856 3901.52 201.716 3893.23 222.576 3885.42C582.195 3746.23 996.952 3641.45 1439.64 3570.82C1522.84 3557.56 1607.01 3545.36 1692.16 3534.22C2532.28 3427.24 3450.97 3438.83 4274.02 3569.11C4368.6 3583.99 4461.72 3600.5 4553.37 3618.64C4894.32 3685.85 5214.05 3774.66 5499.26 3885.06C5536.1 3898.8 5571.8 3913.11 5606.36 3927.99Z" fill="#455A64"/>
<path d="M1692.64 3443.09V3534.34L429.1 4170.99C406.288 4152.08 384.209 4132.69 362.495 4113.17C291.115 4049.53 223.654 3981.62 160.484 3909.82C139.339 3885.91 119.008 3861.75 99.4902 3837.36C148.285 3820.16 202.691 3801.74 222.575 3794.05C649.531 3628.51 1155.17 3511.65 1692.52 3443.22L1692.64 3443.09Z" fill="#37474F"/>
<path d="M1692.64 3443.09V3534.34L429.099 4170.99C406.288 4152.08 384.208 4132.69 362.494 4113.17L1439.64 3570.57L1692.28 3443.22L1692.64 3443.09Z" fill="#263238"/>
<path d="M4090.31 3443.09V3534.34L5353.49 4170.87C5376.18 4151.96 5398.38 4132.57 5420.09 4113.05C5491.47 4049.4 5558.93 3981.5 5622.1 3909.7C5643.25 3885.79 5663.58 3861.63 5683.1 3837.24C5634.3 3820.03 5579.89 3801.61 5560.01 3793.93C5133.06 3628.39 4627.3 3511.53 4089.94 3443.09H4090.31Z" fill="#37474F"/>
<path d="M4090.31 3443.09V3534.34L5353.48 4170.87C5376.17 4151.96 5398.38 4132.57 5420.09 4113.05L4342.94 3570.45L4090.18 3443.09H4090.31Z" fill="#263238"/>
<path d="M527.422 3315.13C535.134 3314.33 542.913 3315.73 549.868 3319.15C562.876 3326.61 575.132 3335.32 586.464 3345.14C597.935 3355.01 612.152 3361.14 627.208 3362.7C634.706 3363.28 642.173 3361.25 648.35 3356.96C654.528 3352.67 659.038 3346.39 661.12 3339.16C661.261 3336.53 661.925 3333.96 663.072 3331.6C664.507 3329.84 666.455 3328.58 668.643 3327.99C670.83 3327.4 673.148 3327.51 675.271 3328.3C679.579 3330.22 683.669 3332.59 687.469 3335.38C703.717 3342.65 721.951 3344.2 739.192 3339.77C753.709 3337.7 772.007 3331.23 771.885 3316.59C771.885 3307.08 763.467 3300 757.002 3293.05C750.537 3286.1 744.803 3274.99 751.025 3267.55C753.259 3265.02 756.185 3263.2 759.442 3262.31C777.618 3256.45 799.82 3264.38 815.19 3252.91C820.598 3248.31 824.323 3242.03 825.78 3235.08C827.237 3228.12 826.344 3220.88 823.241 3214.49C819.862 3208.29 815.178 3202.9 809.513 3198.69C803.848 3194.47 797.336 3191.54 790.427 3190.09C778.228 3187.04 762.858 3185.58 758.222 3173.87C753.587 3162.16 762.248 3152.52 771.275 3146.18C781.115 3141.14 789.993 3134.41 797.502 3126.29C800.592 3121.48 802.305 3115.91 802.455 3110.19C802.606 3104.47 801.188 3098.81 798.356 3093.84C795.434 3088.92 791.477 3084.69 786.759 3081.45C782.041 3078.2 776.674 3076.02 771.031 3075.06C765.35 3074.66 759.759 3073.43 754.44 3071.4C751.806 3070.33 749.685 3068.29 748.525 3065.7C747.365 3063.11 747.255 3060.16 748.219 3057.49C749.927 3054.44 753.343 3052.86 755.416 3050.17C756.911 3047.18 757.227 3043.74 756.3 3040.53C755.373 3037.32 753.272 3034.58 750.415 3032.85C744.639 3029.54 738.383 3027.16 731.873 3025.77C718.82 3021.38 711.989 3014.43 715.892 3001.38C719.796 2988.32 738.704 2988.45 744.316 2975.15C749.927 2961.85 735.532 2938.55 725.042 2931.11C713.809 2925.01 702.101 2919.83 690.031 2915.62C684.013 2913.4 678.671 2909.66 674.525 2904.76C670.378 2899.87 667.567 2893.99 666.366 2887.68C665.39 2874.63 675.271 2863.29 683.2 2853.28C691.129 2843.28 697.96 2828.89 691.007 2817.3C684.054 2805.71 670.513 2805.34 658.314 2801.44C650.957 2799.03 644.194 2795.09 638.474 2789.88C632.753 2784.66 628.207 2778.29 625.134 2771.19C621.962 2763.75 620.376 2755.69 616.595 2748.62C604.396 2726.66 574.753 2717.02 551.576 2719.71C546.899 2720.04 542.394 2721.6 538.517 2724.24C534.639 2726.87 531.527 2730.49 529.496 2734.71C525.612 2739.06 522.848 2744.3 521.445 2749.96C519.737 2760.57 525.348 2774.36 515.345 2782.17C500.097 2794.36 476.797 2777.9 477.651 2805.47C477.584 2817.09 479.312 2828.65 482.775 2839.74C486.922 2851.33 494.973 2856.33 488.264 2869.26C479.359 2886.1 473.504 2885.98 455.572 2885.98C442.641 2885.98 431.174 2885.24 422.269 2895.13C405.557 2912.33 415.438 2928.06 430.32 2941.36C447.276 2956.49 438.249 2963.19 436.054 2982.83C435.078 2992.23 437.151 2995.03 428.734 3001.38C412.754 3013.58 404.337 3009.31 408.24 3032.48C412.388 3053.71 406.045 3046.51 387.747 3054.32C371.4 3061.39 360.665 3078.72 347.369 3089.94C338.952 3096.89 326.021 3102.14 325.167 3114.34C323.703 3138 353.102 3132.88 367.009 3138.73C389.942 3148.01 383.111 3177.89 365.301 3189.12C347.491 3200.34 318.824 3205.34 317.36 3232.54C316.14 3253.28 327.973 3257.92 344.075 3264.87C357.006 3270.36 355.298 3271.94 355.298 3287.31C355.298 3318.3 365.667 3327.08 396.286 3322.08C405.818 3319.28 415.821 3318.45 425.685 3319.64C437.883 3323.18 433.492 3325.98 433.736 3335.74C434.59 3360.75 463.745 3353.8 476.065 3343.06C488.386 3332.33 508.148 3316.96 527.422 3315.13Z" fill="#1C6ED0"/>
<g opacity="0.15">
<path d="M760.296 3262.31C774.202 3257.79 790.549 3261.33 804.333 3258.16C796.313 3256.24 788.156 3254.93 779.936 3254.26C770.066 3253.83 760.217 3255.49 751.031 3259.12C741.846 3262.76 733.53 3268.29 726.627 3275.36C733.977 3284.35 737.794 3295.71 737.362 3307.32C702.718 3316.71 668.683 3270.72 635.747 3284.39C637.699 3301.22 635.747 3323.67 619.522 3327.33C614.612 3327.85 609.651 3326.99 605.208 3324.83C600.765 3322.67 597.017 3319.31 594.393 3315.13C588.416 3307.32 584.756 3297.93 578.779 3290.12C570.397 3280 558.559 3273.35 545.556 3271.46C532.554 3269.56 519.311 3272.56 508.392 3279.87C503.269 3283.53 497.779 3289.51 490.948 3288.53C488.281 3288.24 485.784 3287.08 483.843 3285.23C481.902 3283.38 480.627 3280.94 480.213 3278.29C480.213 3271.33 485.336 3266.09 488.996 3259.87C492.681 3253.51 494.802 3246.37 495.184 3239.03C495.566 3231.69 494.198 3224.36 491.192 3217.66C484.953 3204.35 474.775 3193.28 462.037 3185.94C451.302 3179.11 437.639 3172.16 436.541 3159.47C435.444 3146.78 444.593 3139.22 445.935 3128.36C445.729 3117.8 442.232 3107.57 435.932 3099.09C431.463 3092.31 429.01 3084.4 428.856 3076.28C428.877 3073.42 429.081 3070.57 429.466 3067.74C431.174 3058.59 445.691 3057.61 451.546 3052.37C463.745 3042 454.23 3022.6 457.523 3007.23C459.841 2996.37 468.624 2987.96 471.552 2977.22C477.407 2955.75 457.889 2935.5 437.517 2926.72C429.445 2923.94 421.678 2920.35 414.34 2915.98H413.608C415.729 2926.43 421.693 2935.7 430.32 2941.97C447.276 2957.09 438.249 2963.8 436.054 2983.44C435.078 2992.84 437.151 2995.64 428.734 3001.99C412.754 3014.18 404.337 3009.91 408.24 3033.09C412.388 3054.32 406.045 3047.12 387.747 3054.93C371.4 3062 360.665 3079.33 347.369 3090.55C338.952 3097.5 326.021 3102.75 325.167 3114.95C323.703 3138.61 353.102 3133.49 367.009 3139.34C389.942 3148.61 383.111 3178.5 365.301 3189.72C347.491 3200.95 318.824 3205.95 317.36 3233.15C316.14 3253.89 327.973 3258.52 344.075 3265.48C357.006 3270.97 355.298 3272.55 355.298 3287.92C355.298 3318.91 365.667 3327.69 396.286 3322.69C405.818 3319.89 415.821 3319.06 425.685 3320.25C437.883 3323.79 433.492 3326.59 433.736 3336.35C434.59 3361.36 463.745 3354.41 476.065 3343.67C488.386 3332.94 508.148 3316.96 527.422 3315.13C535.134 3314.33 542.913 3315.73 549.868 3319.15C562.876 3326.61 575.132 3335.31 586.464 3345.14C597.935 3355.01 612.152 3361.14 627.208 3362.7C634.706 3363.28 642.173 3361.25 648.35 3356.96C654.528 3352.67 659.038 3346.38 661.12 3339.16C661.261 3336.53 661.925 3333.96 663.072 3331.6C664.507 3329.84 666.455 3328.58 668.643 3327.99C670.83 3327.4 673.148 3327.51 675.271 3328.3C679.579 3330.22 683.669 3332.59 687.469 3335.38C703.717 3342.65 721.951 3344.2 739.192 3339.77C753.709 3337.69 772.007 3331.23 771.885 3316.59C771.885 3307.08 763.467 3300 757.002 3293.05C750.537 3286.09 744.803 3274.99 751.025 3267.55C753.487 3264.87 756.731 3263.04 760.296 3262.31Z" fill="black"/>
</g>
<path d="M479.725 3059.93L563.042 3225.22V3149.35L571.581 2825.59L583.78 3149.35V3200.58L675.392 3040.41L583.902 3236.69V3797.1C583.813 3798.02 583.484 3798.89 582.949 3799.64C582.414 3800.39 581.691 3800.99 580.852 3801.37C578.559 3802.51 576.033 3803.1 573.472 3803.1C570.911 3803.1 568.385 3802.51 566.092 3801.37C565.267 3800.97 564.556 3800.37 564.024 3799.62C563.491 3798.88 563.153 3798.01 563.042 3797.1V3267.31L479.725 3059.93Z" fill="#37474F"/>
<path d="M515.101 3836.26C539.498 3840.16 560.358 3833.58 563.896 3807.71C566.884 3786.51 566.884 3765 563.896 3743.79C562.798 3736.11 560.114 3727.08 552.673 3725.01C549.511 3724.52 546.276 3725.11 543.489 3726.68C540.702 3728.25 538.523 3730.71 537.302 3733.67C534.942 3739.63 534.022 3746.07 534.619 3752.45C530.837 3744.04 525.226 3734.4 516.077 3734.28C511.85 3734.71 507.942 3736.72 505.137 3739.91C502.332 3743.1 500.836 3747.23 500.95 3751.48C501.297 3760.15 503.95 3768.57 508.635 3775.88C505.52 3775.03 502.261 3774.84 499.068 3775.32C495.875 3775.8 492.818 3776.95 490.093 3778.68C487.463 3781.55 485.945 3785.27 485.81 3789.16C485.676 3793.05 486.935 3796.86 489.361 3799.91C494.423 3805.86 500.876 3810.47 508.147 3813.33C507.05 3812.85 505.862 3812.61 504.665 3812.63C503.468 3812.66 502.289 3812.94 501.212 3813.46C500.134 3813.98 499.181 3814.73 498.42 3815.65C497.659 3816.58 497.107 3817.66 496.803 3818.82C496.306 3821.18 496.489 3823.64 497.331 3825.91C498.173 3828.17 499.639 3830.16 501.56 3831.62C505.592 3834.32 510.26 3835.92 515.101 3836.26Z" fill="#455A64"/>
<path d="M556.577 3846.51L613.545 3813.57C618.35 3810.32 622.491 3806.18 625.744 3801.37C629.305 3797.14 631.701 3792.05 632.697 3786.61C633.43 3784.81 633.43 3782.8 632.697 3781C630.624 3778.07 625.866 3779.05 623.06 3781C620.255 3782.95 618.181 3785.64 615.375 3788.69C616.473 3782.16 616.841 3775.53 616.473 3768.92C616.541 3767.72 616.36 3766.51 615.94 3765.38C615.521 3764.24 614.871 3763.21 614.033 3762.34C612.857 3761.56 611.478 3761.15 610.069 3761.15C608.659 3761.15 607.281 3761.56 606.104 3762.34C599.152 3767.43 594.398 3774.97 592.807 3783.44C594.153 3775.05 593.904 3766.49 592.076 3758.19C590.124 3749.28 579.877 3745.99 576.339 3754.29C574.648 3758.92 573.621 3763.76 573.289 3768.68C572.698 3775.01 573.151 3781.4 574.631 3787.59C571.127 3779.54 565.925 3772.34 559.383 3766.48C558.295 3765.28 556.919 3764.36 555.383 3763.83C553.848 3763.3 552.202 3763.16 550.6 3763.43C547.062 3764.9 546.452 3769.66 546.818 3773.44C547.554 3781.58 550.186 3789.43 554.503 3796.37C548.684 3792.54 542.112 3790.01 535.229 3788.93C534.152 3788.62 533.007 3788.64 531.942 3788.99C530.876 3789.34 529.94 3790 529.252 3790.88C528.705 3792.19 528.53 3793.62 528.745 3795.02C528.961 3796.42 529.558 3797.73 530.472 3798.81C534.546 3804.59 539.781 3809.45 545.842 3813.08C539.81 3811.21 533.467 3810.55 527.178 3811.13C526.243 3811.09 525.31 3811.25 524.445 3811.61C523.58 3811.97 522.806 3812.51 522.177 3813.21C520.591 3815.52 522.177 3818.7 524.495 3820.77C528.614 3823.97 533.123 3826.63 537.913 3828.7C535.083 3828.53 532.25 3828.98 529.618 3830.04C528.331 3830.62 527.261 3831.6 526.56 3832.82C525.859 3834.05 525.563 3835.47 525.714 3836.87C526.212 3838.19 527.031 3839.35 528.097 3840.27C529.162 3841.19 530.44 3841.82 531.814 3842.12C539.379 3846.21 548.065 3847.75 556.577 3846.51Z" fill="#1C6ED0"/>
<path d="M209.888 3379.05C217.647 3378.37 225.445 3379.8 232.456 3383.2C245.472 3390.65 257.729 3399.35 269.052 3409.18C280.477 3419.05 294.655 3425.18 309.674 3426.75C317.183 3427.29 324.652 3425.24 330.827 3420.93C337.001 3416.62 341.506 3410.32 343.586 3403.08C343.786 3400.5 344.447 3397.98 345.538 3395.64C346.999 3393.74 349.053 3392.38 351.375 3391.79C353.696 3391.19 356.15 3391.39 358.346 3392.35C362.652 3394.27 366.741 3396.64 370.545 3399.42C386.764 3406.64 404.94 3408.18 422.146 3403.81C436.662 3401.74 454.96 3395.27 454.96 3380.64C454.96 3371 446.543 3363.92 439.956 3357.09C433.369 3350.26 427.757 3338.92 434.101 3331.47C436.351 3329.05 439.218 3327.28 442.396 3326.35C460.572 3320.5 482.774 3328.3 498.144 3316.96C503.552 3312.35 507.276 3306.07 508.734 3299.12C510.191 3292.17 509.298 3284.92 506.195 3278.53C502.829 3272.35 498.164 3266.96 492.521 3262.75C486.877 3258.54 480.39 3255.6 473.503 3254.13C461.304 3250.96 445.811 3249.62 441.298 3237.91C436.784 3226.2 445.323 3216.44 454.351 3210.1C464.142 3205.09 472.978 3198.4 480.456 3190.33C483.564 3185.53 485.299 3179.97 485.471 3174.25C485.643 3168.53 484.246 3162.87 481.432 3157.89C478.484 3152.96 474.504 3148.73 469.766 3145.49C465.028 3142.24 459.644 3140.06 453.985 3139.1C448.317 3138.62 442.737 3137.39 437.394 3135.44C434.773 3134.33 432.678 3132.26 431.543 3129.64C430.407 3127.03 430.319 3124.09 431.295 3121.41C432.881 3118.48 436.418 3116.9 438.37 3114.09C439.869 3111.14 440.199 3107.73 439.295 3104.54C438.39 3101.35 436.318 3098.62 433.491 3096.89C427.714 3093.59 421.459 3091.2 414.949 3089.82C401.774 3085.43 395.065 3078.35 398.968 3065.42C402.872 3052.49 421.658 3052.61 427.269 3039.31C432.881 3026.02 418.608 3002.72 407.995 2995.28C396.934 2988.83 385.393 2983.24 373.473 2978.56C367.438 2976.41 362.076 2972.7 357.923 2967.82C353.77 2962.94 350.971 2957.05 349.807 2950.75C348.831 2937.7 358.59 2926.35 366.642 2916.35C374.693 2906.35 381.402 2891.95 374.449 2880.37C367.496 2868.78 353.345 2868.78 341.146 2865.48C333.842 2863.11 327.121 2859.22 321.424 2854.07C315.727 2848.92 311.183 2842.62 308.088 2835.6C304.916 2828.28 303.33 2820.23 299.549 2813.15C287.35 2791.19 257.707 2781.56 234.529 2784.24C229.846 2784.55 225.33 2786.1 221.449 2788.74C217.567 2791.38 214.46 2795 212.45 2799.24C208.519 2803.56 205.749 2808.81 204.398 2814.49C202.569 2825.1 208.18 2838.89 198.177 2846.7C183.051 2858.9 159.629 2842.43 160.483 2870C160.536 2881.61 162.261 2893.15 165.607 2904.27C169.754 2915.86 177.805 2920.86 171.218 2933.8C162.191 2950.63 156.457 2950.51 138.525 2950.51C125.473 2950.51 114.738 2949.78 105.223 2959.53C88.5105 2976.86 98.3915 2992.47 113.274 3005.89C130.108 3021.02 121.203 3027.6 119.007 3047.24C117.909 3056.76 120.105 3059.44 111.566 3065.91C95.5858 3078.11 87.1686 3073.71 91.1942 3097.01C95.3418 3118.24 88.9985 3110.92 70.5784 3118.85C54.3541 3125.93 43.4972 3143.25 30.3226 3154.35C21.9054 3161.42 8.85278 3166.55 8.12086 3178.75C6.53502 3202.41 35.934 3197.17 49.9625 3203.14C72.7741 3212.29 66.0648 3242.3 48.1327 3253.52C30.2006 3264.75 1.77752 3269.75 0.191684 3296.83C-0.906203 3317.69 10.9266 3322.2 27.0289 3329.16C39.8376 3334.77 38.2517 3336.35 38.2517 3351.72C38.2517 3382.71 48.6207 3391.49 79.1175 3386.37C88.7101 3383.66 98.7414 3382.88 108.638 3384.05C120.837 3387.47 116.324 3390.39 116.69 3400.15C117.544 3425.16 146.576 3418.09 159.019 3407.35C171.462 3396.62 190.614 3381.12 209.888 3379.05Z" fill="#1C6ED0"/>
<g opacity="0.3">
<path d="M209.888 3379.05C217.647 3378.37 225.445 3379.8 232.456 3383.2C245.472 3390.65 257.729 3399.35 269.052 3409.18C280.477 3419.05 294.655 3425.18 309.674 3426.75C317.183 3427.29 324.652 3425.24 330.827 3420.93C337.001 3416.62 341.506 3410.32 343.586 3403.08C343.786 3400.5 344.447 3397.98 345.538 3395.64C346.999 3393.74 349.053 3392.38 351.375 3391.79C353.696 3391.19 356.15 3391.39 358.346 3392.35C362.652 3394.27 366.741 3396.64 370.545 3399.42C386.764 3406.64 404.94 3408.18 422.146 3403.81C436.662 3401.74 454.96 3395.27 454.96 3380.64C454.96 3371 446.543 3363.92 439.956 3357.09C433.369 3350.26 427.757 3338.92 434.101 3331.47C436.351 3329.05 439.218 3327.28 442.396 3326.35C460.572 3320.5 482.774 3328.3 498.144 3316.96C503.552 3312.35 507.276 3306.07 508.734 3299.12C510.191 3292.17 509.298 3284.92 506.195 3278.53C502.829 3272.35 498.164 3266.96 492.521 3262.75C486.877 3258.54 480.39 3255.6 473.503 3254.13C461.304 3250.96 445.811 3249.62 441.298 3237.91C436.784 3226.2 445.323 3216.44 454.351 3210.1C464.142 3205.09 472.978 3198.4 480.456 3190.33C483.564 3185.53 485.299 3179.97 485.471 3174.25C485.643 3168.53 484.246 3162.87 481.432 3157.89C478.484 3152.96 474.504 3148.73 469.766 3145.49C465.028 3142.24 459.644 3140.06 453.985 3139.1C448.317 3138.62 442.737 3137.39 437.394 3135.44C434.773 3134.33 432.678 3132.26 431.543 3129.64C430.407 3127.03 430.319 3124.09 431.295 3121.41C432.881 3118.48 436.418 3116.9 438.37 3114.09C439.869 3111.14 440.199 3107.73 439.295 3104.54C438.39 3101.35 436.318 3098.62 433.491 3096.89C427.714 3093.59 421.459 3091.2 414.949 3089.82C401.774 3085.43 395.065 3078.35 398.968 3065.42C402.872 3052.49 421.658 3052.61 427.269 3039.31C432.881 3026.02 418.608 3002.72 407.995 2995.28C396.934 2988.83 385.393 2983.24 373.473 2978.56C367.438 2976.41 362.076 2972.7 357.923 2967.82C353.77 2962.94 350.971 2957.05 349.807 2950.75C348.831 2937.7 358.59 2926.35 366.642 2916.35C374.693 2906.35 381.402 2891.95 374.449 2880.37C367.496 2868.78 353.345 2868.78 341.146 2865.48C333.842 2863.11 327.121 2859.22 321.424 2854.07C315.727 2848.92 311.183 2842.62 308.088 2835.6C304.916 2828.28 303.33 2820.23 299.549 2813.15C287.35 2791.19 257.707 2781.56 234.529 2784.24C229.846 2784.55 225.33 2786.1 221.449 2788.74C217.567 2791.38 214.46 2795 212.45 2799.24C208.519 2803.56 205.749 2808.81 204.398 2814.49C202.569 2825.1 208.18 2838.89 198.177 2846.7C183.051 2858.9 159.629 2842.43 160.483 2870C160.536 2881.61 162.261 2893.15 165.607 2904.27C169.754 2915.86 177.805 2920.86 171.218 2933.8C162.191 2950.63 156.457 2950.51 138.525 2950.51C125.473 2950.51 114.738 2949.78 105.223 2959.53C88.5105 2976.86 98.3915 2992.47 113.274 3005.89C130.108 3021.02 121.203 3027.6 119.007 3047.24C117.909 3056.76 120.105 3059.44 111.566 3065.91C95.5858 3078.11 87.1686 3073.71 91.1942 3097.01C95.3418 3118.24 88.9985 3110.92 70.5784 3118.85C54.3541 3125.93 43.4972 3143.25 30.3226 3154.35C21.9054 3161.42 8.85278 3166.55 8.12086 3178.75C6.53502 3202.41 35.934 3197.17 49.9625 3203.14C72.7741 3212.29 66.0648 3242.3 48.1327 3253.52C30.2006 3264.75 1.77752 3269.75 0.191684 3296.83C-0.906203 3317.69 10.9266 3322.2 27.0289 3329.16C39.8376 3334.77 38.2517 3336.35 38.2517 3351.72C38.2517 3382.71 48.6207 3391.49 79.1175 3386.37C88.7101 3383.66 98.7414 3382.88 108.638 3384.05C120.837 3387.47 116.324 3390.39 116.69 3400.15C117.544 3425.16 146.576 3418.09 159.019 3407.35C171.462 3396.62 190.614 3381.12 209.888 3379.05Z" fill="white"/>
</g>
<g opacity="0.45">
<path d="M442.763 3326.35C456.791 3321.84 473.137 3325.38 486.8 3322.2C478.781 3320.27 470.624 3318.97 462.403 3318.3C452.544 3317.81 442.695 3319.44 433.52 3323.08C424.345 3326.72 416.058 3332.29 409.216 3339.4C416.435 3348.46 420.196 3359.79 419.829 3371.37C385.307 3380.76 351.272 3334.77 318.214 3348.43C320.287 3365.14 318.214 3387.71 301.989 3391.37C297.08 3391.88 292.125 3391.01 287.684 3388.86C283.244 3386.7 279.495 3383.35 276.86 3379.17C270.882 3371.37 267.345 3361.97 261.245 3354.17C252.901 3344.03 241.082 3337.37 228.092 3335.47C215.102 3333.58 201.872 3336.59 190.981 3343.92C181.954 3350.38 170.853 3360.14 161.948 3353.68C153.043 3347.21 158.166 3327.94 147.553 3322.69C140.478 3319.15 130.597 3324.64 124.742 3319.52C122.542 3317.12 121.136 3314.09 120.716 3310.86C116.569 3293.17 112.909 3272.68 124.01 3258.41C135.111 3244.13 154.873 3237.79 152.677 3221.81C150.725 3208.15 133.281 3204 119.618 3202.41C105.956 3200.83 88.5114 3194.36 89.1213 3180.58C89.7313 3166.79 108.151 3160.45 110.835 3147.15C112.055 3141.42 110.103 3134.95 112.665 3129.95C116.69 3122.15 127.791 3121.78 134.379 3116.05C146.577 3105.68 136.94 3086.28 140.356 3070.91C142.674 3060.05 151.457 3051.51 154.385 3040.78C160.118 3019.43 140.722 2999.06 120.35 2990.4C112.279 2987.62 104.513 2984.02 97.1725 2979.66H96.4406C98.3482 2990.43 104.334 3000.04 113.153 3006.5C129.987 3021.63 121.082 3028.21 118.886 3047.85C117.788 3057.37 119.984 3060.05 111.445 3066.52C95.4647 3078.72 87.0476 3074.33 91.0731 3097.63C95.2207 3118.85 88.8774 3111.53 70.4573 3119.46C54.233 3126.54 43.3761 3143.86 30.2015 3154.96C21.7843 3162.04 8.73169 3167.16 7.99976 3179.36C6.41393 3203.02 35.8129 3197.78 49.8414 3203.75C72.6531 3212.9 65.9437 3242.91 48.0116 3254.14C30.0795 3265.36 1.65643 3270.36 0.0705898 3297.44C-1.0273 3318.3 10.8055 3322.81 26.9078 3329.77C39.7165 3335.38 38.1306 3336.97 38.1306 3352.34C38.1306 3383.32 48.4996 3392.1 78.9964 3386.98C88.589 3384.28 98.6203 3383.49 108.517 3384.66C120.716 3388.08 116.203 3391.01 116.568 3400.76C117.422 3425.77 146.455 3418.7 158.898 3407.96C171.341 3397.23 190.859 3381.37 210.133 3379.42C217.892 3378.74 225.69 3380.17 232.7 3383.56C245.716 3391.01 257.973 3399.71 269.297 3409.55C280.721 3419.42 294.9 3425.55 309.918 3427.11C317.428 3427.66 324.897 3425.6 331.072 3421.3C337.246 3416.99 341.751 3410.68 343.831 3403.45C344.031 3400.87 344.692 3398.35 345.783 3396.01C347.244 3394.11 349.298 3392.75 351.62 3392.15C353.941 3391.56 356.395 3391.75 358.591 3392.71C362.897 3394.63 366.986 3397 370.79 3399.79C387.009 3407 405.185 3408.55 422.391 3404.18C436.907 3402.11 455.205 3395.64 455.205 3381C455.205 3371.37 446.788 3364.29 440.201 3357.46C433.614 3350.63 428.002 3339.28 434.345 3331.84C436.584 3329.26 439.5 3327.36 442.763 3326.35Z" fill="#1C6ED0"/>
</g>
<path d="M162.314 3123.97L245.632 3289.27V3213.15L254.171 2889.27L266.37 3213.15V3264.26L357.86 3104.21L266.37 3300.73V3824.3C266.269 3825.22 265.936 3826.09 265.402 3826.84C264.868 3827.58 264.151 3828.18 263.32 3828.57C261.027 3829.71 258.5 3830.3 255.94 3830.3C253.379 3830.3 250.853 3829.71 248.559 3828.57C247.714 3828.2 246.983 3827.61 246.447 3826.86C245.91 3826.11 245.586 3825.22 245.51 3824.3V3331.35L162.314 3123.97Z" fill="#37474F"/>
<path d="M197.691 3861.14C221.478 3864.92 242.948 3858.34 246.486 3832.47C249.474 3811.27 249.474 3789.76 246.486 3768.55C245.388 3760.87 242.704 3751.84 235.141 3749.89C231.993 3749.39 228.77 3749.96 225.984 3751.51C223.199 3753.06 221.011 3755.49 219.77 3758.43C217.519 3764.42 216.644 3770.84 217.209 3777.21C213.427 3768.92 207.816 3759.28 198.667 3759.04C194.429 3759.47 190.508 3761.47 187.683 3764.66C184.858 3767.85 183.335 3771.98 183.418 3776.24C183.836 3784.92 186.528 3793.33 191.225 3800.64C188.102 3799.8 184.837 3799.62 181.643 3800.13C178.448 3800.63 175.396 3801.8 172.683 3803.56C170.063 3806.42 168.548 3810.11 168.414 3813.98C168.28 3817.85 169.534 3821.64 171.951 3824.67C176.969 3830.61 183.381 3835.22 190.615 3838.09C189.516 3837.63 188.332 3837.41 187.141 3837.44C185.95 3837.47 184.78 3837.76 183.707 3838.28C182.635 3838.8 181.685 3839.54 180.92 3840.45C180.155 3841.36 179.593 3842.43 179.271 3843.58C178.707 3845.95 178.871 3848.45 179.741 3850.73C180.611 3853.01 182.147 3854.98 184.15 3856.38C188.199 3859.07 192.852 3860.7 197.691 3861.14Z" fill="#455A64"/>
<path d="M239.044 3871.27L296.013 3838.33C300.823 3835.08 304.965 3830.94 308.211 3826.13C311.704 3821.86 314.092 3816.79 315.165 3811.37C315.849 3809.56 315.849 3807.57 315.165 3805.76C313.091 3802.71 308.211 3803.68 305.528 3805.76C302.844 3807.83 300.648 3810.27 297.72 3813.32C298.939 3806.81 299.308 3800.17 298.818 3793.56C298.896 3792.36 298.73 3791.16 298.332 3790.03C297.934 3788.9 297.311 3787.86 296.501 3786.97C295.29 3786.23 293.896 3785.83 292.475 3785.83C291.054 3785.83 289.66 3786.23 288.449 3786.97C281.532 3792.02 276.816 3799.53 275.275 3807.95C276.622 3799.61 276.374 3791.08 274.543 3782.83C272.591 3773.8 262.344 3770.63 258.684 3778.8C256.975 3783.42 255.987 3788.27 255.757 3793.19C255.121 3799.52 255.533 3805.91 256.977 3812.1C253.551 3804.07 248.384 3796.91 241.85 3791.12C240.79 3789.87 239.421 3788.92 237.881 3788.37C236.34 3787.81 234.681 3787.67 233.067 3787.95C229.407 3789.41 228.798 3794.17 229.163 3798.07C230.038 3806.2 232.704 3814.03 236.971 3821.01C231.161 3817.14 224.588 3814.56 217.697 3813.44C216.6 3813.14 215.44 3813.17 214.357 3813.51C213.273 3813.86 212.315 3814.51 211.597 3815.4C211.106 3816.72 210.972 3818.15 211.207 3819.54C211.443 3820.93 212.04 3822.24 212.939 3823.32C216.918 3829.18 222.173 3834.06 228.31 3837.6C222.262 3835.8 215.934 3835.14 209.646 3835.65C208.707 3835.57 207.766 3835.72 206.897 3836.08C206.027 3836.44 205.256 3837 204.644 3837.72C202.936 3840.16 204.644 3843.33 206.962 3845.28C210.99 3848.55 215.469 3851.22 220.258 3853.21C217.458 3853.07 214.663 3853.57 212.085 3854.68C210.796 3855.22 209.718 3856.17 209.015 3857.38C208.311 3858.59 208.018 3859.99 208.182 3861.38C208.182 3864.19 211.475 3865.78 214.159 3866.63C221.712 3870.89 230.465 3872.52 239.044 3871.27Z" fill="#1C6ED0"/>
<path opacity="0.1" d="M832.268 4041.2C823.446 4048.86 816.23 4058.2 811.037 4068.67C805.845 4079.14 802.778 4090.53 802.015 4102.19C800.185 4168.19 880.087 4210.88 931.444 4233.21C1000.85 4263.34 1075.39 4279.68 1145.29 4308.35C1229.46 4342.87 1305.46 4393.74 1388.29 4431.31C1464.53 4465.59 1540.53 4482.67 1624.21 4467.91C1652.39 4463.03 1688.99 4446.81 1704.36 4422.77C1747.3 4355.8 1654.71 4279.44 1601.76 4250.77C1548.82 4222.1 1499.42 4188.68 1446.96 4160.01C1359.99 4112.44 1273.01 4060.59 1178.59 4027.9C1094.3 3998.62 1002.68 3985.33 915.219 4003.5C888.636 4008.18 863.401 4018.63 841.295 4034.12C838.145 4036.29 835.13 4038.66 832.268 4041.2Z" fill="black"/>
<path opacity="0.1" d="M1724.36 3867.73C1675.57 3884.2 1631.89 3927.63 1632.02 3979.11C1632.02 4023.63 1664.1 4062.43 1701.06 4087.19C1776.81 4138.06 1872.94 4145.01 1958.33 4177.34C2093.86 4228.69 2197.91 4342.26 2331.98 4396.91C2371.08 4415.08 2414.36 4422.37 2457.26 4418.02C2499.71 4411.67 2540.94 4384.96 2554.85 4344.83C2560.07 4327.24 2561.38 4308.72 2558.68 4290.58C2555.99 4272.43 2549.35 4255.1 2539.24 4239.79C2518.85 4209.57 2493.29 4183.18 2463.73 4161.84C2363.65 4085.36 2255 4020.8 2139.97 3969.47C2015.91 3911.65 1864.77 3820.28 1724.36 3867.73Z" fill="black"/>
<path d="M1059.65 4168.79C1053.55 4143.67 1042.21 4122.93 1037.94 4104.51C1032.17 4082.99 1031.13 4060.47 1034.89 4038.51C1041.31 4004.86 1049.46 3971.55 1059.29 3938.73C1073.31 3893.35 1108.93 3865.53 1207.74 3747.94L1053.06 3710.49C1030.13 3760.99 987.069 3848.82 979.872 3855.29L978.042 3856.87C964.502 3867.61 942.91 3873.46 923.88 3890.66C918.11 3896.13 914.065 3903.17 912.244 3910.91C910.424 3918.64 910.906 3926.75 913.633 3934.21C914.365 3936.29 915.097 3938.48 915.707 3940.8C920.979 3955.5 924.5 3970.77 926.198 3986.3C927.662 4005.45 917.781 4028.27 909.973 4053.27C905.891 4063.33 904.291 4074.23 905.31 4085.03C906.329 4095.84 909.937 4106.25 915.829 4115.36C925.466 4132.56 963.404 4175.14 996.34 4188.56C1048.67 4209.54 1065.75 4194.05 1059.65 4168.79Z" fill="#C8856A"/>
<path d="M911.803 3899.2C902.918 3903.53 895.774 3910.76 891.553 3919.7C891.038 3936.95 894.025 3954.13 900.336 3970.2C908.509 3992.77 911.437 4002.04 905.581 4018.99C896.233 4041.19 892.062 4065.22 893.383 4089.26C895.386 4110.71 902.1 4131.45 913.044 4150.01C923.988 4168.56 938.892 4184.48 956.694 4196.61C968.319 4206.2 981.783 4213.31 996.258 4217.51C1010.73 4221.7 1025.91 4222.89 1040.87 4221.01C1053.06 4218.69 1056.36 4201.12 1056.36 4201.12L911.803 3899.2Z" fill="#263238"/>
<path d="M980.238 3854.55C972.08 3861.37 966.557 3870.82 964.623 3881.27C961.574 3906.52 988.045 3939.09 995.608 3947.63C998.221 3945.09 1001.35 3943.15 1004.78 3941.93C1008.21 3940.71 1011.86 3940.24 1015.49 3940.56C1032.08 3940.56 1060.63 3943 1063.56 3950.19C1066.48 3957.39 1041.96 4009.48 1038.06 4047.78C1034.92 4078.59 1040.5 4109.65 1054.16 4137.44C1064.04 4157.33 1080.88 4184.29 1052.94 4208.44C1036.6 4213.2 968.893 4204.54 929.125 4147.45C893.749 4096.7 909.485 4044.25 918.512 4017.41C927.539 3990.57 919.488 3974.47 911.681 3941.41C906.307 3928.02 906.307 3913.08 911.681 3899.69C930.395 3879.14 953.968 3863.62 980.238 3854.55Z" fill="#37474F"/>
<path d="M929.125 4146.96C934.248 4131.59 958.768 4110.36 990.119 4104.02C1028.67 4096.21 1042.09 4104.02 1051.11 4117.07C1058.19 4127.81 1096.74 4189.53 1055.02 4209.17C1041.11 4217.47 975.48 4217.47 929.125 4146.96Z" fill="#FAFAFA"/>
<path d="M995.609 3947.02C998.126 3949.19 999.809 3952.17 1000.37 3955.44C1000.43 3958.74 999.974 3962.04 999.025 3965.2C997.317 3971.3 995.853 3977.4 994.389 3983.38C991.218 3995.57 988.412 4007.77 985.972 4019.97C983.564 4032.07 981.813 4044.28 980.727 4056.57C979.712 4069.05 980.039 4081.61 981.703 4094.02C977.784 4081.89 975.969 4069.18 976.335 4056.45C976.428 4043.71 977.694 4031.01 980.117 4018.51C982.565 4006.13 985.742 3993.91 989.632 3981.91C991.584 3975.93 993.779 3969.71 995.975 3964.1C997.219 3961.3 998.081 3958.35 998.537 3955.32C998.451 3952.32 997.427 3949.42 995.609 3947.02Z" fill="#263238"/>
<path d="M974.138 4084.75C989.265 4078.4 1030.62 4076.45 1039.16 4089.38L1039.89 4093.77C1041.42 4089.43 1041.42 4084.7 1039.89 4080.36C1037.08 4072.31 1009.03 4063.64 974.016 4075.11C969.991 4078.65 969.503 4086.21 974.138 4084.75Z" fill="#FAFAFA"/>
<path d="M975.481 4052.05C990.242 4044.86 1028.18 4042.05 1037.45 4054.37V4058.03C1038.65 4056.25 1039.37 4054.19 1039.52 4052.04C1039.67 4049.9 1039.25 4047.76 1038.3 4045.83C1035.13 4038.02 1009.03 4029 974.749 4042.54C971.09 4046.56 971.09 4054.13 975.481 4052.05Z" fill="#FAFAFA"/>
<path d="M980.115 4019.61C995.363 4013.75 1033.79 4012.41 1041.84 4025.71L1040.86 4029.98C1042.16 4028.37 1043.12 4026.51 1043.66 4024.51C1044.21 4022.52 1044.33 4020.43 1044.04 4018.39C1042.08 4009.73 1014.76 3999.48 979.749 4009.97C976.089 4013.38 975.479 4020.95 980.115 4019.61Z" fill="#FAFAFA"/>
<path d="M985.362 3991.79C1000.49 3985.93 1041.48 3984.1 1049.53 3997.4L1048.55 4001.67C1051.11 3998.15 1052.25 3993.79 1051.72 3989.47C1049.77 3980.93 1020.13 3971.78 985.118 3982.15C981.336 3985.45 980.726 3993.13 985.362 3991.79Z" fill="#FAFAFA"/>
<path d="M1607.74 4314.08C1594.44 4306.03 1582.12 4296.76 1568.95 4288.71C1555.46 4280.96 1542.86 4271.75 1531.38 4261.26C1512.15 4240.57 1497.08 4216.39 1486.97 4190.02C1480.65 4176.39 1475.07 4162.42 1470.26 4148.18C1464.77 4129.64 1470.26 3938.73 1470.26 3883.71L1325.22 3962.39C1336.44 4002.4 1353.52 4107.44 1352.3 4129.88C1349.86 4175.02 1325.58 4234.06 1368.04 4264.07C1376.45 4270.04 1385.97 4273.95 1394.87 4279.19C1423.54 4296.27 1442.94 4325.3 1468.92 4346.29C1488.37 4361.74 1510.85 4372.93 1534.92 4379.1C1544.58 4382.71 1554.74 4384.85 1565.05 4385.44C1578.29 4384.82 1591.47 4383.14 1604.45 4380.44C1612.6 4379.25 1620.45 4376.56 1627.63 4372.51C1631.18 4370.51 1634.25 4367.74 1636.62 4364.41C1638.98 4361.07 1640.57 4357.26 1641.29 4353.24C1641.51 4348.98 1640.78 4344.72 1639.16 4340.78C1637.53 4336.83 1635.05 4333.3 1631.89 4330.43C1625.52 4324.76 1618.47 4319.88 1610.91 4315.91L1607.74 4314.08Z" fill="#C8856A"/>
<path d="M1333.63 4238.57C1330.73 4248.45 1331.03 4259 1334.49 4268.7C1344.98 4279.87 1357.7 4288.72 1371.82 4294.68C1388.99 4303.62 1402.81 4317.87 1411.22 4335.31C1420.56 4350.58 1432.11 4364.4 1445.5 4376.29C1470.5 4398.62 1507.59 4411.06 1568.95 4408.38C1607.25 4406.67 1638.85 4391.54 1647.14 4380.81C1649.6 4377.67 1651.37 4374.05 1652.32 4370.18C1653.26 4366.31 1653.37 4362.28 1652.63 4358.36L1333.63 4238.57Z" fill="#263238"/>
<path d="M1344.73 4137.44C1344.73 4131.71 1350.22 4125.25 1352.3 4127.69C1351.58 4137.47 1352.83 4147.3 1355.96 4156.6C1370.17 4174.93 1390.46 4187.6 1413.17 4192.34C1413.17 4192.34 1411.1 4186 1425.37 4180.87C1439.64 4175.75 1475.75 4162.7 1483.19 4166.36C1490.63 4170.01 1497.95 4207.71 1522.1 4240.89C1543.52 4268.83 1571.86 4290.7 1604.32 4304.32C1626.04 4313.11 1650.68 4331.04 1650.19 4359.34C1627.5 4390.08 1567.24 4393.25 1530.64 4390.08C1465.75 4384.47 1436.96 4344.46 1419.03 4320.43C1401.09 4296.39 1394.63 4292.61 1365.72 4271.63C1353.52 4262.73 1339.49 4256.38 1333.63 4238.21C1327.78 4194.29 1344.49 4187.09 1344.73 4137.44Z" fill="#37474F"/>
<path d="M1495.39 4382.64C1492.22 4359.22 1503.56 4329.45 1540.89 4310.79C1578.22 4292.13 1593.95 4296.52 1606.76 4301.28C1619.57 4306.03 1663.61 4328.11 1652.02 4360.44C1647.14 4376.54 1569.07 4409.97 1495.39 4382.64Z" fill="#FAFAFA"/>
<path d="M1413.17 4192.22C1416.66 4192.23 1420.05 4193.39 1422.81 4195.51C1425.17 4198.03 1427.11 4200.91 1428.54 4204.05L1437.81 4221.74C1443.75 4233.53 1450.09 4245.12 1456.84 4256.51C1463.5 4267.92 1470.83 4278.91 1478.8 4289.44C1486.69 4300.01 1495.73 4309.67 1505.76 4318.23C1494.35 4311.34 1484.17 4302.6 1475.63 4292.37C1466.49 4282.17 1458.33 4271.14 1451.23 4259.43C1444.44 4247.87 1438.29 4235.93 1432.81 4223.69C1430.01 4217.71 1427.44 4211.49 1425.25 4205.15C1424.28 4202.1 1422.93 4199.19 1421.22 4196.49C1418.99 4194.34 1416.2 4192.86 1413.17 4192.22Z" fill="#263238"/>
<path d="M1487.83 4313.35C1500.02 4301.15 1551.02 4278.95 1568.09 4284.44L1572.12 4287C1570.17 4282.87 1566.85 4279.55 1562.73 4277.61C1554.67 4272.97 1510.03 4281.51 1481.12 4306.52C1479.53 4310.91 1483.8 4316.64 1487.83 4313.35Z" fill="#FAFAFA"/>
<path d="M1466.72 4287.98C1478.31 4275.78 1523.2 4256.87 1539.92 4262.24L1543.21 4265.41C1543.21 4265.41 1542.48 4260.04 1534.43 4255.41C1526.37 4250.77 1488.44 4256.02 1459.53 4281.15C1458.43 4285.42 1463.43 4291.27 1466.72 4287.98Z" fill="#FAFAFA"/>
<path d="M1452.33 4261.26C1464.53 4249.79 1503.81 4232.84 1520.76 4238.69L1523.33 4242.35C1522.41 4238.43 1520.11 4234.97 1516.86 4232.59C1509.42 4227.23 1475.38 4230.03 1445.86 4254.19C1444.16 4258.58 1448.3 4264.43 1452.33 4261.26Z" fill="#FAFAFA"/>
<path d="M1439.03 4238.21C1451.23 4226.62 1490.51 4209.78 1507.47 4215.64L1509.54 4219.66C1509.27 4217.66 1508.6 4215.74 1507.57 4214C1506.55 4212.26 1505.18 4210.74 1503.56 4209.54C1496.12 4204.17 1462.09 4206.86 1432.57 4231.13C1430.25 4235.03 1434.39 4241.26 1439.03 4238.21Z" fill="#FAFAFA"/>
<path d="M1203.72 3158.37L1301.31 2997.84C1301.31 2997.84 1446.48 2901.96 1498.2 2839.25C1540.57 2936.05 1557.37 3042.11 1546.99 3147.27C1532.1 3283.15 1483.45 3413.15 1405.49 3525.43C1363.4 3584.6 1120.4 3861.51 1120.4 3861.51C1096.01 3860.17 1028.06 3816.62 1016.35 3782.22C1016.35 3782.22 1074.41 3639.37 1101.74 3587.04C1137.24 3519.21 1146.63 3487.49 1219.09 3426.74C1207.26 3361.73 1203.72 3158.37 1203.72 3158.37Z" fill="#37474F"/>
<path d="M1041.96 3768.92L1036.72 3766.11L1039.28 3761.11C1103.08 3639.13 1182.37 3486.28 1343.39 3436.38L1345.22 3442.12C1186.64 3490.91 1107.84 3642.42 1044.53 3763.92L1041.96 3768.92Z" fill="#263238"/>
<path d="M1407.92 3117.38L1208.96 3316.22C1210.22 3353.3 1213.52 3390.28 1218.84 3426.99C1200.89 3441.71 1184.13 3457.82 1168.71 3475.17L1243.85 3597.77C1236.45 3638.1 1236.45 3679.43 1243.85 3719.76C1310.82 3642.05 1384.38 3555.44 1405.85 3525.31C1430.24 3490.53 1451.74 3453.81 1470.14 3415.52L1435.49 3128.73C1435.49 3128.73 1490.14 3100.31 1505.51 3050.41C1476.85 3093.84 1407.92 3117.38 1407.92 3117.38Z" fill="#263238"/>
<path d="M1169.56 3329.77C1137.73 3240.23 1117.72 3183.38 1106.5 3120.92C1090.76 3031.75 1105.4 2980.64 1117.84 2952.46C1154.44 2867.07 1175.42 2839.62 1189.33 2810.22C1189.33 2810.22 1217.38 2868.78 1344.37 2879.51C1489.66 2891.71 1506.74 2838.77 1506.74 2838.77C1502.1 2892.2 1517.96 2960.76 1501.25 3005.4C1467.82 3095.19 1407.93 3117.39 1407.93 3117.39L1449.28 3367.46C1465.14 3498.72 1472.58 3477.25 1473.68 3734.89C1473.68 3848.09 1474.53 4027.66 1474.53 4027.66C1457.09 4038.63 1373.77 4051.08 1342.91 4038.15C1342.91 4038.15 1311.92 3921.77 1294.11 3844.31C1259.35 3695.97 1254.71 3657.91 1265.45 3586.79C1264.96 3586.92 1206.16 3432.24 1169.56 3329.77Z" fill="#37474F"/>
<path d="M1369.38 4043.39C1354.98 3974.11 1326.07 3833.21 1313.63 3758.8C1305.2 3714.02 1302.94 3668.3 1306.92 3622.9C1308.13 3609.97 1308.5 3596.97 1308.02 3583.99C1305.82 3540.81 1273.98 3446.14 1240.31 3345.99C1210.55 3257.43 1179.93 3165.94 1171.03 3112.39H1174.08C1186.17 3112.22 1197.84 3107.92 1207.13 3100.19C1236.9 3076.77 1257.27 3019.55 1268.13 2930.26H1262.27C1252.27 3016.63 1232.14 3073.96 1204.08 3096.04C1194.76 3103.7 1182.81 3107.42 1170.78 3106.41C1158.58 3021.02 1180.3 2960.02 1199.69 2906.23C1205.06 2891.35 1210.18 2877.19 1214.45 2862.92L1208.72 2861.21C1204.45 2875.24 1199.45 2889.39 1194.08 2904.28C1174.2 2959.29 1151.75 3021.75 1165.17 3109.7C1173.22 3163.13 1204.82 3257.06 1235.31 3347.82C1267.4 3443.34 1300.58 3542.03 1302.77 3584.36C1303.14 3597.06 1302.74 3609.77 1301.55 3622.42C1297.51 3668.3 1299.8 3714.52 1308.38 3759.77C1320.58 3833.7 1349.25 3972.89 1363.77 4042.78L1369.38 4043.39Z" fill="#263238"/>
<path d="M1339.49 4043.76C1339.49 4043.76 1363.89 4055.96 1415.12 4050.1C1466.36 4044.24 1475.63 4027.65 1475.63 4027.65V3953.24C1475.63 3953.24 1457.09 3970.56 1404.63 3976.3C1349.62 3982.28 1324.24 3971.78 1324.24 3971.78L1339.49 4043.76Z" fill="#455A64"/>
<path d="M1013.42 3783.68C1013.42 3783.68 1015.13 3818.57 1056.85 3848.21C1098.57 3877.85 1120.28 3865.29 1120.28 3865.29L1167.49 3807.59C1167.49 3807.59 1133.21 3817.84 1090.39 3787.1C1045.5 3754.77 1044.28 3714.76 1044.28 3714.76L1013.42 3783.68Z" fill="#455A64"/>
<path d="M1277.76 2073.3C1315.58 2111.24 1284.96 2167.47 1293.62 2213.34C1299.23 2235.18 1317.29 2251.77 1325.95 2272.75C1330.26 2283.42 1332.08 2294.94 1331.26 2306.42C1330.43 2317.9 1326.99 2329.04 1321.19 2338.99C1288.99 2382.17 1283.5 2389 1310.09 2438.77C1326.92 2475.37 1324.73 2553.81 1270.44 2554.05C1263.88 2554.07 1257.32 2553.66 1250.8 2552.83C1230.8 2551 1215.18 2564.42 1200.06 2575.28C1155.65 2605.04 1079.17 2587.47 1063.43 2533.68C1058.31 2506.11 1083.32 2478.66 1072.46 2450.97C1065.02 2429.62 1042.21 2417.42 1037.08 2394.98C1030.13 2363.63 1063.07 2336.91 1066.85 2304.95C1069.29 2250.42 1011.83 2208.95 1073.92 2160.52C1093.81 2146.37 1121.13 2139.42 1131.99 2117.46C1137.11 2106.97 1141.14 2057.81 1206.64 2052.07C1231.65 2049.88 1261.78 2053.17 1277.76 2073.3Z" fill="#263238"/>
<path d="M1285.33 2085.01C1287.4 2063.54 1243.85 2059.76 1210.43 2083.55C1184.69 2101.84 1169.44 2136.73 1193.71 2151.49C1217.99 2166.25 1285.33 2085.01 1285.33 2085.01Z" fill="#1C6ED0"/>
<path d="M1664.95 2990.77L1705.94 3030.53C1728.51 3052.74 1740.34 3076.4 1786.21 3105.8C1807.68 3119.46 1835 3135.2 1861.72 3127.51C1867.7 3125.07 1873.97 3123.43 1880.38 3122.63C1884.03 3122.82 1887.67 3123.31 1891.24 3124.1C1895.65 3124.71 1900.12 3124.71 1904.54 3124.1C1906.9 3123.76 1909.15 3122.89 1911.12 3121.54C1914.05 3119.1 1914.78 3114.83 1917.59 3112.27C1919.28 3110.92 1921.27 3110 1923.4 3109.6C1925.53 3109.19 1927.72 3109.31 1929.79 3109.95C1933.78 3110.93 1937.87 3111.51 1941.99 3111.66C1946.13 3111.66 1951.87 3111.66 1954.18 3107.87C1955.12 3105.71 1955.35 3103.29 1954.82 3100.99C1954.29 3098.69 1953.04 3096.61 1951.26 3095.07C1932.96 3073.6 1906.24 3066.64 1883.19 3052.86C1875.62 3048.34 1847.69 3035.41 1849.4 3028.46C1851.1 3021.51 1867.57 3029.31 1884.77 3028.46C1909.17 3026.26 1916.86 3010.16 1903.8 3007.48C1883 3001.45 1862.62 2994.04 1842.81 2985.28C1816.83 2974.91 1804.14 2976.74 1787.67 2964.54C1767.32 2948.44 1749.05 2929.88 1733.26 2909.28C1704.35 2868.17 1638.6 2783.39 1638.6 2783.39C1638.6 2783.39 1577.61 2591.5 1560.9 2557.47C1531.5 2496.47 1510.15 2476.59 1434.76 2467.56L1436.84 2476.35L1443.42 2651.4C1443.42 2651.4 1499.66 2814.37 1506.49 2833.28C1513.32 2852.19 1529.79 2867.56 1556.75 2894.27C1583.71 2920.99 1664.95 2990.77 1664.95 2990.77Z" fill="#C8856A"/>
<path d="M1433.18 2463.41C1471.36 2466.95 1505.15 2473.17 1531.74 2501.72C1558.33 2530.26 1618.96 2659.2 1618.96 2659.2C1618.96 2659.2 1594.57 2753.99 1451.47 2757.65L1433.18 2463.41Z" fill="#F0F0F0"/>
<path d="M1377.06 2458.54C1377.06 2458.54 1214.09 2464.15 1181.88 2470.12C1162.73 2473.66 1133.09 2502.21 1131.38 2612.97C1130.28 2681.89 1117.59 2895.49 1117.59 2895.49C1207.74 2973.2 1506.86 2945.02 1547.11 2897.32C1547.11 2897.32 1543.33 2786.44 1542.11 2735.93C1552.42 2713.79 1558.5 2689.92 1560.04 2665.55C1559.43 2619.07 1550.89 2602.11 1511.25 2547.83C1488.62 2516.54 1462.19 2488.18 1432.57 2463.41L1377.06 2458.54Z" fill="#FAFAFA"/>
<path d="M1131.63 2612.61C1131.63 2636.15 1130.89 2659.69 1130.28 2683.36C1129.67 2707.02 1128.58 2730.45 1127.6 2753.99L1124.43 2824.62L1120.52 2895.25L1119.55 2893.05C1133.92 2904.44 1150.19 2913.2 1167.61 2918.92C1185.12 2924.87 1203.07 2929.43 1221.29 2932.58C1257.92 2938.7 1295.04 2941.47 1332.17 2940.87C1369.34 2940.77 1406.44 2937.92 1443.18 2932.33C1461.56 2929.61 1479.77 2925.82 1497.71 2920.99C1502.22 2919.77 1506.61 2918.18 1511.13 2916.84C1515.64 2915.5 1519.91 2913.79 1524.06 2911.72C1532.76 2908.45 1540.69 2903.43 1547.36 2896.96C1540.91 2903.76 1533.09 2909.13 1524.42 2912.69C1520.28 2914.89 1515.89 2916.35 1511.62 2918.18C1507.35 2920.01 1502.83 2921.36 1498.32 2922.7C1480.45 2928.23 1462.24 2932.55 1443.79 2935.63C1406.91 2942.01 1369.59 2945.48 1332.17 2946C1294.73 2946.85 1257.29 2944.28 1220.31 2938.31C1201.71 2935.32 1183.42 2930.67 1165.66 2924.41C1147.64 2918.32 1130.83 2909.12 1116.01 2897.2L1115.04 2896.35V2895.01L1123.7 2753.74C1126.38 2707.15 1129.67 2660.06 1131.63 2612.61Z" fill="#E0E0E0"/>
<path d="M1001.34 2615.29C983.042 2645.3 1001.34 2690.55 1039.89 2725.93C1080.63 2763.26 1150.53 2793.88 1164.44 2752.4C1178.34 2710.92 1140.89 2655.54 1117.96 2634.19C1095.03 2612.85 1022.44 2580.03 1001.34 2615.29Z" fill="#E0E0E0"/>
<path d="M1181.15 2472.56C1155.66 2477.08 1109.3 2478.05 1073.44 2535.02C1026.29 2614.28 985.892 2697.36 952.669 2783.39C933.76 2832.18 930.467 2858.9 957.304 2890.61C980.97 2918.43 1081.73 3007.11 1112.35 3035.41C1132.84 3054.32 1161.14 3091.4 1182.13 3105.92C1182.13 3105.92 1223.6 3096.28 1244.58 3020.53C1244.58 3020.53 1246.17 3009.31 1273.01 3018.46C1291.67 3024.8 1315.34 3026.14 1326.56 3015.28C1337.78 3004.43 1311.43 2998.82 1298.14 2990.89C1278.82 2977.42 1256.72 2968.46 1233.48 2964.66C1200.42 2959.17 1190.54 2956.49 1158.34 2923.92C1132.24 2895.28 1108.3 2864.74 1086.73 2832.55L1172.12 2656.28C1202.25 2592.11 1208.72 2530.87 1181.15 2472.56Z" fill="#C8856A"/>
<path d="M1086.73 2832.18C1065.63 2804.98 1021.1 2803.51 1021.1 2803.51C1033.49 2800.77 1046.33 2800.84 1058.69 2803.73C1071.04 2806.63 1082.59 2812.26 1092.46 2820.23L1086.73 2832.18Z" fill="#AF6152"/>
<path d="M1182.13 2470.12C1157.73 2472.56 1126.74 2477.2 1111.98 2489.4C1093.65 2503.83 1076.92 2520.19 1062.09 2538.19C1029.03 2577.23 1001.1 2615.66 1001.1 2615.66C1001.1 2615.66 1039.77 2600.53 1088.32 2637.49C1134.92 2672.99 1159.56 2720.69 1164.19 2752.77C1181.15 2705.56 1195.18 2655.18 1203.96 2625.41C1212.75 2595.65 1219.46 2515.02 1182.13 2470.12Z" fill="#F0F0F0"/>
<path d="M1254.34 2393.76C1243.24 2378.63 1196.76 2336.91 1173.22 2286.17C1154.43 2245.67 1151.75 2154.91 1205.18 2135.02C1233.12 2059.76 1301.67 2058.9 1390.36 2070.37C1468.92 2080.37 1529.79 2160.64 1475.75 2249.69C1444.15 2336.3 1254.34 2393.76 1254.34 2393.76Z" fill="#37474F"/>
<path d="M1254.59 2417.43C1253.37 2400.84 1251.3 2368.63 1251.3 2368.63C1251.3 2374 1226.04 2389.86 1201.52 2363.87C1177.01 2337.89 1173.96 2308.86 1186.76 2289.58C1200.79 2268.36 1234.71 2267.63 1250.08 2300.32C1272.52 2304.22 1280.82 2269.94 1262.27 2238.47C1261.54 2197.12 1303.99 2197.12 1322.41 2142.71C1376.94 2167.84 1425.25 2142.71 1461.11 2181.5C1474.2 2215.48 1480.38 2251.73 1479.29 2288.12C1480.02 2373.51 1461.24 2402.06 1437.08 2414.5C1421.03 2422.97 1402.76 2426.3 1384.75 2424.01C1384.75 2424.01 1385.48 2441.34 1385.48 2447.44C1385.48 2450 1385.48 2451.7 1385.48 2453.66C1385.48 2455.61 1388.17 2460.73 1396.95 2461.34C1400.79 2461.45 1404.61 2461.78 1408.42 2462.32C1408.42 2462.32 1465.63 2527.82 1392.92 2541.61C1284.48 2562.23 1220.55 2467.2 1220.55 2467.2C1220.55 2467.2 1222.75 2467.2 1232.75 2466.34C1254.83 2463.42 1256.05 2430.85 1254.59 2417.43Z" fill="#C8856A"/>
<path d="M1355.72 2334.72L1395.97 2345.21C1395.39 2347.83 1394.3 2350.32 1392.76 2352.52C1391.22 2354.72 1389.26 2356.59 1387 2358.03C1384.73 2359.47 1382.2 2360.45 1379.55 2360.91C1376.9 2361.37 1374.19 2361.3 1371.57 2360.7C1366.03 2359.34 1361.26 2355.85 1358.29 2350.98C1355.32 2346.11 1354.39 2340.27 1355.72 2334.72Z" fill="#AF6152"/>
<path d="M1358.76 2344.23C1364.12 2343.68 1369.49 2345.02 1373.95 2348.03C1378.41 2351.05 1381.67 2355.53 1383.16 2360.7C1379.21 2362.06 1374.92 2362.06 1370.96 2360.7C1367.13 2359.67 1363.67 2357.57 1360.97 2354.66C1358.27 2351.75 1356.45 2348.13 1355.71 2344.23H1358.76Z" fill="#FFA8A7"/>
<path d="M1459.28 2224.44L1430.25 2211.39C1430.99 2209.44 1432.13 2207.66 1433.59 2206.17C1435.05 2204.68 1436.8 2203.5 1438.73 2202.71C1440.67 2201.92 1442.74 2201.54 1444.83 2201.58C1446.91 2201.63 1448.97 2202.1 1450.87 2202.97C1454.76 2204.78 1457.8 2208.03 1459.37 2212.02C1460.94 2216.02 1460.91 2220.47 1459.28 2224.44Z" fill="#263238"/>
<path d="M1322.41 2238.47L1345.1 2215.41C1343.65 2213.87 1341.9 2212.65 1339.96 2211.81C1338.02 2210.97 1335.93 2210.54 1333.82 2210.54C1331.7 2210.54 1329.61 2210.97 1327.67 2211.81C1325.73 2212.65 1323.98 2213.87 1322.53 2215.41C1319.58 2218.52 1317.93 2222.63 1317.91 2226.92C1317.88 2231.2 1319.5 2235.33 1322.41 2238.47Z" fill="#263238"/>
<path d="M1426.83 2253.6C1426.73 2257.14 1428.04 2260.57 1430.46 2263.15C1432.88 2265.73 1436.23 2267.25 1439.76 2267.38C1441.47 2267.5 1443.17 2267.27 1444.79 2266.72C1446.4 2266.16 1447.89 2265.29 1449.16 2264.16C1450.43 2263.02 1451.47 2261.64 1452.2 2260.1C1452.93 2258.56 1453.35 2256.89 1453.43 2255.18C1453.46 2251.64 1452.12 2248.22 1449.69 2245.65C1447.25 2243.08 1443.91 2241.56 1440.37 2241.4C1438.66 2241.21 1436.93 2241.38 1435.29 2241.91C1433.65 2242.44 1432.15 2243.31 1430.87 2244.46C1429.59 2245.61 1428.57 2247.02 1427.87 2248.6C1427.18 2250.17 1426.82 2251.88 1426.83 2253.6Z" fill="#263238"/>
<path d="M1333.88 2263.72C1333.87 2267.25 1335.23 2270.65 1337.65 2273.22C1340.08 2275.78 1343.4 2277.32 1346.93 2277.51C1348.63 2277.6 1350.33 2277.37 1351.94 2276.81C1353.55 2276.25 1355.03 2275.38 1356.3 2274.24C1357.56 2273.11 1358.6 2271.74 1359.34 2270.2C1360.07 2268.67 1360.5 2267.01 1360.59 2265.31C1360.6 2261.77 1359.25 2258.37 1356.82 2255.81C1354.39 2253.24 1351.07 2251.71 1347.54 2251.52C1345.84 2251.42 1344.14 2251.66 1342.53 2252.22C1340.93 2252.78 1339.45 2253.65 1338.18 2254.79C1336.91 2255.92 1335.88 2257.29 1335.14 2258.82C1334.4 2260.36 1333.97 2262.02 1333.88 2263.72Z" fill="#263238"/>
<path d="M1443.06 2300.19L1404.27 2319.83L1391.34 2248.59C1403.78 2249.08 1423.17 2273.36 1443.06 2300.19Z" fill="#AF6152"/>
<path d="M1384.63 2423.03C1333.88 2420.72 1282.64 2406.69 1269.96 2384.24C1270.41 2391.72 1272.69 2398.96 1276.61 2405.35C1280.52 2411.73 1285.95 2417.05 1292.4 2420.84C1322.05 2436.09 1385.11 2441.21 1385.11 2441.21L1384.63 2423.03Z" fill="#AF6152"/>
<path d="M2382.97 2778.5L2121.43 2823.76L2177.67 3284.87C2138.03 3324.86 2104.24 3370.24 2077.27 3419.67C2050.8 3471.88 1969.07 3677.31 1954.19 3710.24C1946.21 3727.09 1937.12 3743.39 1926.98 3759.04C1921.37 3767.94 1913.08 3772.46 1911 3782.83C1902.22 3828.45 1928.08 3886.51 1956.75 3923.11C1964.3 3933.17 1973.69 3941.7 1984.44 3948.24C1995.41 3954.89 2008.34 3957.52 2021.04 3955.68C2024.84 3955.3 2028.48 3953.99 2031.65 3951.86C2034.83 3949.74 2037.42 3946.86 2039.21 3943.48C2041.04 3938.05 2041.3 3932.22 2039.94 3926.65C2035.79 3906.22 2032.78 3885.57 2030.92 3864.8C2029.8 3821.3 2044.49 3778.87 2072.27 3745.38C2107.89 3700.12 2344.42 3382.83 2357.48 3361.24C2377.12 3328.91 2399.07 3301.46 2401.15 3194.85C2403.22 3088.23 2393.83 2833.15 2382.97 2778.5Z" fill="#B16668"/>
<path d="M2402.73 2803.15C2402.73 2803.15 2407.49 2884.03 2403.34 3052.25C2400.05 3193.02 2415.54 3287.32 2359.06 3376.85C2308.68 3456.88 2090.69 3735.86 2068.37 3763.68C2068.37 3763.68 1992.61 3757.7 1955.41 3694.88C1955.41 3694.88 1997.13 3581.43 2040.8 3487.5C2084.47 3393.57 2127.29 3301.71 2127.29 3301.71L2024.82 2867.31L2402.73 2803.15Z" fill="#37474F"/>
<path d="M1984.44 3717.2L1977.12 3714.76C2007.98 3621.93 2133.38 3359.29 2186.08 3309.39L2191.45 3315.01C2140.58 3363.19 2014.32 3627.42 1984.44 3717.2Z" fill="#263238"/>
<path d="M1976.63 3639.98C1990.05 3669.26 2064.83 3728.06 2102.4 3721.1L2060.19 3775.63C2025.79 3777.46 1970.9 3740.38 1951.38 3703.29L1976.63 3639.98Z" fill="#263238"/>
<path d="M2379.07 2840.23L2025.3 2867.31L2127.77 3301.71C2127.77 3301.71 2098.74 3364.17 2063.85 3438.82C2066.54 3447.24 2073.98 3494.94 2074.71 3497.86C2077.15 3507.5 2053 3546.66 2068.85 3665.96C2071.9 3688.9 2080.08 3721.95 2084.96 3743.3C2126.55 3690.24 2215.24 3577.52 2281.36 3487.13C2286.11 3479.2 2293.55 3465.29 2293.55 3465.29C2301.74 3421.68 2304.49 3377.22 2301.73 3332.94C2296.36 3285.97 2275.13 3035.41 2275.13 3035.41C2295.44 3022.82 2313.2 3006.51 2327.47 2987.35C2339.6 2971.83 2347.95 2953.71 2351.86 2934.4C2362.89 2903.61 2371.97 2872.16 2379.07 2840.23Z" fill="#263238"/>
<path d="M1879.65 3819.42C1874.04 3818.45 1870.14 3839.06 1869.77 3845.53C1872.05 3857.43 1877.02 3868.65 1884.29 3878.34C1896.31 3894.51 1906.23 3912.13 1913.81 3930.8C1920.39 3951.29 1921.37 3990.57 1940.28 4018.51C1954.55 4036.79 1973.23 4051.14 1994.57 4060.23C2015.9 4069.32 2039.2 4072.85 2062.27 4070.47C2077.95 4069.16 2092.85 4063.07 2104.96 4053.03C2107.51 4050.14 2109.41 4046.74 2110.55 4043.06C2111.68 4039.38 2112.02 4035.5 2111.55 4031.68L1879.65 3819.42Z" fill="#263238"/>
<path d="M1929.18 3942.26C1924.39 3922.21 1915.59 3903.33 1903.32 3886.76C1889.65 3865.41 1874.16 3851.26 1874.28 3825.76C1879.11 3808.87 1889.04 3793.87 1902.71 3782.83C1919.17 3767.82 1921 3750.5 1931.37 3752.94L1927.59 3759.04C1931.86 3767.45 1943.33 3775.26 1947.84 3780.63C1949.99 3782.99 1951.58 3785.81 1952.49 3788.87C1953.39 3791.94 1953.6 3795.16 1953.09 3798.32C1951.91 3808.99 1953.63 3819.78 1958.09 3829.55C1958.93 3822.88 1960.4 3816.3 1962.48 3809.91C1963.32 3806.89 1964.86 3804.11 1966.98 3801.79C1969.1 3799.48 1971.74 3797.71 1974.68 3796.61C1986.91 3793.46 1999.87 3794.72 2011.27 3800.15C2024.45 3804.78 2039.94 3808.44 2046.41 3818.08C2052.87 3827.72 2044.94 3839.67 2041.89 3847.6C2033.35 3869.92 2043.36 3894.2 2051.9 3914.57C2061.56 3939.86 2075.23 3963.42 2092.4 3984.35C2109.23 4001.55 2121.31 4009.48 2111.79 4032.29C2108.11 4039.55 2102.38 4045.57 2095.32 4049.61C2088.42 4053.56 2080.86 4056.21 2073 4057.42C2040.76 4063.03 2007.58 4056.33 1980.05 4038.63C1967.16 4029.49 1956.46 4017.62 1948.69 4003.87C1938.74 3984.59 1932.14 3963.75 1929.18 3942.26Z" fill="#37474F"/>
<path d="M1987.24 3968.49C2014.2 3948.36 2056.9 3944.09 2069.22 3950.44C2072.14 3953.4 2074.28 3957.05 2075.44 3961.05C2065.07 3951.9 2026.65 3953.61 1991.76 3975.93C1990.28 3975.37 1989.04 3974.33 1988.22 3972.99C1987.4 3971.64 1987.06 3970.06 1987.24 3968.49Z" fill="#263238"/>
<path d="M1971.39 3933.36C2006.64 3911.4 2043.36 3914.82 2055.19 3921.89C2056.45 3923.04 2057.46 3924.44 2058.18 3925.99C2058.89 3927.54 2059.28 3929.21 2059.34 3930.92C2046.41 3922.13 2007.37 3922.13 1975.41 3941.16C1973.96 3940.51 1972.77 3939.38 1972.04 3937.96C1971.31 3936.54 1971.08 3934.92 1971.39 3933.36Z" fill="#263238"/>
<path d="M1959.19 3895.67C2001.64 3877.86 2031.16 3881.88 2042.63 3889.57C2043.68 3890.78 2044.48 3892.2 2044.98 3893.73C2045.48 3895.25 2045.68 3896.87 2045.55 3898.47C2033.35 3888.96 2000.05 3887.61 1961.5 3904.45C1960.09 3903.54 1959.06 3902.14 1958.63 3900.51C1958.2 3898.88 1958.4 3897.15 1959.19 3895.67Z" fill="#263238"/>
<path d="M1957.36 3859.31C1991.88 3841.99 2028.47 3849.19 2038.96 3858.21C2039.94 3859.07 2038.96 3864.31 2038.96 3867.49C2027.74 3856.51 1990.17 3852.48 1957.72 3868.71C1954.43 3865.05 1957.36 3859.31 1957.36 3859.31Z" fill="#263238"/>
<path d="M2279.77 4020.7C2277.21 3979.23 2276.96 3940.92 2277.09 3899.45C2277.09 3843.58 2277.33 3787.71 2277.82 3731.84C2277.82 3674.91 2278.22 3617.61 2279.04 3559.96C2279.04 3514.33 2279.77 3468.59 2280.01 3422.96C2268.7 3286.26 2250.13 3150.26 2224.39 3015.53C2257.39 2998.56 2286.48 2974.88 2309.78 2945.99C2371.63 2872.8 2376.26 2806.2 2376.26 2806.2L2344.91 2801.19L2002 2784.24C1997.86 2840.84 1988.59 2919.89 1989.8 2993.69C1992.12 3145.2 2113.74 3445.04 2113.74 3445.04C2110.45 3465.66 2087.64 3552.15 2101.55 3630.71C2123.99 3754.77 2142.66 3889.08 2150.34 3956.29C2158.03 4023.51 2166.44 4061.2 2164 4074.25C2162.3 4083.89 2156.68 4099.38 2160.71 4106.58C2166.08 4116.22 2174.37 4120.37 2186.33 4133.66C2197.54 4148.48 2209.77 4162.5 2222.92 4175.63C2236.63 4187.32 2252.5 4196.19 2269.64 4201.73C2290.59 4210.42 2313.68 4212.59 2335.88 4207.95C2343.45 4205.63 2360.28 4200.51 2361.26 4192.83C2361.34 4186.77 2359.16 4180.9 2355.16 4176.36C2333.08 4144.27 2330.76 4141.35 2308.92 4108.78C2281.6 4066.81 2281.6 4051.32 2279.77 4020.7Z" fill="#B16668"/>
<path d="M1969.68 2768.75C1967.36 2832.91 1966.38 2877.07 1967.11 2923.79C1967.97 2981.98 1981.26 3040.53 1996.88 3106.77C2012.49 3173.01 2088.49 3467.86 2094.47 3491.16C2086.17 3541.78 2077.39 3586.43 2094.47 3696.7C2118.87 3855.29 2148.51 3996.3 2148.51 3996.3C2148.51 3996.3 2230.24 4017.9 2280.87 3987.89C2280.87 3987.89 2297.94 3533.85 2294.89 3429.8C2292.21 3339.28 2250 3021.38 2250 3021.38C2291.37 3001.49 2326.76 2971.03 2352.57 2933.07C2378.38 2895.11 2393.71 2851.01 2397 2805.22L1969.68 2768.75Z" fill="#37474F"/>
<path d="M2134.36 3458.95C2130.09 3440.9 2117.77 3396.13 2102.28 3339.4C2076.29 3244.25 2040.55 3092.5 2029.08 3034.43C2014.93 2965.14 2017.62 2820.96 2017.74 2819.49H2009.93C2009.93 2820.96 2007.13 2965.88 2021.52 3036.14C2033.72 3094.45 2067.75 3240.96 2095.32 3341.11C2110.21 3395.52 2123.01 3442.48 2127.28 3460.41C2131.02 3481.8 2131.02 3503.68 2127.28 3525.07C2120.78 3579.68 2121.23 3634.89 2128.63 3689.38C2138.14 3766.48 2165.22 3918.48 2180.84 4001.55L2188.89 4002.4C2173.64 3919.82 2145.95 3765.99 2136.31 3688.41C2128.98 3634.48 2128.53 3579.84 2134.97 3525.8C2138.58 3503.64 2138.38 3481.03 2134.36 3458.95Z" fill="#263238"/>
<path d="M2134.97 3929.34C2164.25 3944.71 2256.96 3949.59 2283.31 3920.31L2281.48 3989.35C2254.52 4012.53 2186.33 4015.34 2147.29 3997.28L2134.97 3929.34Z" fill="#263238"/>
<path d="M2150.46 4156.23C2147.78 4163.64 2147.78 4171.76 2150.46 4179.16C2157.64 4189.5 2167.28 4197.89 2178.52 4203.56C2193.77 4213.32 2209.14 4217.96 2223.17 4240.16C2233.05 4255.77 2252.08 4290.17 2285.38 4309.45C2303.15 4320.33 2323.01 4327.35 2343.67 4330.04C2364.33 4332.73 2385.33 4331.03 2405.29 4325.06C2447.01 4311.03 2451.04 4292.73 2450.43 4276.27L2150.46 4156.23Z" fill="#263238"/>
<path d="M2308.56 4094.5C2309.72 4102.11 2312.73 4109.32 2317.34 4115.49C2331.9 4137.18 2349.02 4157.05 2368.33 4174.65C2386.99 4193.06 2406.88 4210.17 2427.86 4225.88C2445.06 4238.81 2456.41 4252.6 2455.55 4264.43C2452.87 4301.03 2409.07 4317.98 2363.94 4317.25C2337.14 4316.93 2310.99 4308.98 2288.55 4294.32C2275.27 4284.83 2263.64 4273.2 2254.15 4259.92C2234.14 4232.35 2230.36 4217.83 2206.21 4203.19C2185.84 4191 2169.61 4189.53 2149.73 4159.4C2142.29 4139.15 2151.56 4117.31 2154.49 4096.7C2155.1 4087.4 2155.1 4078.07 2154.49 4068.76C2154.55 4066.13 2155.47 4063.6 2157.1 4061.53C2158.72 4059.47 2160.97 4057.98 2163.51 4057.3V4066.32C2167.05 4071.21 2172.19 4074.71 2178.03 4076.21C2189.38 4080.11 2205.6 4075.23 2207.8 4084.38C2209.02 4089.5 2209.38 4093.04 2210.24 4095.24C2212.57 4103.15 2216.06 4110.67 2220.6 4117.56C2220.6 4117.56 2219.63 4108.04 2219.75 4101.82C2219.14 4094.64 2220.36 4087.43 2223.29 4080.84C2226.7 4073.16 2235.49 4071.08 2242.81 4067.91C2255.92 4061.72 2270.16 4058.28 2284.65 4057.78C2288.65 4057.37 2292.69 4058.12 2296.28 4059.93C2299.87 4061.75 2302.86 4064.56 2304.9 4068.03C2307.73 4076.26 2308.73 4085 2307.82 4093.65L2308.56 4094.5Z" fill="#37474F"/>
<path d="M2226.09 4137.44C2241.34 4122.2 2297.21 4099.87 2313.56 4108.9C2313.56 4108.9 2317.71 4110.12 2318.44 4117.07C2303.8 4112.8 2265.86 4120.24 2232.44 4144.52C2230.8 4144.1 2229.32 4143.21 2228.19 4141.95C2227.06 4140.69 2226.33 4139.12 2226.09 4137.44Z" fill="#263238"/>
<path d="M2250.25 4167.57C2264.4 4153.42 2314.42 4132.56 2333.2 4137.69C2334.54 4137.69 2341.5 4143.91 2341.74 4147.32C2327.1 4143.05 2289.9 4150.37 2256.35 4174.77C2254.73 4174.32 2253.28 4173.39 2252.2 4172.11C2251.11 4170.82 2250.43 4169.25 2250.25 4167.57Z" fill="#263238"/>
<path d="M2277.45 4196.61C2291.6 4182.34 2342.72 4161.48 2361.5 4166.6C2362.97 4166.6 2369.8 4172.94 2370.04 4176.24C2355.53 4171.97 2317.22 4179.29 2283.67 4203.68C2282.04 4203.28 2280.57 4202.38 2279.46 4201.12C2278.35 4199.85 2277.65 4198.28 2277.45 4196.61Z" fill="#263238"/>
<path d="M2312.58 4227.11C2329.54 4207.95 2378.21 4191.97 2391.39 4196.12C2392.73 4196.12 2402.36 4202.47 2402.61 4205.76C2388.09 4200.15 2349.06 4209.54 2318.8 4234.18C2317.17 4233.77 2315.7 4232.88 2314.59 4231.61C2313.48 4230.35 2312.78 4228.78 2312.58 4227.11Z" fill="#263238"/>
<path d="M2683.3 2551.61C2724.9 2516.6 2807.85 2415.96 2827.49 2404.37C2847.13 2392.78 2871.9 2389.85 2886.66 2379.97C2903.73 2370.36 2918.68 2357.37 2930.57 2341.79C2932.65 2339.46 2934.2 2336.7 2935.11 2333.71C2936.01 2330.72 2936.26 2327.56 2935.82 2324.47C2935.09 2321.42 2933.26 2318.73 2932.4 2315.69C2932.04 2310.43 2931.31 2305.22 2930.21 2300.07C2927.52 2293.85 2918.01 2290.8 2915.69 2284.46C2914.71 2281.65 2915.69 2272.26 2913.74 2270.18C2909.71 2265.3 2906.54 2264.94 2902.39 2261.64C2900.2 2259.94 2894.71 2257.5 2896.17 2253.84C2897.63 2250.18 2905.08 2242.49 2918.13 2222C2931.18 2201.5 2943.5 2184.18 2936.18 2175.64C2925.33 2163.44 2901.05 2191.26 2879.21 2216.14C2859.09 2238.96 2834.93 2268.23 2828.35 2267.38C2818.95 2266.28 2825.78 2236.39 2816.15 2220.29C2806.51 2204.19 2792.97 2207.24 2792.85 2223.1C2792.85 2236.64 2787.97 2257.25 2784.67 2280.06C2783.72 2297.28 2777.45 2313.77 2766.74 2327.27C2757.23 2336.67 2626.46 2431.7 2626.46 2431.7C2626.46 2431.7 2476.41 2331.3 2426.15 2301.29C2399.86 2284.82 2370.31 2274.25 2339.54 2270.31L2372.24 2449.14C2372.24 2449.14 2504.71 2519.65 2569.85 2551.61C2635 2583.57 2646.71 2581.98 2683.3 2551.61Z" fill="#B16668"/>
<path d="M2872.14 2266.52C2861.04 2282.87 2844.57 2297.75 2847.74 2308.73C2848.54 2310.84 2849.79 2312.75 2851.39 2314.33C2853 2315.92 2854.93 2317.13 2857.05 2317.9C2859.17 2318.66 2861.43 2318.96 2863.68 2318.77C2865.93 2318.57 2868.11 2317.9 2870.07 2316.78C2868.87 2319.21 2868.34 2321.91 2868.53 2324.62C2868.72 2327.32 2869.63 2329.92 2871.17 2332.15C2872.77 2334.23 2874.92 2335.83 2877.37 2336.78C2879.82 2337.72 2882.48 2337.98 2885.07 2337.52C2884.87 2339.53 2885.08 2341.55 2885.7 2343.48C2886.31 2345.4 2887.31 2347.18 2888.63 2348.7C2889.96 2350.22 2891.58 2351.45 2893.41 2352.32C2895.23 2353.19 2897.21 2353.67 2899.22 2353.74C2893.61 2356.55 2881.05 2357.65 2880.07 2345.21C2880.07 2345.21 2862.63 2342.89 2863.24 2328.25C2862.49 2334.58 2860.16 2340.62 2856.45 2345.81C2852.73 2350.99 2847.77 2355.15 2842.01 2357.89C2850.21 2348.52 2855.03 2336.66 2855.67 2324.22C2851.81 2322.93 2848.36 2320.61 2845.7 2317.52C2843.04 2314.43 2841.26 2310.67 2840.55 2306.66C2839.45 2293.48 2872.14 2266.52 2872.14 2266.52Z" fill="#9A4A4D"/>
<path d="M2407.24 2537.09C2421.4 2420.11 2443.84 2298.36 2353.69 2273.36C2307.57 2263.24 2260.34 2259.14 2213.16 2261.16C2155.34 2264.09 2101.67 2283.24 2064.09 2287.87C2064.09 2287.87 1994.32 2396.32 1983.22 2564.17C1976.14 2671.89 1964.8 2765.58 1963.21 2890.98C2054.21 2939.77 2344.91 2958.68 2404.93 2862.07C2402.73 2778.14 2387.97 2695.56 2407.24 2537.09Z" fill="#1C6ED0"/>
<path opacity="0.2" d="M2407.24 2537.09C2421.4 2420.11 2443.84 2298.36 2353.69 2273.36C2307.57 2263.24 2260.34 2259.14 2213.16 2261.16C2155.34 2264.09 2101.67 2283.24 2064.09 2287.87C2064.09 2287.87 1994.32 2396.32 1983.22 2564.17C1976.14 2671.89 1964.8 2765.58 1963.21 2890.98C2054.21 2939.77 2344.91 2958.68 2404.93 2862.07C2402.73 2778.14 2387.97 2695.56 2407.24 2537.09Z" fill="white"/>
<path d="M2142.53 2220.29C2134.97 2186.38 2099.1 2152.35 2082.27 2122.7C2065.44 2093.06 2056.04 2072.81 2056.41 2045.73C2056.41 2029.63 2065.56 2007.42 2077.15 2002.3C2073.9 1992.76 2072.62 1982.66 2073.39 1972.62C2074.16 1962.57 2076.96 1952.78 2081.63 1943.85C2086.29 1934.92 2092.72 1927.03 2100.53 1920.66C2108.34 1914.29 2117.35 1909.57 2127.04 1906.79C2138.04 1903.87 2148.84 1900.24 2159.37 1895.93C2171.56 1889.83 2174.37 1879.34 2183.76 1869.94C2200.84 1853.84 2230.97 1852.01 2243.66 1874.34C2254.76 1858.36 2270.98 1857.99 2289.89 1862.14C2297.86 1863.52 2305.01 1867.88 2309.88 1874.34C2314.75 1880.79 2316.98 1888.86 2316.12 1896.9C2320.32 1893.88 2325.17 1891.87 2330.29 1891.03C2335.4 1890.19 2340.64 1890.55 2345.59 1892.07C2350.54 1893.6 2355.07 1896.25 2358.82 1899.81C2362.58 1903.38 2365.46 1907.77 2367.23 1912.64C2369.43 1923.38 2367.23 1932.65 2375.16 1942.04C2376.71 1944.3 2378.78 1946.16 2381.2 1947.44C2383.63 1948.72 2386.33 1949.39 2389.07 1949.39C2391.81 1949.39 2394.51 1948.72 2396.93 1947.44C2399.36 1946.16 2401.43 1944.3 2402.97 1942.04C2406.27 1957.29 2400.9 1969.24 2384.19 1969.24C2387.24 1973.38 2389.34 1978.13 2390.35 1983.17C2391.36 1988.21 2391.26 1993.41 2390.04 1998.4C2388.36 2004.66 2384.81 2010.25 2379.86 2014.44C2374.91 2018.62 2368.8 2021.2 2362.35 2021.82C2362.15 2030.32 2360.03 2038.66 2356.13 2046.22C2351.48 2053.87 2345.03 2060.28 2337.35 2064.88C2312.03 2076.58 2285.41 2085.23 2258.05 2090.62L2226.22 2098.92C2224.26 2098.92 2214.02 2100.5 2214.02 2102.21L2142.53 2220.29Z" fill="#263238"/>
<path d="M2098.86 2178.09C2104.98 2182.06 2112.25 2183.9 2119.52 2183.33C2126.8 2182.75 2133.69 2179.8 2139.11 2174.91L2146.07 2277.87C2156.09 2301.14 2172.89 2320.86 2194.28 2334.43C2215.67 2348.01 2240.66 2354.83 2265.98 2353.99C2314.78 2348.5 2317.09 2313.98 2282.45 2277.26L2279.64 2246.28C2293.86 2245.89 2308.04 2244.63 2322.1 2242.49C2335.46 2239.22 2347.54 2232.03 2356.78 2221.83C2366.02 2211.63 2372 2198.9 2373.94 2185.28C2380.48 2147.05 2379.61 2107.91 2371.38 2070C2369.07 2060.84 2368.09 2051.39 2368.45 2041.95C2369.4 2021.32 2365.47 2000.76 2356.98 1981.93C2326.24 1959.61 2257.56 1955.09 2195.96 1996.93C2205.23 2034.51 2192.06 2065.25 2165.22 2081.11C2167.05 2091.23 2169.61 2116.97 2153.02 2117.7C2140.82 2117.7 2139.36 2102.94 2126.18 2090.13C2113.01 2077.32 2083.85 2075.25 2073.73 2095.62C2067.18 2110.07 2066.12 2126.42 2070.74 2141.59C2075.37 2156.77 2085.36 2169.74 2098.86 2178.09Z" fill="#B16668"/>
<path d="M2279.64 2246.64C2236.95 2243.83 2206.45 2240.91 2182.06 2211.26C2170.95 2196.03 2161.46 2179.67 2153.75 2162.47C2157.59 2184.25 2164.84 2205.28 2175.22 2224.8C2187.42 2243.96 2213.77 2260.79 2280.74 2263.23L2279.64 2246.64Z" fill="#9A4A4D"/>
<path d="M2256.35 2083.18C2256.43 2084.83 2256.18 2086.48 2255.6 2088.03C2255.02 2089.59 2254.14 2091 2253 2092.2C2251.86 2093.4 2250.48 2094.35 2248.96 2095C2247.44 2095.65 2245.8 2095.99 2244.15 2095.99C2241.76 2095.98 2239.43 2095.28 2237.44 2093.97C2235.45 2092.65 2233.89 2090.78 2232.95 2088.59C2232.01 2086.39 2231.74 2083.97 2232.16 2081.62C2232.58 2079.28 2233.68 2077.1 2235.33 2075.38C2236.98 2073.65 2239.09 2072.44 2241.42 2071.9C2243.74 2071.37 2246.17 2071.52 2248.41 2072.35C2250.65 2073.18 2252.59 2074.65 2254 2076.58C2255.41 2078.5 2256.23 2080.8 2256.35 2083.18Z" fill="#263238"/>
<path d="M2250.61 2044.02L2224.02 2056.22C2222.46 2052.57 2222.36 2048.45 2223.75 2044.73C2225.13 2041.01 2227.89 2037.96 2231.46 2036.21C2233.22 2035.42 2235.13 2034.99 2237.07 2034.96C2239 2034.92 2240.92 2035.28 2242.71 2036.01C2244.5 2036.74 2246.13 2037.83 2247.48 2039.2C2248.84 2040.58 2249.91 2042.22 2250.61 2044.02Z" fill="#263238"/>
<path d="M2353.94 2043.04L2325.15 2036.7C2325.45 2034.79 2326.14 2032.97 2327.18 2031.34C2328.22 2029.71 2329.58 2028.32 2331.19 2027.24C2332.79 2026.16 2334.6 2025.43 2336.5 2025.09C2338.4 2024.74 2340.35 2024.79 2342.23 2025.23C2346.12 2026.09 2349.52 2028.42 2351.71 2031.75C2353.9 2035.08 2354.7 2039.13 2353.94 2043.04Z" fill="#263238"/>
<path d="M2350.4 2071.84C2350.4 2074.25 2349.68 2076.61 2348.34 2078.61C2347 2080.62 2345.1 2082.18 2342.87 2083.11C2340.64 2084.03 2338.19 2084.27 2335.82 2083.8C2333.45 2083.33 2331.28 2082.17 2329.57 2080.46C2327.87 2078.76 2326.71 2076.58 2326.23 2074.22C2325.76 2071.85 2326.01 2069.4 2326.93 2067.17C2327.85 2064.94 2329.42 2063.03 2331.42 2061.69C2333.43 2060.35 2335.79 2059.64 2338.2 2059.64C2341.43 2059.64 2344.54 2060.92 2346.82 2063.21C2349.11 2065.5 2350.4 2068.6 2350.4 2071.84Z" fill="#263238"/>
<path d="M2340.28 2120.75L2296.36 2143.56L2286.72 2057.68L2340.28 2120.75Z" fill="#9A4A4D"/>
<path d="M2253.66 2155.27L2302.46 2170.77C2301.59 2174.04 2300.07 2177.1 2297.99 2179.77C2295.9 2182.44 2293.3 2184.67 2290.34 2186.31C2287.38 2187.95 2284.12 2188.97 2280.75 2189.32C2277.38 2189.67 2273.97 2189.33 2270.74 2188.33C2264.17 2186.1 2258.72 2181.41 2255.54 2175.24C2252.36 2169.08 2251.68 2161.92 2253.66 2155.27Z" fill="#9A4A4D"/>
<path d="M2258.91 2164.05C2256.88 2163.82 2254.84 2163.82 2252.81 2164.05C2252.74 2167.5 2253.37 2170.91 2254.66 2174.1C2255.95 2177.3 2257.87 2180.19 2260.31 2182.62C2262.75 2185.05 2265.66 2186.96 2268.86 2188.23C2272.05 2189.51 2275.47 2190.12 2278.91 2190.04C2279.68 2183.94 2278 2177.8 2274.26 2172.93C2270.51 2168.07 2264.99 2164.87 2258.91 2164.05Z" fill="#F28F8F"/>
<path d="M2064.1 2288.12C1990.9 2306.42 1967.6 2323.49 1933.81 2383.88C1907.22 2431.33 1874.28 2498.79 1844.88 2551.85C1820.8 2590.05 1805.55 2633.15 1800.24 2677.99C1795.48 2725.56 1779.01 2907.08 1780.6 2908.18C1779.25 2918.3 1778.03 2927.94 1777.42 2932.58C1773.16 2964.42 1761.2 2988.32 1765.23 3043.22C1767.18 3068.96 1771.2 3100.8 1793.41 3117.75C1799.03 3121.09 1804.17 3125.19 1808.65 3129.95C1810.63 3133.05 1812.43 3136.27 1814.02 3139.59C1816.1 3143.58 1818.82 3147.21 1822.07 3150.32C1823.7 3152.17 1825.81 3153.52 1828.17 3154.23C1831.83 3155.08 1835.73 3153.25 1839.52 3154.23C1841.5 3154.83 1843.33 3155.87 1844.87 3157.26C1846.4 3158.65 1847.62 3160.37 1848.42 3162.28C1850.02 3166.1 1852.03 3169.74 1854.4 3173.14C1855.64 3174.81 1857.4 3176.04 1859.4 3176.64C1861.4 3177.23 1863.54 3177.16 1865.5 3176.43C1867.96 3174.71 1869.69 3172.15 1870.38 3169.23C1878.92 3142.15 1865.74 3112.39 1862.82 3085.3C1861.84 3076.52 1857.94 3053.1 1866.96 3046.51C1873.06 3042.12 1876.36 3062.49 1887.46 3075.91C1898.56 3089.33 1921.25 3083.96 1913.32 3073.11C1905.39 3062.25 1904.41 3043.34 1896.97 3015.77C1889.53 2988.2 1876.23 2979.18 1876.11 2957.95C1876.11 2950.63 1943.33 2688.11 1943.33 2688.11L2059.83 2502.81C2093.74 2465.24 2120.33 2353.5 2064.1 2288.12Z" fill="#B16668"/>
</svg>
