<svg width="32" height="32" viewBox="0 0 32 32" fill="none" xmlns="http://www.w3.org/2000/svg">
<path fill-rule="evenodd" clip-rule="evenodd" d="M12.4239 1.59784C12.874 1.09511 13.4251 0.692955 14.0411 0.417631C14.6572 0.142306 15.3244 0 15.9992 0C16.674 0 17.3412 0.142306 17.9573 0.417631C18.5733 0.692955 19.1244 1.09511 19.5745 1.59784L20.6943 2.84884C20.8544 3.02786 21.0526 3.16856 21.2744 3.2605C21.4963 3.35245 21.7359 3.39327 21.9757 3.37995L23.6554 3.28717C24.3289 3.25018 25.0027 3.3556 25.6328 3.59656C26.2628 3.83752 26.835 4.20861 27.312 4.68561C27.789 5.16262 28.1601 5.73482 28.401 6.36491C28.642 6.99499 28.7474 7.6688 28.7104 8.34237L28.6176 10.0221C28.6046 10.2616 28.6455 10.501 28.7374 10.7225C28.8294 10.944 28.9699 11.142 29.1487 11.3019L30.4013 12.4217C30.9043 12.8719 31.3067 13.4231 31.5821 14.0393C31.8576 14.6555 32 15.3229 32 15.998C32 16.673 31.8576 17.3404 31.5821 17.9566C31.3067 18.5728 30.9043 19.124 30.4013 19.5742L29.1487 20.694C28.9697 20.854 28.829 21.0523 28.7371 21.2741C28.6452 21.496 28.6043 21.7357 28.6176 21.9754L28.7104 23.6551C28.7474 24.3287 28.642 25.0025 28.401 25.6326C28.1601 26.2627 27.789 26.8349 27.312 27.3119C26.835 27.7889 26.2628 28.16 25.6328 28.4009C25.0027 28.6419 24.3289 28.7473 23.6554 28.7103L21.9757 28.6176C21.7362 28.6045 21.4968 28.6454 21.2753 28.7374C21.0538 28.8293 20.8558 28.9699 20.6959 29.1487L19.5761 30.4013C19.126 30.9043 18.5748 31.3066 17.9586 31.5821C17.3424 31.8576 16.675 32 16 32C15.325 32 14.6576 31.8576 14.0414 31.5821C13.4252 31.3066 12.874 30.9043 12.4239 30.4013L11.3041 29.1487C11.144 28.9696 10.9458 28.8289 10.724 28.737C10.5021 28.6451 10.2625 28.6042 10.0227 28.6176L8.34303 28.7103C7.66948 28.7473 6.99569 28.6419 6.36562 28.4009C5.73556 28.16 5.16337 27.7889 4.68638 27.3119C4.20938 26.8349 3.83831 26.2627 3.59735 25.6326C3.3564 25.0025 3.25098 24.3287 3.28797 23.6551L3.38075 21.9754C3.39383 21.7359 3.35288 21.4965 3.26095 21.275C3.16902 21.0535 3.02845 20.8555 2.84965 20.6956L1.59869 19.5758C1.09571 19.1256 0.693339 18.5744 0.417863 17.9582C0.142388 17.342 0 16.6746 0 15.9996C0 15.3245 0.142388 14.6571 0.417863 14.0409C0.693339 13.4247 1.09571 12.8735 1.59869 12.4233L2.84965 11.3035C3.02867 11.1435 3.16937 10.9452 3.26131 10.7234C3.35325 10.5015 3.39407 10.2619 3.38075 10.0221L3.28797 8.34237C3.25098 7.6688 3.3564 6.99499 3.59735 6.36491C3.83831 5.73482 4.20938 5.16262 4.68638 4.68561C5.16337 4.20861 5.73556 3.83752 6.36562 3.59656C6.99569 3.3556 7.66948 3.25018 8.34303 3.28717L10.0227 3.37995C10.2622 3.39303 10.5016 3.35208 10.7231 3.26015C10.9446 3.16821 11.1426 3.02764 11.3025 2.84884L12.4239 1.59784ZM21.9293 10.0685C22.2292 10.3685 22.3977 10.7753 22.3977 11.1995C22.3977 11.6237 22.2292 12.0305 21.9293 12.3305L12.3311 21.929C12.0294 22.2204 11.6253 22.3817 11.2059 22.378C10.7864 22.3744 10.3852 22.2061 10.0886 21.9095C9.792 21.6129 9.62376 21.2117 9.62011 20.7922C9.61647 20.3728 9.77771 19.9687 10.0691 19.667L19.6673 10.0685C19.9673 9.76859 20.3741 9.60011 20.7983 9.60011C21.2225 9.60011 21.6293 9.76859 21.9293 10.0685ZM11.9999 9.59977C11.3635 9.59977 10.7532 9.85258 10.3032 10.3026C9.8532 10.7526 9.60039 11.363 9.60039 11.9994V12.0154C9.60039 12.6518 9.8532 13.2622 10.3032 13.7122C10.7532 14.1622 11.3635 14.415 11.9999 14.415H12.0159C12.6523 14.415 13.2627 14.1622 13.7127 13.7122C14.1627 13.2622 14.4155 12.6518 14.4155 12.0154V11.9994C14.4155 11.363 14.1627 10.7526 13.7127 10.3026C13.2627 9.85258 12.6523 9.59977 12.0159 9.59977H11.9999ZM19.9985 17.5985C19.3621 17.5985 18.7517 17.8513 18.3017 18.3013C17.8517 18.7513 17.5989 19.3617 17.5989 19.9981V20.0141C17.5989 20.6505 17.8517 21.2609 18.3017 21.7109C18.7517 22.1609 19.3621 22.4137 19.9985 22.4137H20.0145C20.6509 22.4137 21.2612 22.1609 21.7112 21.7109C22.1612 21.2609 22.414 20.6505 22.414 20.0141V19.9981C22.414 19.3617 22.1612 18.7513 21.7112 18.3013C21.2612 17.8513 20.6509 17.5985 20.0145 17.5985H19.9985Z" fill="#F5F5F5"/>
</svg>
