<svg width="43" height="41" viewBox="0 0 43 41" fill="none" xmlns="http://www.w3.org/2000/svg">
<path d="M7.39062 33.2173L13.3906 16.436H10.625L15.5938 8.98291C15.75 8.79541 15.805 8.59229 15.7587 8.37354C15.7125 8.15479 15.6106 7.96729 15.4531 7.81104L14.7969 7.15479L5.28125 15.4048C4.75 15.8423 4.35188 16.366 4.08688 16.976C3.82188 17.586 3.68875 18.2342 3.6875 18.9204V30.4985H0.875V18.9204C0.875 17.8267 1.10188 16.7879 1.55563 15.8042C2.00938 14.8204 2.64188 13.9685 3.45312 13.2485L14.9375 3.31104L17.2344 5.60791L19.1562 0.35791L37.5781 7.15479L35.2344 13.6704C36.1406 13.8267 36.8906 14.2485 37.4844 14.936C38.0781 15.6235 38.375 16.436 38.375 17.3735C38.375 17.5298 38.3675 17.686 38.3525 17.8423C38.3375 17.9985 38.2981 18.1548 38.2344 18.311H38.375C39.4062 18.311 40.2894 18.6785 41.0244 19.4135C41.7594 20.1485 42.1263 21.031 42.125 22.061C42.125 22.811 41.93 23.4829 41.54 24.0767C41.15 24.6704 40.6419 25.1235 40.0156 25.436C40.0781 25.6548 40.1331 25.866 40.1806 26.0698C40.2281 26.2735 40.2513 26.4998 40.25 26.7485C40.25 27.7798 39.8831 28.6629 39.1494 29.3979C38.4156 30.1329 37.5325 30.4998 36.5 30.4985H36.3594C36.4219 30.6548 36.4613 30.811 36.4775 30.9673C36.4938 31.1235 36.5013 31.2798 36.5 31.436C36.5 32.4673 36.1331 33.3504 35.3994 34.0854C34.6656 34.8204 33.7825 35.1873 32.75 35.186H27.5469L25.9062 40.061L7.39062 33.2173ZM24.7812 31.7642L31.5312 12.8735L20.1406 8.65479L13.3906 27.5454L24.7812 31.7642ZM28.5312 32.3735H32.75C33 32.3735 33.2188 32.2798 33.4062 32.0923C33.5938 31.9048 33.6875 31.686 33.6875 31.436C33.6875 31.186 33.5938 30.9673 33.4062 30.7798C33.2188 30.5923 33 30.4985 32.75 30.4985H29.2344L28.5312 32.3735ZM30.2188 27.686H36.5C36.75 27.686 36.9688 27.5923 37.1562 27.4048C37.3438 27.2173 37.4375 26.9985 37.4375 26.7485C37.4375 26.4985 37.3438 26.2798 37.1562 26.0923C36.9688 25.9048 36.75 25.811 36.5 25.811H30.9219L30.2188 27.686ZM31.9062 22.9985H38.375C38.625 22.9985 38.8438 22.9048 39.0312 22.7173C39.2188 22.5298 39.3125 22.311 39.3125 22.061C39.3125 21.811 39.2188 21.5923 39.0312 21.4048C38.8438 21.2173 38.625 21.1235 38.375 21.1235H32.5625L31.9062 22.9985ZM33.5938 18.311H34.625C34.875 18.311 35.0938 18.2173 35.2812 18.0298C35.4688 17.8423 35.5625 17.6235 35.5625 17.3735C35.5625 17.1235 35.4688 16.9048 35.2812 16.7173C35.0938 16.5298 34.875 16.436 34.625 16.436H34.25L33.5938 18.311Z" fill="#1B2559" fill-opacity="0.8"/>
</svg>
