<svg width="5801" height="5642" viewBox="0 0 5801 5642" fill="none" xmlns="http://www.w3.org/2000/svg">
<path d="M2910.74 5641.62C4506.77 5641.62 5800.6 4894.59 5800.6 3973.09C5800.6 3051.59 4506.77 2304.56 2910.74 2304.56C1314.72 2304.56 20.8828 3051.59 20.8828 3973.09C20.8828 4894.59 1314.72 5641.62 2910.74 5641.62Z" fill="#F5F5F5"/>
<path d="M5149.37 4273.39L4390.86 3835.82C4387.6 3834.71 4384.76 3832.6 4382.75 3829.8C4380.74 3827 4379.66 3823.64 4379.66 3820.19C4379.66 3816.74 4380.74 3813.38 4382.75 3810.57C4384.76 3807.77 4387.6 3805.67 4390.86 3804.56L4878.45 3523.51C4886.84 3519.26 4896.11 3517.05 4905.51 3517.05C4914.92 3517.05 4924.19 3519.26 4932.58 3523.51L5690.96 3961.09C5694.22 3962.19 5697.06 3964.3 5699.07 3967.1C5701.08 3969.9 5702.16 3973.27 5702.16 3976.71C5702.16 3980.16 5701.08 3983.52 5699.07 3986.33C5697.06 3989.13 5694.22 3991.23 5690.96 3992.34L5203.38 4273.51C5194.99 4277.73 5185.74 4279.91 5176.36 4279.89C5166.97 4279.86 5157.73 4277.64 5149.37 4273.39Z" fill="#E0E0E0"/>
<path d="M1864.69 5105.9C2568.49 5105.9 3139.03 4776.5 3139.03 4370.16C3139.03 3963.81 2568.49 3634.41 1864.69 3634.41C1160.89 3634.41 590.354 3963.81 590.354 4370.16C590.354 4776.5 1160.89 5105.9 1864.69 5105.9Z" fill="#E0E0E0"/>
<path d="M3067.64 4700.46C3526.05 4700.46 3897.66 4485.91 3897.66 4221.26C3897.66 3956.6 3526.05 3742.05 3067.64 3742.05C2609.24 3742.05 2237.63 3956.6 2237.63 4221.26C2237.63 4485.91 2609.24 4700.46 3067.64 4700.46Z" fill="#E0E0E0"/>
<path d="M597.603 3746.55L607.855 3584.02C607.855 3584.02 598.228 3376.36 392.444 3184.83C267.423 3068.44 164.031 3131.07 138.151 3194.46C112.272 3257.84 133.776 3353.99 255.296 3443.88C445.578 3584.52 605.355 3807.19 626.108 3965.09L597.603 3746.55Z" fill="#37474F"/>
<path d="M591.228 3700.67C589.544 3700.83 587.855 3700.41 586.443 3699.48C585.032 3698.55 583.985 3697.16 583.476 3695.54C489.836 3385.49 220.916 3199.46 217.54 3197.58C216.759 3197.03 216.1 3196.32 215.605 3195.5C215.109 3194.68 214.786 3193.77 214.657 3192.82C214.529 3191.87 214.596 3190.9 214.855 3189.98C215.114 3189.06 215.56 3188.2 216.165 3187.46C217.233 3185.87 218.882 3184.78 220.755 3184.4C222.627 3184.03 224.572 3184.41 226.166 3185.46C228.917 3187.33 502.588 3376.11 597.729 3691.17C598.245 3692.99 598.039 3694.94 597.155 3696.62C596.27 3698.29 594.774 3699.57 592.978 3700.17L591.228 3700.67Z" fill="white"/>
<path d="M605.855 3751.93C604.653 3734.17 598.068 3717.21 586.977 3703.29C566.974 3680.16 531.968 3672.66 515.09 3647.03C508.401 3634.28 503.039 3620.88 499.088 3607.03C486.561 3577.19 463.199 3553.2 433.702 3539.89C404.186 3527.04 371.661 3522.71 339.811 3527.39C315.682 3530.39 292.303 3537.77 268.174 3541.14C189.036 3552.52 115.773 3479.88 37.0101 3528.64C-10.2478 3558.14 -6.99723 3609.65 19.2572 3652.79C32.992 3674.73 50.2221 3694.28 70.2657 3710.67C91.5193 3728.67 113.898 3739.55 116.148 3770.8C117.649 3793.56 110.522 3816.19 110.772 3839.07C111.672 3857.84 116.604 3876.2 125.233 3892.9C133.863 3909.6 145.987 3924.24 160.781 3935.83C190.659 3958.79 225.823 3973.88 263.048 3979.71C290.428 3984.97 321.933 3989.09 337.06 4012.47C343.379 4025.26 347.6 4038.98 349.562 4053.1C356.126 4075.71 367.423 4096.67 382.706 4114.58C397.988 4132.5 416.905 4146.95 438.202 4156.99C481.175 4176.73 528.822 4184 575.725 4178C616.13 4175.24 654.867 4160.82 687.244 4136.49C740.753 4092.73 709.998 4010.09 674.742 3964.09C659.364 3943.83 640.361 3926.58 626.234 3905.45C597.979 3863.57 602.605 3827.31 605.23 3779.43C606.195 3770.3 606.404 3761.1 605.855 3751.93Z" fill="#455A64"/>
<path d="M647.612 4059.98C646.4 4060.22 645.144 4060.07 644.021 4059.55C642.899 4059.03 641.968 4058.18 641.361 4057.1C449.954 3712.55 142.902 3616.28 139.777 3615.28C138.278 3614.82 137.021 3613.78 136.273 3612.41C135.525 3611.03 135.347 3609.41 135.776 3607.9C136.266 3606.39 137.321 3605.14 138.72 3604.39C140.119 3603.64 141.752 3603.47 143.277 3603.9C146.403 3604.9 457.955 3702.67 651.737 4051.35C652.115 4052.02 652.357 4052.77 652.448 4053.53C652.539 4054.3 652.479 4055.08 652.27 4055.82C652.061 4056.56 651.708 4057.26 651.23 4057.86C650.753 4058.47 650.16 4058.98 649.487 4059.35C648.929 4059.73 648.282 4059.94 647.612 4059.98Z" fill="white"/>
<path d="M465.081 3823.06H463.706C379.567 3819.56 252.296 3853.32 251.17 3853.69C250.415 3853.92 249.621 3853.99 248.839 3853.89C248.056 3853.8 247.302 3853.54 246.622 3853.14C245.942 3852.74 245.351 3852.21 244.886 3851.57C244.421 3850.94 244.092 3850.21 243.919 3849.44C243.711 3848.7 243.652 3847.91 243.747 3847.15C243.842 3846.38 244.088 3845.63 244.472 3844.96C244.855 3844.28 245.369 3843.69 245.982 3843.22C246.595 3842.74 247.296 3842.39 248.045 3842.19C253.296 3840.82 378.442 3807.56 464.331 3811.19C465.89 3811.07 467.43 3811.58 468.614 3812.6C469.798 3813.62 470.529 3815.07 470.645 3816.63C470.761 3818.18 470.253 3819.72 469.233 3820.91C468.213 3822.09 466.765 3822.82 465.206 3822.94L465.081 3823.06Z" fill="white"/>
<path d="M403.697 3765.93C402.148 3766.08 400.602 3765.63 399.371 3764.68C398.141 3763.72 397.318 3762.34 397.071 3760.8C392.185 3718.27 393.321 3675.25 400.447 3633.03C400.749 3631.51 401.642 3630.17 402.93 3629.3C404.219 3628.43 405.798 3628.11 407.323 3628.41C408.088 3628.54 408.819 3628.83 409.474 3629.25C410.128 3629.67 410.692 3630.21 411.134 3630.85C411.576 3631.49 411.886 3632.21 412.048 3632.97C412.209 3633.73 412.218 3634.52 412.074 3635.28C405.302 3676.28 404.25 3718.02 408.948 3759.3C409.124 3760.88 408.671 3762.46 407.688 3763.7C406.704 3764.94 405.27 3765.74 403.697 3765.93Z" fill="white"/>
<path opacity="0.3" d="M5545.06 1344.02L3233.3 9.4253C3198.54 -10.5781 3170.79 5.67467 3170.79 45.8064V1876.61C3171.92 1898.43 3178.17 1919.68 3189.03 1938.64C3199.89 1957.59 3215.05 1973.74 3233.3 1985.76L5545.06 3320.35C5579.81 3340.36 5607.57 3324.11 5607.57 3283.97V1453.17C5606.43 1431.35 5600.18 1410.1 5589.32 1391.14C5578.46 1372.19 5563.3 1356.04 5545.06 1344.02Z" fill="#1C6ED0"/>
<path opacity="0.5" d="M5545.06 1344.02L3233.3 9.4253C3198.54 -10.5781 3170.79 5.67467 3170.79 45.8064V1876.61C3171.92 1898.43 3178.17 1919.68 3189.03 1938.64C3199.89 1957.59 3215.05 1973.74 3233.3 1985.76L5545.06 3320.35C5579.81 3340.36 5607.57 3324.11 5607.57 3283.97V1453.17C5606.43 1431.35 5600.18 1410.1 5589.32 1391.14C5578.46 1372.19 5563.3 1356.04 5545.06 1344.02Z" fill="white"/>
<path opacity="0.3" d="M5557.31 2975.67V2741.13L5404.91 2653.62V2829.65L5354.53 2799.89V2506.59L5252.88 2447.96V2565.23L5202.13 2535.85V2770.39L5100.23 2712.38V2535.85L5049.47 2506.59V2447.96L4998.59 2418.58V2359.94L4947.83 2330.69V2389.32L4897.07 2359.94V2418.58L4846.32 2389.32V2447.96L4744.67 2389.32V2213.42L4592.4 2125.9V2418.58L4541.89 2389.32V2213.42L4440.25 2154.66V2330.69L4389.49 2301.31V2242.67L4287.97 2184.04V2066.77L4186.33 2008.13V2066.77L4135.32 2037.26V2213.54L4084.56 2184.16V1949.75L4033.8 1920.37V1861.74L3982.92 1832.48V1773.85L3932.16 1744.47V1803.1L3881.4 1773.85V1832.48L3830.65 1803.1V2096.02L3779.89 2066.77V1949.75L3629.24 1862.24V1921.87L3525.84 1862.24V1744.97L3474.96 1715.71V1657.08L3424.2 1627.7V1569.06L3373.44 1539.81V1598.32L3322.69 1569.06V1627.7L3271.93 1598.32V1715.71L3170.29 1656.95V1877.36C3171.42 1899.18 3177.67 1920.43 3188.53 1939.39C3199.39 1958.34 3214.55 1974.49 3232.8 1986.51L5545.06 3320.35C5579.81 3340.36 5607.57 3324.11 5607.57 3283.97V3005.05L5557.31 2975.67Z" fill="#1C6ED0"/>
<g opacity="0.3">
<path d="M3205.17 13.4259C3212.93 13.8126 3220.46 16.1798 3227.04 20.3021L5538.81 1354.78C5555.2 1365.7 5568.85 1380.27 5578.7 1397.33C5588.54 1414.4 5594.31 1433.51 5595.57 1453.17V3283.97C5595.57 3293.73 5593.32 3316.35 5573.19 3316.35C5565.43 3315.97 5557.89 3313.6 5551.31 3309.48L3239.55 1974.75C3223.13 1963.86 3209.45 1949.3 3199.61 1932.23C3189.76 1915.16 3184 1896.03 3182.79 1876.36V45.8063C3182.79 36.0547 3185.04 13.4259 3205.17 13.4259ZM3205.17 0.923828C3184.54 0.923828 3170.29 17.3015 3170.29 45.8063V1876.61C3171.42 1898.43 3177.67 1919.68 3188.53 1938.64C3199.39 1957.59 3214.55 1973.74 3232.8 1985.76L5545.06 3320.35C5553.54 3325.57 5563.23 3328.49 5573.19 3328.86C5593.82 3328.86 5608.07 3312.48 5608.07 3283.97V1453.17C5606.93 1431.35 5600.68 1410.1 5589.82 1391.14C5578.96 1372.19 5563.8 1356.04 5545.56 1344.02L3233.3 9.42523C3224.81 4.21367 3215.12 1.2851 3205.17 0.923828Z" fill="#1C6ED0"/>
</g>
<path opacity="0.5" d="M3837.27 956.459L4839.56 1535.18C4899.45 1569.69 4947.83 1653.58 4947.83 1722.71V2000.38C4947.83 2069.4 4899.45 2097.4 4839.56 2062.89L3837.27 1484.17C3777.51 1449.67 3729 1365.78 3729 1296.64V1018.97C3729.25 949.583 3777.51 921.953 3837.27 956.459Z" fill="white"/>
<g opacity="0.5">
<path d="M4887.95 2084.02C4869.7 2083.37 4851.93 2077.94 4836.44 2068.27L3834.15 1489.67C3772.76 1454.17 3722.75 1367.65 3722.75 1296.64V1018.97C3722.75 983.213 3735.26 956.459 3757.63 943.957C3780.01 931.455 3809.52 933.705 3840.4 951.583L4842.69 1530.18C4904.2 1565.69 4954.08 1652.2 4954.08 1723.21V2000.88C4954.08 2036.64 4941.58 2063.39 4919.33 2075.9C4909.77 2081.32 4898.94 2084.12 4887.95 2084.02ZM3789.01 947.832C3780.25 947.705 3771.61 949.952 3764.01 954.333C3745.63 964.96 3735.38 987.839 3735.38 1018.97V1296.64C3735.38 1363.65 3782.51 1445.29 3840.52 1478.8L4842.82 2057.52C4869.7 2073.02 4894.7 2075.65 4913.2 2065.02C4931.71 2054.39 4941.71 2031.39 4941.71 2000.38V1722.71C4941.71 1655.7 4894.58 1574.06 4836.57 1540.56L3834.15 962.085C3820.6 953.485 3805.04 948.572 3789.01 947.832Z" fill="#1C6ED0"/>
</g>
<g opacity="0.5">
<path d="M3996.92 1183.87C4007.23 1189.96 4016.55 1197.59 4024.55 1206.5C4032.74 1215.63 4039.98 1225.56 4046.18 1236.13C4052.04 1246.05 4056.81 1256.57 4060.43 1267.51C4063.58 1276.32 4065.43 1285.55 4065.94 1294.89C4066.02 1295.73 4065.92 1296.59 4065.64 1297.39C4065.36 1298.18 4064.91 1298.91 4064.31 1299.52C4063.85 1299.94 4063.25 1300.17 4062.62 1300.17C4062 1300.17 4061.4 1299.94 4060.93 1299.52L4030.18 1281.89C4028.22 1280.65 4026.45 1279.14 4024.93 1277.39C4023.42 1275.22 4022.04 1272.97 4020.8 1270.64C4020.8 1269.64 4019.68 1268.01 4018.68 1265.76C4017.42 1263.07 4015.96 1260.48 4014.3 1258.01C4012.21 1254.91 4009.87 1251.98 4007.3 1249.26C4004.24 1246.11 4000.75 1243.41 3996.92 1241.26C3994.19 1239.72 3991.35 1238.38 3988.42 1237.26C3986.12 1236.35 3983.65 1235.92 3981.17 1236.01C3980.16 1236.05 3979.17 1236.3 3978.26 1236.75C3977.36 1237.21 3976.56 1237.85 3975.92 1238.63C3974.4 1240.96 3973.69 1243.73 3973.92 1246.51C3973.94 1250.05 3974.7 1253.54 3976.17 1256.76C3978.14 1260.76 3980.67 1264.46 3983.67 1267.76C3988.05 1272.71 3992.73 1277.38 3997.67 1281.76L4019.18 1301.14C4027.34 1308.36 4034.9 1316.22 4041.81 1324.65C4048.1 1332.35 4053.51 1340.74 4057.93 1349.65C4062.21 1358.32 4065.45 1367.47 4067.56 1376.9C4069.75 1387.18 4070.79 1397.66 4070.69 1408.16C4071.1 1418.35 4069.26 1428.51 4065.31 1437.91C4062.27 1444.84 4056.93 1450.5 4050.18 1453.92C4042.96 1457.11 4034.91 1457.94 4027.18 1456.29C4016.97 1454.26 4007.19 1450.45 3998.3 1445.04C3987.48 1438.79 3977.66 1430.95 3969.17 1421.79C3960.59 1412.52 3953 1402.38 3946.54 1391.53C3940.41 1381.23 3935.42 1370.29 3931.66 1358.9C3928.27 1349.16 3926.37 1338.96 3926.04 1328.65C3925.96 1327.79 3926.05 1326.93 3926.3 1326.12C3926.56 1325.3 3926.98 1324.55 3927.54 1323.9C3928 1323.47 3928.6 1323.24 3929.22 1323.24C3929.85 1323.24 3930.45 1323.47 3930.91 1323.9L3961.67 1341.65C3963.66 1342.69 3965.4 1344.14 3966.79 1345.9C3968.24 1347.72 3969.5 1349.69 3970.54 1351.77L3973.42 1358.15C3974.87 1361.43 3976.54 1364.6 3978.42 1367.65C3980.69 1371.48 3983.37 1375.04 3986.42 1378.28C3989.88 1381.99 3993.89 1385.15 3998.3 1387.66C4004.57 1391.73 4011.65 1394.37 4019.05 1395.41C4024.55 1395.91 4027.3 1392.53 4027.3 1385.28C4027.27 1381.49 4026.23 1377.79 4024.3 1374.53C4021.76 1370.02 4018.7 1365.82 4015.18 1362.03C4011.05 1357.65 4005.93 1352.65 3999.55 1347.02C3993.17 1341.4 3985.8 1334.52 3977.17 1326.9C3962.12 1313.86 3950.06 1297.75 3941.79 1279.64C3934.13 1261.97 3930.34 1242.88 3930.66 1223.63C3930.46 1214.42 3931.99 1205.26 3935.16 1196.62C3937.7 1189.65 3942.33 1183.62 3948.42 1179.37C3954.66 1175.4 3962.06 1173.64 3969.42 1174.37C3979.18 1175.44 3988.58 1178.69 3996.92 1183.87Z" fill="#1C6ED0"/>
<path d="M4230.46 1322.4C4232.48 1323.68 4234.05 1325.56 4234.96 1327.77C4236.16 1330.27 4236.8 1333 4236.84 1335.77V1374.65C4236.93 1375.69 4236.82 1376.73 4236.49 1377.72C4236.17 1378.71 4235.65 1379.62 4234.96 1380.4C4234.34 1380.96 4233.54 1381.26 4232.71 1381.26C4231.88 1381.26 4231.08 1380.96 4230.46 1380.4L4189.2 1356.53V1541.68C4189.3 1542.74 4189.19 1543.8 4188.87 1544.81C4188.54 1545.82 4188.02 1546.76 4187.33 1547.56C4186.7 1548.09 4185.9 1548.38 4185.08 1548.38C4184.26 1548.38 4183.46 1548.09 4182.83 1547.56L4152.2 1529.8C4150.18 1528.52 4148.61 1526.64 4147.7 1524.43C4146.5 1521.93 4145.86 1519.2 4145.82 1516.43V1331.27L4104.56 1307.39C4102.55 1306.11 4100.98 1304.23 4100.06 1302.02C4098.87 1299.52 4098.23 1296.79 4098.19 1294.02V1255.76C4098.09 1254.72 4098.21 1253.68 4098.53 1252.69C4098.85 1251.7 4099.38 1250.79 4100.06 1250.01C4100.68 1249.45 4101.48 1249.15 4102.31 1249.15C4103.14 1249.15 4103.95 1249.45 4104.56 1250.01L4230.46 1322.4Z" fill="#1C6ED0"/>
<path d="M4345.86 1388.91C4349 1390.83 4351.49 1393.66 4352.98 1397.03C4354.46 1400.19 4355.59 1403.51 4356.36 1406.91L4407.49 1663.95C4407.98 1665.88 4408.27 1667.85 4408.37 1669.83C4408.44 1670.68 4408.35 1671.54 4408.09 1672.35C4407.83 1673.17 4407.42 1673.92 4406.87 1674.58C4406.37 1675.02 4405.72 1675.26 4405.05 1675.26C4404.39 1675.26 4403.74 1675.02 4403.24 1674.58L4373.74 1657.45C4370.82 1655.96 4368.49 1653.54 4367.11 1650.58C4365.87 1648.27 4365.03 1645.78 4364.61 1643.2L4357.98 1609.44L4295.47 1573.44L4288.97 1599.57C4288.63 1601.33 4287.75 1602.94 4286.47 1604.19C4285.22 1605.44 4282.97 1605.19 4279.85 1603.32L4250.47 1587.19C4248.79 1586.1 4247.48 1584.53 4246.72 1582.69C4245.75 1580.7 4245.24 1578.52 4245.21 1576.31C4245.32 1574.65 4245.65 1573.01 4246.22 1571.44L4297.35 1373.53C4297.89 1371.25 4299.06 1369.17 4300.72 1367.53C4302.35 1365.78 4304.72 1365.9 4307.85 1367.53L4345.86 1388.91ZM4308.35 1524.8L4345.86 1546.68L4326.85 1449.67L4308.35 1524.8Z" fill="#1C6ED0"/>
<path d="M4514.88 1487.17C4524.93 1493 4534.21 1500.06 4542.51 1508.18C4550.64 1516.23 4557.62 1525.36 4563.27 1535.31C4569.15 1545.78 4573.57 1557.01 4576.39 1568.69C4579.57 1581.57 4581.13 1594.8 4581.02 1608.07C4581.77 1622.03 4579.28 1635.98 4573.77 1648.82C4571.88 1652.89 4569.01 1656.42 4565.4 1659.08C4561.8 1661.75 4557.58 1663.47 4553.14 1664.08L4582.15 1766.84C4582.61 1768.26 4582.86 1769.73 4582.9 1771.22C4582.98 1772.05 4582.89 1772.9 4582.63 1773.69C4582.38 1774.49 4581.95 1775.22 4581.4 1775.85C4580.87 1776.29 4580.21 1776.54 4579.52 1776.54C4578.83 1776.54 4578.17 1776.29 4577.64 1775.85L4545.76 1757.47C4542.84 1755.88 4540.51 1753.38 4539.14 1750.34C4537.87 1747.68 4536.82 1744.92 4536.01 1742.09L4510.01 1649.7L4488.38 1637.2V1714.46C4488.48 1715.5 4488.36 1716.54 4488.04 1717.53C4487.71 1718.52 4487.19 1719.43 4486.5 1720.21C4485.89 1720.77 4485.08 1721.07 4484.25 1721.07C4483.42 1721.07 4482.62 1720.77 4482 1720.21L4451.37 1702.46C4449.37 1701.1 4447.81 1699.19 4446.87 1696.96C4445.66 1694.51 4445.02 1691.81 4445 1689.08V1455.92C4444.91 1454.88 4445.03 1453.84 4445.35 1452.85C4445.67 1451.86 4446.19 1450.95 4446.87 1450.17C4447.5 1449.64 4448.3 1449.35 4449.12 1449.35C4449.95 1449.35 4450.74 1449.64 4451.37 1450.17L4514.88 1487.17ZM4488.38 1581.31L4514.88 1596.57C4517.2 1598.25 4519.84 1599.45 4522.63 1600.07C4525.43 1600.69 4528.32 1600.73 4531.14 1600.19C4535.51 1598.82 4537.64 1593.07 4537.64 1582.94C4538.1 1574.13 4535.83 1565.4 4531.14 1557.93C4526.97 1551.7 4521.4 1546.52 4514.88 1542.81L4488.38 1527.43V1581.31Z" fill="#1C6ED0"/>
<path d="M4744.67 1619.19C4746.63 1620.57 4748.15 1622.48 4749.05 1624.7C4750.3 1627.14 4750.98 1629.83 4751.05 1632.57V1670.95C4751.12 1672 4750.98 1673.05 4750.64 1674.03C4750.29 1675.02 4749.75 1675.93 4749.05 1676.7C4748.44 1677.22 4747.66 1677.51 4746.86 1677.51C4746.06 1677.51 4745.28 1677.22 4744.67 1676.7L4703.42 1652.95V1838.11C4703.51 1839.14 4703.39 1840.18 4703.06 1841.17C4702.74 1842.16 4702.22 1843.07 4701.54 1843.86C4700.92 1844.41 4700.12 1844.72 4699.29 1844.72C4698.46 1844.72 4697.66 1844.41 4697.04 1843.86L4666.91 1826.73C4664.96 1825.35 4663.44 1823.44 4662.53 1821.23C4661.32 1818.78 4660.68 1816.09 4660.66 1813.35V1628.07L4619.4 1604.32C4617.4 1602.96 4615.84 1601.05 4614.9 1598.82C4613.69 1596.37 4613.05 1593.67 4613.03 1590.94V1552.68C4612.93 1551.63 4613.04 1550.56 4613.36 1549.55C4613.69 1548.54 4614.21 1547.61 4614.9 1546.81C4615.53 1546.28 4616.33 1545.99 4617.15 1545.99C4617.98 1545.99 4618.77 1546.28 4619.4 1546.81L4744.67 1619.19Z" fill="#1C6ED0"/>
</g>
<path opacity="0.3" d="M3398.95 216.085C3421.11 230.57 3439.56 250.069 3452.78 273.005C3466.01 295.941 3473.65 321.669 3475.09 348.107C3475.09 396.615 3440.96 416.369 3398.95 391.989C3376.76 377.561 3358.3 358.092 3345.07 335.17C3331.84 312.248 3324.21 286.522 3322.81 260.092C3322.81 211.959 3356.82 191.831 3398.95 216.085Z" fill="#1C6ED0"/>
<path d="M3442.95 315.226C3442.94 306.619 3441.16 298.106 3437.7 290.222C3434.58 281.916 3429 274.762 3421.7 269.719C3410.7 263.218 3401.57 276.345 3400.07 291.847C3398.82 274.72 3389.82 250.966 3378.82 244.465C3376.38 242.776 3373.41 242.012 3370.46 242.309C3367.5 242.607 3364.75 243.947 3362.69 246.09C3358.71 251.502 3356.77 258.14 3357.19 264.843C3357.19 291.097 3372.82 314.851 3385.94 339.855L3399.95 366.11L3413.95 356.233C3427.08 346.607 3442.95 341.481 3442.95 315.226Z" fill="#FAFAFA"/>
<path opacity="0.3" d="M3627.49 348.107C3649.77 362.488 3668.34 381.932 3681.68 404.854C3695.02 427.775 3702.75 453.525 3704.25 480.004C3704.25 528.637 3670.12 548.266 3628.11 524.012C3605.93 509.541 3587.48 490.045 3574.25 467.106C3561.02 444.167 3553.39 418.432 3551.97 391.989C3551.35 343.481 3585.35 323.728 3627.49 348.107Z" fill="#1C6ED0"/>
<path d="M3670.49 447.499C3670.37 438.891 3668.54 430.394 3665.12 422.494C3661.97 414.137 3656.34 406.941 3648.99 401.866C3638.11 395.49 3628.86 408.617 3627.49 424.12C3626.11 406.992 3617.11 383.113 3606.23 376.737C3603.78 375.014 3600.79 374.23 3597.81 374.528C3594.82 374.827 3592.04 376.187 3589.98 378.362C3585.98 383.765 3584.04 390.41 3584.48 397.115C3584.48 423.37 3600.11 447.124 3613.23 472.128L3627.11 498.382L3641.74 488.255C3654.24 478.879 3670.37 473.628 3670.49 447.499Z" fill="#FAFAFA"/>
<path opacity="0.3" d="M3856.02 480.004C3878.19 494.482 3896.64 513.979 3909.87 536.917C3923.1 559.854 3930.74 585.586 3932.16 612.026C3932.16 660.659 3898.03 680.288 3856.02 656.034C3833.79 641.69 3815.25 622.305 3801.91 599.453C3788.58 576.601 3780.82 550.926 3779.26 524.512C3779.26 475.378 3813.89 455.75 3856.02 480.004Z" fill="#1C6ED0"/>
<path d="M3899.03 579.396C3898.93 570.785 3897.1 562.282 3893.65 554.392C3890.45 546.096 3884.84 538.953 3877.53 533.888C3866.52 527.387 3857.4 540.514 3856.02 556.017C3854.65 538.889 3845.65 515.135 3834.64 508.634C3832.2 506.945 3829.24 506.181 3826.28 506.479C3823.33 506.777 3820.57 508.117 3818.52 510.259C3814.5 515.655 3812.5 522.294 3812.89 529.012C3812.89 555.267 3828.52 579.021 3841.77 604.025L3855.65 630.279L3869.65 620.403C3883.03 610.776 3898.91 605.65 3899.03 579.396Z" fill="#FAFAFA"/>
<path d="M4079.31 626.404L5144.74 1241.51C5160.19 1251.19 5173.13 1264.37 5182.54 1279.99C5191.94 1295.61 5197.54 1313.22 5198.88 1331.4C5198.88 1363.78 5174.62 1376.03 5144.74 1358.78L4079.31 743.673C4063.87 733.99 4050.92 720.806 4041.52 705.19C4032.11 689.574 4026.52 671.964 4025.18 653.783C4025.55 621.403 4049.81 609.151 4079.31 626.404Z" fill="#FAFAFA"/>
<path opacity="0.5" d="M4055.56 670.911C4056.21 680.005 4059 688.817 4063.69 696.636C4068.38 704.454 4074.85 711.06 4082.56 715.919L5152.87 1334.65C5167.74 1343.27 5179.87 1337.15 5179.87 1320.89C5179.2 1311.82 5176.4 1303.04 5171.71 1295.24C5167.02 1287.44 5160.57 1280.86 5152.87 1276.01L4082.56 657.284C4067.69 648.657 4055.56 654.783 4055.56 670.911Z" fill="#1C6ED0"/>
<g opacity="0.3">
<path d="M5254.51 1340.77C5254.22 1339.54 5254.22 1338.26 5254.51 1337.02C5254.48 1336.55 5254.59 1336.08 5254.81 1335.66C5255.03 1335.24 5255.36 1334.89 5255.76 1334.65L5279.89 1320.02L5282.14 1318.77C5282.6 1318.54 5283.12 1318.42 5283.64 1318.42C5284.16 1318.42 5284.67 1318.54 5285.14 1318.77L5298.77 1326.65C5299.75 1327.26 5300.5 1328.18 5300.89 1329.27C5301.5 1330.48 5301.84 1331.8 5301.89 1333.15V1445.04C5301.93 1445.54 5301.87 1446.05 5301.69 1446.53C5301.52 1447 5301.25 1447.43 5300.89 1447.79C5300.89 1448.42 5299.64 1448.42 5298.77 1447.79L5284.01 1439.29C5283.06 1438.64 5282.32 1437.73 5281.89 1436.66C5281.36 1435.48 5281.07 1434.21 5281.01 1432.91V1357.15L5267.64 1365.03C5267.05 1365.53 5266.3 1365.53 5265.39 1365.03C5264.46 1364.28 5263.76 1363.28 5263.39 1362.15L5254.51 1340.77Z" fill="#1C6ED0"/>
<path d="M5356.28 1358.65C5361.83 1361.89 5366.75 1366.13 5370.78 1371.15C5374.87 1376 5378.28 1381.38 5380.9 1387.16C5383.56 1393.09 5385.57 1399.3 5386.9 1405.66C5388.14 1412.01 5388.89 1418.45 5389.16 1424.91C5389.16 1429.91 5389.16 1435.16 5389.16 1440.66C5389.16 1446.17 5389.16 1451.04 5389.16 1455.79C5388.97 1461.36 5388.22 1466.89 5386.9 1472.3C5385.89 1476.61 5383.83 1480.6 5380.9 1483.92C5378.23 1486.65 5374.59 1488.22 5370.78 1488.3C5365.61 1488.1 5360.6 1486.5 5356.28 1483.67C5350.74 1480.4 5345.83 1476.16 5341.77 1471.17C5337.76 1466.29 5334.4 1460.91 5331.77 1455.17C5329.01 1449.27 5326.99 1443.06 5325.77 1436.66C5324.43 1430.33 5323.64 1423.88 5323.39 1417.41C5323.39 1412.66 5323.39 1407.53 5323.39 1402.03C5323.39 1396.53 5323.39 1391.41 5323.39 1386.53C5323.55 1380.96 5324.35 1375.42 5325.77 1370.03C5326.7 1365.69 5328.77 1361.68 5331.77 1358.4C5334.41 1355.7 5338 1354.13 5341.77 1354.03C5346.95 1354.14 5351.98 1355.75 5356.28 1358.65ZM5368.78 1442.54C5368.78 1432.79 5368.78 1423.16 5368.78 1413.41C5368.78 1410.41 5368.78 1407.53 5368.03 1404.91C5367.57 1402.36 5366.9 1399.85 5366.03 1397.41C5365.14 1395.15 5363.92 1393.05 5362.4 1391.16C5360.83 1389.21 5358.92 1387.56 5356.77 1386.28C5355.12 1385.15 5353.15 1384.58 5351.15 1384.66C5350.43 1384.73 5349.73 1384.95 5349.1 1385.32C5348.48 1385.69 5347.94 1386.18 5347.52 1386.78C5346.55 1388.35 5345.87 1390.09 5345.52 1391.91C5345.12 1394.39 5344.87 1396.89 5344.77 1399.41C5344.77 1408.78 5344.77 1418.54 5344.77 1428.54C5344.82 1431.34 5345.07 1434.14 5345.52 1436.91C5345.83 1439.5 5346.51 1442.02 5347.52 1444.42C5348.38 1446.72 5349.61 1448.87 5351.15 1450.79C5352.72 1452.73 5354.63 1454.38 5356.77 1455.67C5358.43 1456.8 5360.4 1457.37 5362.4 1457.29C5363.13 1457.23 5363.83 1457.01 5364.45 1456.64C5365.08 1456.27 5365.62 1455.77 5366.03 1455.17C5367.11 1453.64 5367.84 1451.89 5368.15 1450.04C5368.4 1447.55 5368.44 1445.04 5368.28 1442.54H5368.78Z" fill="#1C6ED0"/>
<path d="M5471.67 1465.92C5471.69 1469.02 5471.44 1472.11 5470.92 1475.17C5470.55 1477.85 5469.79 1480.46 5468.67 1482.92C5467.59 1485.25 5466.16 1487.4 5464.42 1489.3C5462.52 1491.25 5460.33 1492.9 5457.92 1494.17L5442.17 1503.43L5470.42 1519.8C5471.37 1520.45 5472.11 1521.36 5472.55 1522.43C5473.13 1523.59 5473.43 1524.88 5473.42 1526.18V1544.56C5473.48 1545.05 5473.43 1545.55 5473.28 1546.03C5473.13 1546.5 5472.88 1546.94 5472.55 1547.31C5472.41 1547.45 5472.24 1547.56 5472.06 1547.63C5471.88 1547.71 5471.68 1547.75 5471.48 1547.75C5471.29 1547.75 5471.09 1547.71 5470.91 1547.63C5470.73 1547.56 5470.56 1547.45 5470.42 1547.31L5411.04 1513.05C5410.05 1512.44 5409.3 1511.52 5408.91 1510.43C5408.29 1509.27 5407.95 1507.99 5407.91 1506.68V1491.67C5407.9 1489.94 5408.16 1488.21 5408.66 1486.55C5408.84 1485.88 5409.15 1485.26 5409.58 1484.72C5410.01 1484.19 5410.55 1483.74 5411.16 1483.42L5444.79 1465.79C5447.1 1464.72 5448.89 1462.79 5449.79 1460.42C5450.44 1458.27 5450.78 1456.04 5450.79 1453.79C5450.79 1452.92 5450.79 1451.79 5450.79 1450.17C5450.52 1448.47 5450.11 1446.79 5449.54 1445.17C5448.76 1443.29 5447.79 1441.49 5446.67 1439.79C5445.29 1437.95 5443.55 1436.41 5441.54 1435.29C5440.84 1434.75 5440.03 1434.36 5439.17 1434.15C5438.31 1433.93 5437.41 1433.9 5436.54 1434.04C5435.31 1434.28 5434.21 1434.94 5433.41 1435.91C5432.72 1436.94 5432.21 1438.08 5431.91 1439.29C5431.91 1440.54 5431.29 1441.42 5431.16 1442.04C5431.04 1442.67 5430.16 1444.17 5429.41 1444.29C5428.43 1444.26 5427.48 1443.95 5426.66 1443.42L5412.79 1435.54C5412.02 1434.95 5411.42 1434.18 5411.04 1433.29C5410.55 1432.36 5410.3 1431.33 5410.29 1430.29C5410.34 1425.76 5411.02 1421.26 5412.29 1416.91C5413.43 1413.23 5415.44 1409.89 5418.16 1407.16C5420.78 1404.72 5424.21 1403.34 5427.79 1403.28C5432.68 1403.36 5437.45 1404.84 5441.54 1407.53C5446.49 1410.45 5450.93 1414.17 5454.67 1418.54C5458.39 1422.94 5461.58 1427.77 5464.17 1432.91C5466.64 1438.16 5468.57 1443.65 5469.92 1449.29C5471.1 1454.75 5471.69 1460.33 5471.67 1465.92Z" fill="#1C6ED0"/>
<path d="M5511.55 1535.18L5513.3 1539.56C5513.94 1541.13 5514.74 1542.64 5515.68 1544.06C5516.56 1545.65 5517.66 1547.12 5518.93 1548.43C5520.19 1549.9 5521.72 1551.13 5523.43 1552.06C5524.76 1552.98 5526.31 1553.54 5527.93 1553.68C5529.14 1554.12 5530.47 1554.12 5531.68 1553.68C5532.89 1552.98 5533.82 1551.88 5534.3 1550.56C5535.09 1548.66 5535.43 1546.61 5535.3 1544.56C5535.3 1540.57 5534.27 1536.65 5532.3 1533.18C5530.44 1529.68 5527.62 1526.77 5524.18 1524.8C5523.27 1524.21 5522.25 1523.83 5521.18 1523.68H5518.55H5516.43C5515.86 1523.88 5515.24 1523.88 5514.68 1523.68L5497.17 1513.55C5496.21 1512.84 5495.43 1511.89 5494.92 1510.8C5494.32 1509.65 5494.06 1508.35 5494.17 1507.05L5497.55 1447.17C5497.51 1446.18 5497.82 1445.2 5498.42 1444.42C5498.56 1444.28 5498.73 1444.16 5498.91 1444.09C5499.09 1444.01 5499.29 1443.97 5499.49 1443.97C5499.68 1443.97 5499.88 1444.01 5500.06 1444.09C5500.24 1444.16 5500.41 1444.28 5500.55 1444.42L5548.68 1472.17C5549.64 1472.81 5550.38 1473.73 5550.81 1474.8C5551.39 1475.96 5551.69 1477.24 5551.68 1478.55V1496.92C5551.74 1497.42 5551.69 1497.92 5551.54 1498.39C5551.39 1498.87 5551.14 1499.3 5550.81 1499.67C5550.67 1499.81 5550.5 1499.93 5550.32 1500C5550.14 1500.08 5549.94 1500.12 5549.74 1500.12C5549.55 1500.12 5549.35 1500.08 5549.17 1500C5548.99 1499.93 5548.82 1499.81 5548.68 1499.67L5515.93 1480.67L5515.18 1495.67C5516.7 1495.36 5518.28 1495.36 5519.8 1495.67C5521.89 1496.04 5523.88 1496.8 5525.68 1497.92C5530.32 1500.51 5534.54 1503.8 5538.18 1507.68C5541.98 1511.75 5545.26 1516.29 5547.93 1521.18C5550.74 1526.39 5552.88 1531.93 5554.31 1537.68C5555.87 1543.85 5556.67 1550.19 5556.68 1556.56C5556.87 1562.3 5555.98 1568.02 5554.06 1573.44C5552.83 1577.26 5550.37 1580.55 5547.06 1582.81C5544.01 1584.85 5540.3 1585.65 5536.68 1585.06C5532.25 1584.37 5528 1582.8 5524.18 1580.44C5519.1 1577.49 5514.47 1573.83 5510.43 1569.56C5506.47 1565.29 5503.07 1560.55 5500.3 1555.43C5497.6 1550.56 5495.46 1545.41 5493.92 1540.06C5492.45 1535.14 5491.65 1530.06 5491.55 1524.93C5491.49 1524.09 5491.71 1523.26 5492.17 1522.55C5492.45 1522.36 5492.77 1522.26 5493.11 1522.26C5493.45 1522.26 5493.77 1522.36 5494.05 1522.55L5508.3 1530.81C5509.42 1531.49 5510.37 1532.43 5511.05 1533.56C5511.24 1534.09 5511.4 1534.63 5511.55 1535.18Z" fill="#1C6ED0"/>
</g>
<path d="M2838.48 4082.73C2837.48 4080.61 2768.84 3961.46 2768.84 3961.46C2768.84 3961.46 2783.6 3970.21 2852.61 3931.33C2878.39 3915.61 2902.44 3897.21 2924.37 3876.45L2970.13 3964.59C2999.26 3995.59 3060.39 3961.84 3130.03 3934.96C3141.66 3930.46 3153.53 3925.21 3165.41 3919.83H3166.16C3204.29 3907.33 3249.3 3920.58 3217.67 3964.21C3186.04 4007.85 3122.9 4037.6 3064.52 4064.23C2994.26 4096.98 2870.74 4152.37 2838.48 4082.73Z" fill="#B16668"/>
<path d="M3350.56 3936.83C3359.02 3947.72 3364.42 3960.67 3366.19 3974.34C3368.44 3988.97 3345.81 4046.73 3291.18 4092.61C3236.54 4138.49 3159.78 4160.75 3126.4 4180.12C3093.02 4199.5 3065.27 4229.38 3025.38 4250.89C2985.5 4272.39 2944.87 4288.39 2894.86 4271.89C2883.86 4261.76 2867.73 4236.13 2869.86 4232.76C2874.48 4225.13 3350.56 3936.83 3350.56 3936.83Z" fill="#263238"/>
<path d="M2984.63 3974.21C3017.01 3985.97 3070.39 3957.96 3130.03 3934.96C3186.16 3913.2 3246.05 3875.82 3289.06 3879.2C3332.06 3882.57 3376.57 3920.33 3339.06 3993.59C3328.06 4014.85 3303.43 4053.6 3279.8 4069.73C3219.92 4110.61 3161.03 4127.99 3121.28 4149.62C3069.52 4177.75 3045.64 4210.13 2996.26 4229.51C2932 4254.51 2885.61 4248.39 2869.61 4233.76C2853.61 4219.13 2805.6 4079.11 2834.73 4074.73C2834.73 4074.73 2858.73 4117.74 2955.25 4044.6C2997.38 4012.6 2989.13 3984.09 2984.63 3974.21Z" fill="#1C6ED0"/>
<path opacity="0.4" d="M2984.63 3974.21C3017.01 3985.97 3070.39 3957.96 3130.03 3934.96C3186.16 3913.2 3246.05 3875.82 3289.06 3879.2C3332.06 3882.57 3376.57 3920.33 3339.06 3993.59C3328.06 4014.85 3303.43 4053.6 3279.8 4069.73C3219.92 4110.61 3161.03 4127.99 3121.28 4149.62C3069.52 4177.75 3045.64 4210.13 2996.26 4229.51C2932 4254.51 2885.61 4248.39 2869.61 4233.76C2853.61 4219.13 2805.6 4079.11 2834.73 4074.73C2834.73 4074.73 2858.73 4117.74 2955.25 4044.6C2997.38 4012.6 2989.13 3984.09 2984.63 3974.21Z" fill="black"/>
<path d="M3188.29 4002.72C3188.29 4002.72 3166.29 3944.21 3117.65 3940.21C3113.19 3939.42 3108.59 3939.9 3104.39 3941.61C3100.19 3943.31 3096.55 3946.16 3093.9 3949.84C3093.9 3949.84 3136.78 3945.08 3168.91 4012.35C3168.91 4012.35 3172.29 4016.35 3180.79 4012.35C3183.66 4010.6 3189.91 4007.59 3188.29 4002.72Z" fill="#FAFAFA"/>
<path d="M3057.27 3964.09C3057.27 3964.09 3056.64 3962.09 3066.64 3957.34C3070.48 3955.33 3074.9 3954.71 3079.14 3955.59C3079.14 3955.59 3116.65 3961.21 3138.78 4022.6C3139.13 4025.24 3138.57 4027.92 3137.18 4030.2C3135.79 4032.48 3133.66 4034.21 3131.15 4035.1C3130.07 4035.82 3128.86 4036.32 3127.58 4036.55C3126.3 4036.78 3124.99 4036.75 3123.72 4036.46C3122.46 4036.17 3121.27 4035.62 3120.22 4034.85C3119.18 4034.07 3118.3 4033.1 3117.65 4031.97C3117.65 4031.97 3093.52 3967.46 3057.27 3964.09Z" fill="#FAFAFA"/>
<path d="M3021.89 3975.09C3021.89 3975.09 3022.76 3970.71 3030.64 3968.84C3040.51 3966.21 3043.77 3968.84 3043.77 3968.84C3043.77 3968.84 3073.77 3986.84 3087.77 4039.48C3087.77 4039.48 3091.02 4048.1 3078.9 4051.98C3066.77 4055.85 3066.39 4045.6 3066.39 4045.6C3066.39 4045.6 3044.02 3980.22 3021.89 3975.09Z" fill="#FAFAFA"/>
<path d="M2564.81 3222.46C2661.7 3371.36 2952.38 3894.95 2952.38 3894.95C2952.38 3894.95 2880.74 4003.47 2769.09 3991.72L2344.02 3356.11L2564.81 3222.46Z" fill="#37474F"/>
<path d="M3245.3 4301.14C3230.8 4286.77 3165.41 4179.62 3165.41 4179.62C3165.41 4179.62 3214.42 4195.88 3286.43 4162.75C3323.06 4145.87 3350.57 4096.86 3350.57 4096.86L3405.2 4201.5C3431.83 4234.76 3491.09 4210 3562.6 4189C3575.1 4185.5 3586.86 4181.25 3599.11 4176.5H3599.86C3638.99 4167.37 3682.62 4184.12 3647.62 4224.88C3612.61 4265.64 3547.6 4290.39 3486.71 4312.4C3414.2 4339.28 3299.93 4355.15 3245.3 4301.14Z" fill="#B16668"/>
<path d="M3809.89 4184C3818.08 4196.58 3822.7 4211.14 3823.27 4226.13C3824.52 4242.01 3795.27 4301.77 3732.63 4346.15C3669.99 4390.53 3586.11 4407.54 3548.6 4425.91C3511.09 4444.29 3478.96 4473.3 3434.33 4492.8C3389.7 4512.3 3344.81 4526.43 3292.68 4503.8C3281.8 4492.05 3266.93 4463.17 3269.18 4459.67C3275.18 4450.17 3809.89 4184 3809.89 4184Z" fill="#263238"/>
<path d="M3415.45 4190.88C3420.51 4193.09 3425.68 4195.01 3430.95 4196.63C3436.21 4197.56 3441.58 4197.56 3446.83 4196.63C3459.5 4195.54 3472.05 4193.37 3484.34 4190.13C3514.72 4182.37 3544.35 4171.62 3574.48 4162.75C3636.99 4144.37 3703.88 4109.61 3749.51 4116.99C3795.14 4124.36 3844.27 4167 3797.52 4242.76C3779.59 4271.96 3756.75 4297.85 3730 4319.27C3665.37 4362.9 3591.11 4372.16 3546.6 4391.78C3488.84 4417.41 3460.46 4449.92 3405.57 4466.8C3334.69 4487.93 3285.55 4477.3 3269.68 4460.17C3260.8 4450.67 3257.18 4392.53 3238.92 4350.28C3223.42 4314.02 3220.29 4287.77 3234.3 4286.77C3238.21 4291.07 3242.66 4294.86 3247.55 4298.02C3253.06 4302.4 3259.39 4305.63 3266.18 4307.52C3275.64 4309.79 3285.33 4311.01 3295.06 4311.15C3312.37 4312.89 3329.85 4311.79 3346.82 4307.9C3351.59 4306.87 3355.95 4304.43 3359.32 4300.89C3362.94 4295.35 3364.53 4288.72 3363.82 4282.14C3363.82 4276.39 3363.82 4270.51 3363.82 4264.76C3363.65 4261.59 3364.08 4258.41 3365.07 4255.39C3366.78 4252.02 3369.26 4249.1 3372.32 4246.88C3382.11 4240.01 3390.08 4230.88 3395.57 4220.26C3398.53 4211.41 3399.51 4202.02 3398.45 4192.75C3398.26 4191.14 3398.61 4189.51 3399.45 4188.13C3401.2 4186.13 3404.45 4186.88 3406.95 4188.13C3409.45 4189.38 3412.58 4189.63 3415.45 4190.88Z" fill="#1C6ED0"/>
<path opacity="0.4" d="M3415.45 4190.88C3420.51 4193.09 3425.68 4195.01 3430.95 4196.63C3436.21 4197.56 3441.58 4197.56 3446.83 4196.63C3459.5 4195.54 3472.05 4193.37 3484.34 4190.13C3514.72 4182.37 3544.35 4171.62 3574.48 4162.75C3636.99 4144.37 3703.88 4109.61 3749.51 4116.99C3795.14 4124.36 3844.27 4167 3797.52 4242.76C3779.59 4271.96 3756.75 4297.85 3730 4319.27C3665.37 4362.9 3591.11 4372.16 3546.6 4391.78C3488.84 4417.41 3460.46 4449.92 3405.57 4466.8C3334.69 4487.93 3285.55 4477.3 3269.68 4460.17C3260.8 4450.67 3257.18 4392.53 3238.92 4350.28C3223.42 4314.02 3220.29 4287.77 3234.3 4286.77C3238.21 4291.07 3242.66 4294.86 3247.55 4298.02C3253.06 4302.4 3259.39 4305.63 3266.18 4307.52C3275.64 4309.79 3285.33 4311.01 3295.06 4311.15C3312.37 4312.89 3329.85 4311.79 3346.82 4307.9C3351.59 4306.87 3355.95 4304.43 3359.32 4300.89C3362.94 4295.35 3364.53 4288.72 3363.82 4282.14C3363.82 4276.39 3363.82 4270.51 3363.82 4264.76C3363.65 4261.59 3364.08 4258.41 3365.07 4255.39C3366.78 4252.02 3369.26 4249.1 3372.32 4246.88C3382.11 4240.01 3390.08 4230.88 3395.57 4220.26C3398.53 4211.41 3399.51 4202.02 3398.45 4192.75C3398.26 4191.14 3398.61 4189.51 3399.45 4188.13C3401.2 4186.13 3404.45 4186.88 3406.95 4188.13C3409.45 4189.38 3412.58 4189.63 3415.45 4190.88Z" fill="black"/>
<path d="M3630.36 4240.38C3630.36 4240.38 3612.11 4175.75 3560.35 4166.87C3555.64 4165.67 3550.69 4165.8 3546.05 4167.26C3541.41 4168.72 3537.27 4171.44 3534.1 4175.12C3534.1 4175.12 3580.48 4173.75 3609.11 4248.39C3609.11 4248.39 3612.24 4253.01 3621.61 4249.51C3624.74 4248.39 3631.86 4245.76 3630.36 4240.38Z" fill="#FAFAFA"/>
<path d="M3493.59 4187.62C3493.59 4187.62 3493.59 4185.5 3504.22 4181.37C3508.53 4179.54 3513.33 4179.23 3517.84 4180.5C3517.84 4180.5 3556.85 4189.75 3575.73 4257.39C3575.83 4260.21 3574.96 4262.98 3573.28 4265.25C3571.6 4267.52 3569.2 4269.16 3566.48 4269.89C3565.25 4270.56 3563.9 4270.97 3562.52 4271.1C3561.13 4271.24 3559.72 4271.09 3558.39 4270.67C3557.06 4270.25 3555.83 4269.56 3554.77 4268.66C3553.71 4267.75 3552.85 4266.64 3552.22 4265.39C3552.22 4265.39 3532.1 4194.25 3493.59 4187.62Z" fill="#FAFAFA"/>
<path d="M3454.83 4195.75C3454.83 4195.75 3456.21 4191.25 3464.71 4189.88C3475.46 4188 3478.71 4191.75 3478.71 4191.75C3478.71 4191.75 3509.22 4213.63 3519.59 4271.14C3519.59 4271.14 3522.34 4280.64 3508.97 4283.64C3495.59 4286.64 3495.59 4275.76 3495.59 4275.76C3495.59 4275.76 3478.09 4203.63 3454.83 4195.75Z" fill="#FAFAFA"/>
<path d="M3033.01 3436.37C3103.03 3560.64 3276.8 3932.71 3366.44 4117.36C3321.4 4172.33 3257.3 4208.3 3186.91 4218.13L2716.59 3571.4L2856.61 3453.5L3033.01 3436.37Z" fill="#455A64"/>
<path d="M1430.37 3308.48C1430.37 3308.48 1998.21 3137.07 2096.98 3110.07C2195.75 3083.06 2376.78 3046.81 2432.16 3071.69C2487.55 3096.57 2518.8 3140.2 2552.56 3193.46C2587.56 3248.72 2613.32 3299.1 2613.32 3299.1C2613.32 3299.1 2241.51 3400.74 2016.47 3400.74C1791.43 3400.74 1430.37 3308.48 1430.37 3308.48Z" fill="#37474F"/>
<path d="M1470.12 3085.19C1434.49 3206.84 1388.11 3423.62 1552.01 3581.9C1615.9 3643.66 1982.34 3840.07 2207.37 3771.06C2458.79 3693.92 2758.97 3545.27 2758.97 3545.27C2758.97 3545.27 2910.74 3554.14 2960.12 3525.64C3009.51 3497.13 3039.51 3450 3033.01 3436.37C2954.62 3273.85 2889.36 3189.33 2719.71 3206.34C2512.17 3227.09 2166.37 3290.1 2166.37 3290.1L1470.12 3085.19Z" fill="#455A64"/>
<path d="M2314.89 2204.29C2207.38 2110.15 2056.47 2153.03 1972.59 2234.67C1844.06 2359.69 1767.8 2518.47 1796.06 2597.23C1828.94 2687.37 2314.89 2204.29 2314.89 2204.29Z" fill="#455A64"/>
<path d="M3585.11 2755.01C3587.36 2739.38 3574.73 2721.63 3549.22 2708.63L3251.67 2556.48C3206.12 2536.29 3154.92 2532.75 3107.03 2546.47L2834.98 2640.24C2811.23 2648.49 2798.22 2659.99 2797.47 2671.25C2796.85 2679.5 2792.47 2711.5 2792.22 2720.63C2791.97 2729.76 2797.85 2736.51 2810.48 2742.88C2840.98 2758.51 2909.37 2763.64 2963.13 2754.38L3032.14 2742.63C3085.9 2733.38 3154.16 2738.51 3184.54 2753.88C3202.97 2762.83 3217.73 2777.9 3226.29 2796.52L3210.29 2851.9C3206.48 2861.97 3206.48 2873.09 3210.29 2883.16L3205.29 2900.66C3199.17 2921.54 3197.17 2943.42 3249.17 2966.42C3265.53 2974.62 3283.69 2978.54 3301.96 2977.82C3320.24 2977.1 3338.04 2971.75 3353.69 2962.29L3564.6 2824.77C3568.64 2822.52 3572.12 2819.4 3574.8 2815.64C3577.49 2811.88 3579.3 2807.57 3580.1 2803.02C3581.1 2794.89 3583.98 2763.01 3585.11 2755.01Z" fill="#455A64"/>
<path d="M3240.05 2833.77L3241.05 2689.5L3151.28 2666L3143.16 2742.01C3157.45 2743.97 3171.38 2747.97 3184.54 2753.89C3202.97 2762.83 3217.73 2777.9 3226.3 2796.52L3219.79 2818.9L3240.05 2833.77Z" fill="#263238"/>
<path d="M3568.6 2721.5C3595.73 2746.51 3597.73 2753.89 3590.23 2852.4C3582.73 2950.92 3560.35 2953.54 3535.1 2936.67C3509.84 2919.79 3492.72 2872.9 3461.71 2892.03L3568.6 2721.5Z" fill="#455A64"/>
<path d="M2815.73 2694.12C2846.23 2709.75 2914.62 2714.88 2968.38 2705.63L3037.39 2693.87C3091.15 2684.62 3159.41 2689.75 3189.79 2705.13C3220.17 2720.5 3239.8 2750.13 3233.67 2771.01L3210.29 2851.9C3204.17 2872.78 3202.17 2894.66 3254.17 2917.66C3270.53 2925.85 3288.69 2929.76 3306.96 2929.04C3325.24 2928.32 3343.03 2922.99 3358.69 2913.54L3569.6 2776.64C3596.98 2758.89 3587.85 2728.38 3549.22 2708.63L3251.67 2556.48C3206.12 2536.29 3154.92 2532.75 3107.02 2546.47L2834.98 2640.24C2793.72 2654.49 2785.1 2678.62 2815.73 2694.12Z" fill="#1C6ED0"/>
<path opacity="0.2" d="M2815.73 2694.12C2846.23 2709.75 2914.62 2714.88 2968.38 2705.63L3037.39 2693.87C3091.15 2684.62 3159.41 2689.75 3189.79 2705.13C3220.17 2720.5 3239.8 2750.13 3233.67 2771.01L3210.29 2851.9C3204.17 2872.78 3202.17 2894.66 3254.17 2917.66C3270.53 2925.85 3288.69 2929.76 3306.96 2929.04C3325.24 2928.32 3343.03 2922.99 3358.69 2913.54L3569.6 2776.64C3596.98 2758.89 3587.85 2728.38 3549.22 2708.63L3251.67 2556.48C3206.12 2536.29 3154.92 2532.75 3107.02 2546.47L2834.98 2640.24C2793.72 2654.49 2785.1 2678.62 2815.73 2694.12Z" fill="black"/>
<path d="M3476.84 2707.88C3476.59 2706.24 3475.91 2704.7 3474.88 2703.41C3473.85 2702.12 3472.5 2701.11 3470.96 2700.5C3465.71 2698.05 3460.02 2696.66 3454.22 2696.42C3448.43 2696.19 3442.64 2697.11 3437.21 2699.13C3431.96 2701.25 3429.33 2704.13 3429.08 2707.25C3428.83 2710.38 3427.95 2716.88 3427.83 2719C3427.7 2721.13 3429.7 2724.63 3433.71 2726.88C3444.32 2731.81 3456.45 2732.35 3467.46 2728.38C3472.46 2726.38 3475.21 2723.5 3475.59 2720.5C3475.96 2717.5 3476.96 2710.25 3476.84 2707.88Z" fill="#263238"/>
<path d="M3404.95 2737.38C3404.76 2735.68 3404.11 2734.06 3403.08 2732.7C3402.04 2731.33 3400.66 2730.27 3399.07 2729.63C3393.82 2727.18 3388.13 2725.79 3382.33 2725.55C3376.54 2725.32 3370.75 2726.24 3365.32 2728.26C3360.32 2730.26 3357.57 2733.13 3357.32 2736.01C3357.07 2738.88 3356.07 2746.13 3355.94 2748.51C3356.13 2750.21 3356.78 2751.83 3357.81 2753.19C3358.85 2754.56 3360.23 2755.62 3361.82 2756.26C3372.43 2761.19 3384.56 2761.73 3395.57 2757.76C3400.57 2755.76 3403.32 2752.88 3403.7 2750.01C3404.07 2747.13 3404.95 2739.76 3404.95 2737.38Z" fill="#37474F"/>
<path d="M3409.33 2705.5C3409.33 2702.75 3407.45 2699.88 3403.45 2697.63C3392.84 2692.69 3380.7 2692.16 3369.69 2696.13C3364.69 2698.13 3361.94 2701 3361.57 2704C3361.19 2707 3360.57 2713.88 3360.32 2715.88C3360.07 2717.88 3362.07 2721.63 3366.19 2724C3371.45 2726.46 3377.14 2727.85 3382.93 2728.08C3388.73 2728.32 3394.51 2727.4 3399.95 2725.38C3405.08 2723.38 3407.83 2720.38 3408.08 2717.38C3408.33 2714.38 3409.2 2707.63 3409.33 2705.5Z" fill="#263238"/>
<path d="M3472.33 2740.76C3472.33 2738.01 3470.58 2735.13 3466.46 2732.88C3461.24 2730.4 3455.57 2728.99 3449.8 2728.74C3444.02 2728.48 3438.25 2729.38 3432.83 2731.38C3427.83 2733.38 3425.08 2736.26 3424.7 2739.13C3424.33 2742.01 3423.7 2749.01 3423.45 2751.63C3423.2 2754.26 3425.08 2757.39 3429.33 2759.89C3439.96 2764.79 3452.09 2765.28 3463.08 2761.26C3468.08 2759.26 3470.71 2756.39 3471.08 2753.51C3471.46 2750.63 3472.33 2742.88 3472.33 2740.76Z" fill="#37474F"/>
<path d="M3437.21 2699.13C3427.21 2703.13 3426.33 2710.38 3434.96 2715.25C3445.57 2720.18 3457.7 2720.72 3468.71 2716.75C3478.71 2712.63 3479.59 2705.38 3470.96 2700.5C3465.71 2698.05 3460.02 2696.66 3454.22 2696.42C3448.43 2696.19 3442.64 2697.11 3437.21 2699.13Z" fill="#455A64"/>
<path d="M3365.32 2728.51C3355.44 2732.51 3354.44 2739.76 3363.07 2744.63C3373.68 2749.56 3385.81 2750.1 3396.82 2746.13C3406.82 2742.01 3407.82 2734.76 3399.07 2729.88C3393.82 2727.43 3388.13 2726.04 3382.33 2725.8C3376.54 2725.57 3370.75 2726.49 3365.32 2728.51Z" fill="#455A64"/>
<path d="M3369.69 2696.13C3359.69 2700.25 3358.69 2707.38 3367.44 2712.25C3372.69 2714.73 3378.38 2716.14 3384.17 2716.39C3389.97 2716.65 3395.76 2715.75 3401.2 2713.75C3411.08 2709.75 3412.08 2702.5 3403.45 2697.63C3392.84 2692.69 3380.7 2692.16 3369.69 2696.13Z" fill="#455A64"/>
<path d="M3432.83 2731.38C3422.83 2735.38 3421.83 2742.63 3430.58 2747.51C3441.19 2752.44 3453.32 2752.98 3464.33 2749.01C3474.21 2744.88 3475.21 2737.76 3466.46 2732.88C3461.24 2730.4 3455.57 2728.99 3449.79 2728.74C3444.02 2728.48 3438.25 2729.38 3432.83 2731.38Z" fill="#455A64"/>
<path d="M3206.04 2576.35L3174.41 2558.73L3138.53 2573.35L3106.9 2555.73L3070.9 2570.48L3069.52 2583.86L3087.9 2594.11L3066.64 2602.73L3065.14 2616.11L3096.77 2633.74L3132.66 2618.99L3164.29 2636.62L3200.17 2621.99L3201.67 2608.61L3183.29 2598.36L3204.54 2589.61L3206.04 2576.35Z" fill="#37474F"/>
<path d="M3174.41 2558.73L3138.53 2573.35L3106.9 2555.73L3070.9 2570.48L3102.53 2588.11L3066.64 2602.73L3098.15 2620.36L3134.16 2605.73L3165.66 2623.36L3201.67 2608.61L3170.04 2590.98L3206.04 2576.35L3174.41 2558.73Z" fill="#455A64"/>
<path d="M3134.15 2605.74L3132.65 2618.99L3096.77 2633.74L3098.15 2620.36L3134.15 2605.74Z" fill="#263238"/>
<path d="M3170.04 2590.98L3183.29 2598.36L3204.54 2589.61L3206.04 2576.36L3170.04 2590.98Z" fill="#263238"/>
<path d="M3201.67 2608.61L3200.17 2621.99L3164.29 2636.62L3165.66 2623.36L3201.67 2608.61Z" fill="#263238"/>
<path d="M3102.53 2588.11L3070.89 2570.48L3069.39 2584.48L3087.9 2594.11L3102.53 2588.11Z" fill="#263238"/>
<path d="M2832.23 2547.73C2907.24 2530.72 2951.87 2543.85 3015.76 2541.22C3036.39 2540.47 3053.89 2529.35 3064.02 2531.22C3083.4 2534.97 3081.89 2555.1 3069.39 2568.73C3056.89 2582.36 3042.51 2595.23 2987.13 2603.86C2939.87 2611.36 2938 2605.99 2882.61 2623.11L2821.98 2651.62L2800.72 2599.48L2832.23 2547.73Z" fill="#B16668"/>
<path d="M2966.63 2541.22C2926.78 2524.11 2882.79 2519.07 2840.11 2526.72C2778.97 2541.22 2800.85 2603.86 2800.85 2603.86L2966.63 2541.22Z" fill="#B16668"/>
<path d="M2665.2 2223.67L2483.92 2385.82L2244.5 2301.81L2415.53 2064.14L2665.2 2223.67Z" fill="#B16668"/>
<path d="M2845.36 1912.24C2845.36 1912.24 2906.12 2004.51 2899.24 2013.64C2892.36 2022.76 2847.48 2030.89 2847.48 2030.89L2845.36 1912.24Z" fill="#9A4A4D"/>
<path d="M2676.45 1657.45C2799.48 1683.33 2834.98 1737.46 2846.61 1932.5C2859.11 2136.78 2837.86 2201.04 2811.1 2228.55C2792.97 2247.05 2692.33 2250.43 2641.57 2236.42C2577.94 2218.92 2434.29 2168.04 2366.53 2065.27C2287.51 1944.37 2266.51 1780.6 2351.4 1713.34C2471.05 1619.19 2626.45 1646.82 2676.45 1657.45Z" fill="#B16668"/>
<path d="M2647.2 2238.17C2700.08 2251.43 2781.09 2246.05 2805.47 2232.8C2775.69 2238.45 2744.97 2236.6 2716.08 2227.42C2687.28 2219.14 2659.91 2206.49 2634.95 2189.92L2647.2 2238.17Z" fill="#9A4A4D"/>
<path d="M2873.86 1741.84C2838.73 1764.84 2796.47 1773.72 2754.97 1779.35C2757.47 1812.48 2746.22 1844.98 2735.21 1876.36C2727.59 1898.12 2700.33 1966.25 2672.7 1927.87C2653.07 1900.12 2635.2 1874.86 2596.44 1880.74C2532.43 1890.24 2523.8 1971.88 2564.06 2021.51C2604.32 2071.15 2642.07 2052.14 2642.07 2052.14C2642.07 2052.14 2645.95 2139.66 2598.19 2201.29C2572.35 2213.75 2544.22 2220.77 2515.55 2221.91C2486.88 2223.05 2458.29 2218.29 2431.54 2207.92C2370.78 2186.41 2284.01 2107.03 2252.76 2046.02C2166.87 1877.86 2169.99 1718.84 2280.01 1672.33C2292.51 1592.94 2355.02 1557.43 2425.54 1541.06C2524.3 1518.3 2624.94 1582.31 2720.71 1543.81C2740.96 1535.68 2759.59 1523.93 2780.22 1517.05C2785.78 1514.52 2791.84 1513.29 2797.95 1513.44C2804.06 1513.59 2810.05 1515.13 2815.48 1517.93C2823.58 1524.91 2828.76 1534.68 2829.98 1545.31C2835.67 1564.12 2833.88 1584.41 2824.98 1601.94C2839.16 1594.65 2854.32 1589.43 2869.99 1586.44C2877.84 1585.03 2885.9 1585.3 2893.64 1587.24C2901.38 1589.18 2908.61 1592.74 2914.87 1597.69C2925.52 1608.22 2931.66 1622.48 2932 1637.45C2935.25 1679.21 2908.74 1718.84 2873.86 1741.84Z" fill="#263238"/>
<path d="M2279.01 1698.96L2205.38 1655.58C2211.32 1646.21 2220.68 1639.53 2231.46 1636.93C2242.24 1634.34 2253.61 1636.03 2263.17 1641.66C2272.73 1647.29 2279.72 1656.42 2282.68 1667.11C2285.63 1677.8 2284.32 1689.22 2279.01 1698.96Z" fill="#263238"/>
<path d="M2314.89 2204.29C2179.37 2163.79 2067.73 2184.29 1890.7 2352.94C1696.66 2537.35 1553.89 2850.65 1503.88 3188.58C1503.88 3188.58 1510.51 3344.73 1691.41 3448.63C1883.32 3558.77 2179.87 3531.89 2299.01 3333.61C2299.01 3333.61 2324.02 3156.95 2403.16 3062.44C2454.41 3001.18 2572.93 2865.9 2660.45 2769.26C2736.59 2685.12 2816.1 2479.96 2696.46 2383.32C2661.32 2355.07 2626.82 2333.31 2578.19 2301.31C2454.04 2323.31 2292.64 2249.8 2314.89 2204.29Z" fill="#1C6ED0"/>
<path opacity="0.75" d="M2314.89 2204.29C2179.37 2163.79 2067.73 2184.29 1890.7 2352.94C1696.66 2537.35 1553.89 2850.65 1503.88 3188.58C1503.88 3188.58 1510.51 3344.73 1691.41 3448.63C1883.32 3558.77 2179.87 3531.89 2299.01 3333.61C2299.01 3333.61 2324.02 3156.95 2403.16 3062.44C2454.41 3001.18 2572.93 2865.9 2660.45 2769.26C2736.59 2685.12 2816.1 2479.96 2696.46 2383.32C2661.32 2355.07 2626.82 2333.31 2578.19 2301.31C2454.04 2323.31 2292.64 2249.8 2314.89 2204.29Z" fill="white"/>
<path opacity="0.1" d="M2671.45 2756.51L2677.45 2748.76L2680.08 2745.26L2686.58 2736.01C2686.58 2735.26 2687.7 2734.51 2688.2 2733.63C2690.95 2729.55 2693.71 2725.38 2696.46 2721.13C2696.74 2720.75 2696.95 2720.33 2697.08 2719.88C2699.58 2716 2701.96 2711.88 2704.33 2707.38L2705.96 2704.38C2708.08 2700.5 2710.33 2696.5 2712.33 2691.87C2712.8 2691.15 2713.21 2690.4 2713.58 2689.62C2721.42 2674.19 2728.39 2658.33 2734.46 2642.12V2641.24C2749.56 2602.28 2757.4 2560.88 2757.59 2519.1C2716.57 2586.58 2663.87 2646.23 2601.94 2695.25C2522.8 2757.76 2429.79 2801.64 2354.9 2869.03C2275.64 2940.54 2212.87 3031.56 2143.49 3112.45C2115.61 3144.7 2074.73 3208.96 2032.22 3205.59C1980.34 3201.46 1940.33 3131.7 1918.58 3084.44C1883.82 3009.43 1857.94 2917.54 1811.18 2849.03C1770.3 2789.14 1705.04 2710.5 1634.4 2731.63C1570.51 2877.37 1526.6 3031.08 1503.88 3188.58C1503.88 3188.58 1510.51 3344.73 1691.41 3448.63C1707.54 3458 1724.24 3466.36 1741.42 3473.63C1746.67 3474.51 1751.92 3475.63 1757.05 3476.88C1782.93 3483.63 1807.06 3496.26 1833.69 3501.89L1843.19 3503.76L1853.94 3505.64L1865.44 3507.39L1875.19 3508.76L1887.7 3510.26L1896.32 3511.01L1909.82 3512.01H1917.95H1931.7H1953.96H1962.71L1975.21 3511.39L1985.09 3510.64L1996.46 3509.64L2007.34 3508.39L2017.72 3507.01L2030.22 3505.01L2038.35 3503.51C2043.72 3502.51 2048.97 3501.51 2054.22 3500.26L2057.6 3499.51C2155.99 3476.38 2246.76 3421.37 2299.76 3333.11C2299.76 3333.11 2301.01 3324.61 2303.64 3310.48C2304.52 3306.35 2305.39 3301.85 2306.39 3296.85C2308.39 3287.1 2311.02 3275.6 2314.14 3262.97C2324.89 3218.28 2340.05 3174.77 2359.4 3133.07C2366.4 3118.4 2374.29 3104.16 2383.03 3090.44C2387.4 3083.69 2391.9 3077.19 2396.66 3070.94L2404.03 3062.44L2414.41 3049.93C2462.54 2993.05 2551.06 2891.91 2626.94 2807.02L2661.07 2769.51L2669.33 2759.76L2671.45 2756.51Z" fill="#1C6ED0"/>
<path d="M3468.71 2955.29C3426.83 3022.05 3418.7 3063.94 3237.55 3078.06C3237.55 3078.06 2897.62 3291.35 2788.47 3330.48C2679.33 3369.61 2639.95 3308.23 2617.19 3209.34C2594.44 3110.44 2534.8 2737.38 2534.8 2737.38C2534.8 2737.38 2487.42 2507.22 2680.7 2376.45C2762.59 2438.96 2805.72 2502.84 2819.48 2612.86C2835.6 2744.51 2859.11 3053.68 2859.11 3053.68C2859.11 3053.68 3145.78 2928.66 3189.04 2885.66C3201.76 2872.15 3213.27 2857.55 3223.42 2842.02C3241.67 2817.02 3267.43 2789.77 3274.68 2756.89C3286.06 2704.75 3310.06 2712 3318.69 2740.63C3328.76 2777.5 3328.46 2816.44 3317.81 2853.15C3317.81 2853.15 3406.45 2922.79 3449.96 2899.41L3461.71 2891.91C3466.55 2888.48 3472.46 2886.89 3478.37 2887.42C3484.27 2887.95 3489.8 2890.56 3493.96 2894.78C3496.34 2906.79 3494.34 2914.54 3468.71 2955.29Z" fill="#B16668"/>
<path d="M2658.95 2355.32C2767.97 2406.7 2821.48 2488.84 2832.73 2613.11C2843.98 2737.38 2859.11 2953.29 2859.11 2953.29C2859.11 2953.29 2852.36 3032.06 2748.09 3068.69C2718.64 3079.56 2687.04 3083.35 2655.85 3079.74C2624.66 3076.14 2594.76 3065.24 2568.56 3047.93L2525.3 2766.64C2525.3 2766.64 2464.17 2462.34 2658.95 2355.32Z" fill="#455A64"/>
<path d="M1867.19 3265.1C1688.79 3046.81 1522.88 2784.89 1385.61 2705.75C1138.57 2563.48 636.736 2876.16 581.851 3589.65C526.967 4303.14 1053.81 4702.96 1563.02 4812.73C1823.68 4868.74 2166.24 4811.98 2300.64 4765.47C2710.33 4623.57 2939.75 4425.04 3038.26 4150.62C3145.78 3849.82 3064.39 3668.91 2924.37 3591.9C2861.3 3558.09 2788.8 3546.13 2718.21 3557.89C2220.13 3635.91 2005.34 3434.12 1867.19 3265.1Z" fill="#1C6ED0"/>
<path opacity="0.2" d="M2489.67 4689.58L2512.17 4679.08C2547.93 4504.05 2527.8 4340.03 2451.54 4188.25C2376.53 4040.1 2249.13 3901.33 2060.47 3763.18C1782.3 3560.27 1672.91 3367.74 1567.64 3181.58C1529.01 3113.32 1492.63 3048.81 1448.37 2985.17C1349.98 2843.15 1251.84 2768.51 1139.69 2750.51C1093.95 2743.6 1047.33 2745.21 1002.17 2755.26C986.753 2765.26 971.417 2776.22 956.164 2788.14C1013.79 2768.05 1075.37 2761.97 1135.82 2770.39C1242.21 2787.52 1335.85 2859.4 1431.24 2996.68C1474.75 3059.19 1511.13 3123.7 1549.51 3191.46C1656.03 3379.61 1766.3 3574.02 2047.97 3779.06C2291.51 3957.34 2590.44 4239.63 2489.67 4689.58Z" fill="black"/>
<path opacity="0.1" d="M1563.02 4812.73C1823.68 4868.74 2166.24 4811.98 2300.64 4765.47C2710.33 4623.57 2939.75 4425.04 3038.26 4150.62C3040.89 4143.24 3043.14 4136.12 3045.51 4128.86L3039.51 4126.49C2934.62 4092.36 2821.85 4133.24 2717.96 4170.12C2456.66 4262.89 2161.37 4331.52 1908.45 4218.13C1741.92 4143.12 1570.27 4026.47 1481.75 3866.82C1393.24 3707.17 1352.35 3524.76 1288.09 3354.24C1259.09 3277.35 1232.08 3177.96 1166.82 3103.07C1105.69 3033.06 1025.05 2982.17 932.159 2982.3C855.897 2982.3 785.385 3005.3 719.624 3083.06C648.612 3219.46 597.478 3388.99 582.101 3590.4C526.967 4303.27 1053.8 4702.96 1563.02 4812.73Z" fill="black"/>
<path d="M5210.13 4219.38L5565.19 4014.35C5574.46 4008.28 5582.18 4000.12 5587.72 3990.52C5593.26 3980.92 5596.46 3970.15 5597.07 3959.09V3963.21C5596.47 3952.14 5593.27 3941.37 5587.73 3931.77C5582.2 3922.17 5574.47 3914.01 5565.19 3907.95L4851.19 3495.38C4841.31 3490.39 4830.39 3487.8 4819.31 3487.8C4808.24 3487.8 4797.32 3490.39 4787.43 3495.38L4432.37 3700.42C4423.09 3706.45 4415.37 3714.58 4409.83 3724.17C4404.29 3733.75 4401.09 3744.5 4400.49 3755.55V3751.55C4401.09 3762.6 4404.29 3773.36 4409.83 3782.94C4415.37 3792.52 4423.09 3800.66 4432.37 3806.69L5146.37 4219.26C5156.24 4224.26 5167.16 4226.88 5178.23 4226.91C5189.31 4226.93 5200.23 4224.35 5210.13 4219.38Z" fill="#37474F"/>
<path d="M5178.37 3684.67L5565.31 3907.95C5574.59 3914.01 5582.32 3922.17 5587.86 3931.77C5593.4 3941.37 5596.59 3952.14 5597.19 3963.21V3959.09C5596.58 3970.15 5593.38 3980.92 5587.84 3990.52C5582.31 4000.12 5574.59 4008.28 5565.31 4014.35L5210.25 4219.38C5200.43 4224.55 5189.47 4227.17 5178.37 4227.01V3684.67Z" fill="#263238"/>
<path d="M5565.31 3944.83L5210.25 4150.12C5200.39 4155.18 5189.46 4157.81 5178.37 4157.81C5167.29 4157.81 5156.36 4155.18 5146.49 4150.12L4432.5 3737.55C4414.87 3727.42 4414.87 3710.92 4432.5 3700.79L4787.56 3495.76C4797.44 3490.77 4808.36 3488.17 4819.44 3488.17C4830.51 3488.17 4841.43 3490.77 4851.32 3495.76L5565.31 3908.33C5582.94 3918.2 5582.94 3934.71 5565.31 3944.83Z" fill="#455A64"/>
<path d="M5565.31 3877.45V3911.33L5196.75 4123.86C5192.7 4126.3 5188.19 4127.88 5183.5 4128.49C5175.36 4129.66 5167.08 4128.03 5159.99 4123.86L4432.5 3703.92V3668.79L5146.49 4082.11C5156.37 4087.13 5167.29 4089.74 5178.37 4089.74C5189.45 4089.74 5200.37 4087.13 5210.25 4082.11L5565.31 3877.45Z" fill="#1C6ED0"/>
<path opacity="0.2" d="M5565.31 3877.45V3911.33L5196.75 4123.86C5192.7 4126.3 5188.19 4127.88 5183.5 4128.49H5178.25V4089.48C5189.39 4089.72 5200.41 4087.1 5210.25 4081.86L5565.31 3877.45Z" fill="black"/>
<path d="M5210.25 4082.36L5565.31 3877.45C5574.6 3871.4 5582.33 3863.24 5587.87 3853.64C5593.41 3844.04 5596.61 3833.26 5597.19 3822.19V3756.55C5596.61 3745.48 5593.41 3734.71 5587.87 3725.1C5582.33 3715.5 5574.6 3707.34 5565.31 3701.29L4851.32 3288.73C4841.43 3283.74 4830.51 3281.14 4819.44 3281.14C4808.36 3281.14 4797.44 3283.74 4787.56 3288.73L4432.5 3493.63C4423.23 3499.71 4415.51 3507.87 4409.98 3517.47C4404.44 3527.07 4401.23 3537.83 4400.62 3548.89V3614.53C4401.22 3625.44 4404.43 3636.06 4409.97 3645.47C4415.52 3654.89 4423.24 3662.84 4432.5 3668.66L5146.49 4081.98C5156.33 4087.1 5167.24 4089.8 5178.33 4089.87C5189.41 4089.93 5200.36 4087.36 5210.25 4082.36Z" fill="#37474F"/>
<path d="M5178.37 3477.88L5565.31 3701.29C5574.6 3707.34 5582.33 3715.5 5587.87 3725.1C5593.41 3734.71 5596.6 3745.48 5597.19 3756.55V3822.19C5596.6 3833.26 5593.41 3844.04 5587.87 3853.64C5582.33 3863.24 5574.6 3871.4 5565.31 3877.45L5210.25 4082.36C5200.46 4087.6 5189.48 4090.22 5178.37 4089.98V3477.88Z" fill="#263238"/>
<path d="M5565.31 3738.17L5210.25 3943.08C5200.37 3948.07 5189.45 3950.67 5178.37 3950.67C5167.3 3950.67 5156.38 3948.07 5146.49 3943.08L4432.5 3530.52C4414.87 3520.39 4414.87 3503.89 4432.5 3493.01L4787.56 3288.1C4797.44 3283.11 4808.36 3280.51 4819.44 3280.51C4830.51 3280.51 4841.43 3283.11 4851.32 3288.1L5565.31 3700.67C5582.94 3711.42 5582.94 3727.92 5565.31 3738.17Z" fill="#455A64"/>
<path d="M5070.1 3575.02C5109.48 3597.65 5109.48 3634.28 5070.1 3656.91C5048.01 3668.01 5023.63 3673.78 4998.9 3673.78C4974.18 3673.78 4949.8 3668.01 4927.7 3656.91C4888.45 3634.28 4888.45 3597.65 4927.7 3575.02C4949.76 3563.8 4974.16 3557.95 4998.9 3557.95C5023.65 3557.95 5048.05 3563.8 5070.1 3575.02Z" fill="#1C6ED0"/>
<path d="M4490.38 3599.15C4494.04 3601.53 4497.08 3604.74 4499.26 3608.52C4501.43 3612.3 4502.67 3616.55 4502.88 3620.91C4502.88 3628.91 4497.26 3632.28 4490.38 3628.41C4486.74 3626.04 4483.71 3622.85 4481.53 3619.09C4479.36 3615.33 4478.11 3611.11 4477.88 3606.78C4477.88 3598.65 4483.5 3595.28 4490.38 3599.15Z" fill="#1C6ED0"/>
<path d="M4490.38 3647.28C4494.03 3649.67 4497.07 3652.88 4499.24 3656.66C4501.42 3660.44 4502.66 3664.68 4502.88 3669.04C4502.88 3677.04 4497.26 3680.42 4490.38 3676.54C4486.74 3674.18 4483.71 3670.99 4481.53 3667.23C4479.36 3663.47 4478.11 3659.25 4477.88 3654.91C4477.88 3646.78 4483.5 3643.41 4490.38 3647.28Z" fill="#1C6ED0"/>
<path d="M1267.09 1531.43V1343.9L1425.49 1330.02C1427.75 1329.82 1430.01 1330.3 1431.99 1331.4C1438.12 1334.77 1565.77 1408.16 1567.77 1409.28C1569.27 1410.16 1570.55 1411.37 1571.51 1412.81C1572.48 1414.25 1573.11 1415.9 1573.35 1417.62C1573.59 1419.34 1573.44 1421.09 1572.9 1422.74C1572.37 1424.4 1571.47 1425.91 1570.27 1427.16L1402.36 1609.19L1267.09 1531.43Z" fill="#1C6ED0"/>
<path d="M1402.36 1609.07L1570.27 1427.04C1571.89 1425.34 1572.95 1423.18 1573.31 1420.85C1573.67 1418.53 1573.3 1416.15 1572.27 1414.04C1571.23 1411.93 1569.58 1410.18 1567.52 1409.04C1565.46 1407.9 1563.1 1407.42 1560.76 1407.66L1402.36 1421.41V1609.07Z" fill="#1C6ED0"/>
<path d="M1267.09 1343.65L1402.36 1421.54L1560.77 1407.66C1562.63 1407.49 1564.51 1407.75 1566.27 1408.41C1553.76 1400.91 1437.87 1334.4 1432.12 1331.27C1430.08 1330.09 1427.71 1329.61 1425.37 1329.9L1267.09 1343.65Z" fill="#1C6ED0"/>
<path opacity="0.5" d="M1267.09 1343.65L1402.36 1421.54L1560.77 1407.66C1562.63 1407.49 1564.51 1407.75 1566.27 1408.41C1553.76 1400.91 1437.87 1334.4 1432.12 1331.27C1430.08 1330.09 1427.71 1329.61 1425.37 1329.9L1267.09 1343.65Z" fill="white"/>
<path d="M1402.49 1194.25C1401.7 1180.61 1397.73 1167.34 1390.89 1155.5C1384.05 1143.67 1374.54 1133.61 1363.11 1126.11L1331.1 1107.73C1318.93 1101.51 1305.45 1098.27 1291.78 1098.27C1278.11 1098.27 1264.64 1101.51 1252.46 1107.73L761.632 1391.66C750.194 1399.1 740.677 1409.14 733.855 1420.96C727.034 1432.78 723.1 1446.04 722.375 1459.67V1999.76C723.081 2013.41 727.005 2026.7 733.828 2038.54C740.651 2050.38 750.178 2060.44 761.632 2067.89L793.637 2086.4C805.836 2092.53 819.301 2095.73 832.956 2095.73C846.611 2095.73 860.076 2092.53 872.275 2086.4L1363.11 1802.48C1374.58 1795.03 1384.12 1784.97 1390.97 1773.13C1397.81 1761.29 1401.76 1748 1402.49 1734.34V1194.25Z" fill="#1C6ED0"/>
<path opacity="0.2" d="M722.375 1999.76C723.081 2013.41 727.005 2026.7 733.828 2038.54C740.651 2050.38 750.178 2060.44 761.632 2067.89L793.637 2086.4C804.728 2091.94 816.862 2095.08 829.248 2095.62C841.634 2096.16 853.994 2094.08 865.524 2089.52C847.021 2096.52 833.019 2086.02 833.019 2063.64V1523.55C833.494 1509.87 837.453 1496.53 844.521 1484.8L733.877 1420.91C726.809 1432.64 722.85 1445.98 722.375 1459.67V1999.76Z" fill="black"/>
<path opacity="0.5" d="M1401.11 1183.12C1396.61 1166.37 1381.36 1161.12 1363.61 1171.49L872.275 1455.54C860.631 1462.71 851.063 1472.79 844.521 1484.8L734.002 1421.04C740.534 1409.03 750.05 1398.91 761.632 1391.66L1252.46 1107.73C1264.66 1101.6 1278.13 1098.4 1291.78 1098.4C1305.44 1098.4 1318.9 1101.6 1331.1 1107.73L1363.23 1126.24C1373.08 1132.64 1381.52 1140.99 1388.04 1150.77C1394.55 1160.56 1399 1171.56 1401.11 1183.12Z" fill="white"/>
<path d="M1012.05 1496.17L1056.43 1470.54V1503.3L1100.94 1477.67V1547.56L1145.32 1521.8V1451.92L1189.83 1426.29V1393.53L1234.34 1367.78V1400.66L1278.72 1374.9V1444.79L1323.23 1419.16V1521.8L1278.72 1547.56V1598.82L1234.34 1624.57V1675.83L1189.83 1701.58V1752.84L1145.32 1778.6L1145.45 1829.86L1100.94 1855.48V1804.23L1056.43 1829.86V1778.6L1012.05 1804.23V1752.84L967.541 1778.6V1727.21L923.033 1752.84V1650.2L967.541 1624.57V1554.68L1012.05 1528.93V1496.17Z" fill="white"/>
</svg>
